{"glyphs":{"0":{"ha":886,"x_min":82,"x_max":804,"o":"m 83 438 q 135 672 84 572 q 271 823 186 771 q 458 876 357 876 q 721 760 639 876 q 804 445 804 645 q 755 204 804 309 q 622 43 707 100 q 433 -14 537 -14 q 233 45 312 -14 q 118 207 155 105 q 83 438 82 309 m 636 429 q 592 704 636 608 q 446 800 548 800 q 296 710 342 800 q 250 448 250 621 q 296 167 250 273 q 444 62 343 62 q 592 155 548 62 q 636 429 636 248 z "},"1":{"ha":602,"x_min":54,"x_max":567,"o":"m 252 91 l 252 704 q 165 680 224 693 q 71 664 106 667 l 54 747 q 197 798 125 763 q 320 876 268 833 l 321 876 l 410 862 l 410 91 l 567 74 l 567 0 l 80 0 l 80 74 l 252 91 z "},"2":{"ha":829,"x_min":60,"x_max":783,"o":"m 60 62 q 292 227 186 134 q 459 418 397 319 q 522 603 522 516 q 476 722 522 678 q 351 765 431 765 q 216 734 273 765 q 113 660 159 704 l 66 726 q 147 795 96 761 q 263 853 197 830 q 401 877 330 877 q 564 842 498 877 q 662 750 630 807 q 694 625 694 692 q 633 437 694 533 q 470 253 572 341 q 243 91 368 165 l 658 123 l 706 229 l 783 213 l 749 0 l 83 0 l 60 62 z "},"3":{"ha":774,"x_min":73,"x_max":709,"o":"m 193 -136 q 373 -103 296 -136 q 492 -13 450 -70 q 534 114 534 44 q 480 258 534 207 q 310 313 427 309 q 266 303 295 310 q 221 293 236 296 l 195 373 q 306 404 246 380 q 441 501 391 440 q 492 631 492 562 q 448 739 492 705 q 334 772 404 772 q 213 751 271 772 q 113 699 155 730 l 73 766 q 145 815 97 789 q 255 860 193 842 q 378 878 317 878 q 582 824 505 878 q 659 656 659 770 q 624 530 659 590 q 529 426 588 471 q 400 358 470 382 q 438 359 413 359 q 582 329 521 359 q 676 246 644 298 q 709 130 709 193 q 649 -53 709 28 q 478 -178 589 -133 q 220 -223 367 -223 q 149 -218 189 -223 q 80 -206 109 -213 l 80 -122 q 134 -132 102 -128 q 193 -136 165 -136 z "},"4":{"ha":893,"x_min":45,"x_max":859,"o":"m 45 68 q 246 471 130 224 q 463 946 362 718 l 499 946 l 621 879 l 244 172 l 187 86 l 543 106 l 548 363 l 680 376 l 680 114 l 859 125 l 859 0 l 680 0 l 680 -225 l 543 -225 l 543 0 l 84 0 l 45 68 z "},"5":{"ha":820,"x_min":122,"x_max":726,"o":"m 203 -146 q 378 -107 298 -146 q 505 3 458 -68 q 552 164 552 74 q 346 380 552 380 q 254 367 304 380 q 165 334 203 354 l 125 363 l 186 862 l 576 862 l 590 888 l 683 888 l 656 734 l 295 734 l 241 425 q 337 463 281 448 q 447 478 393 478 q 653 406 581 478 q 726 186 726 333 q 662 -16 726 79 q 481 -168 597 -111 q 219 -225 366 -225 q 122 -215 165 -225 l 123 -142 q 203 -146 169 -146 z "},"6":{"ha":918,"x_min":104,"x_max":817,"o":"m 104 405 q 189 729 104 580 q 405 973 273 878 q 677 1091 538 1068 l 711 1027 q 519 927 603 993 q 379 776 435 861 q 296 595 323 691 q 390 656 333 631 q 522 681 447 681 q 683 643 617 681 q 783 534 749 605 q 817 367 817 464 q 775 178 817 266 q 653 37 733 90 q 463 -16 572 -16 q 268 41 349 -16 q 146 193 187 97 q 104 405 104 288 m 278 505 q 273 442 275 477 l 273 410 q 319 157 273 254 q 471 60 365 60 q 573 99 532 60 q 634 200 614 138 q 654 328 654 262 q 606 527 654 464 q 478 589 559 589 q 391 576 431 589 q 322 544 351 563 q 278 505 293 524 z "},"7":{"ha":792,"x_min":50,"x_max":741,"o":"m 197 747 l 140 579 l 50 596 l 79 862 l 709 862 l 741 824 l 368 -238 l 200 -193 q 352 148 277 -31 q 526 572 427 328 l 600 752 l 197 747 z "},"8":{"ha":882,"x_min":96,"x_max":798,"o":"m 307 522 q 179 639 225 574 q 133 798 133 704 q 177 934 133 876 q 292 1021 220 991 q 445 1050 363 1050 q 602 1023 534 1050 q 707 943 669 995 q 745 823 745 892 q 697 679 745 749 q 566 558 650 609 q 686 478 637 517 q 767 385 736 438 q 798 265 798 332 q 750 118 798 182 q 620 20 701 54 q 445 -15 539 -15 q 277 13 357 -15 q 146 100 197 41 q 96 248 96 159 q 149 402 96 330 q 307 522 201 473 m 503 594 q 586 680 555 628 q 616 786 616 732 q 569 931 616 880 q 440 981 522 981 q 349 963 389 981 q 289 912 310 945 q 267 833 267 878 q 298 741 267 782 q 376 669 330 701 q 503 594 423 638 m 367 487 q 274 398 309 452 q 238 279 238 344 q 262 164 238 214 q 335 87 287 115 q 452 60 383 60 q 547 81 503 60 q 616 142 591 103 q 642 231 642 182 q 613 321 642 282 q 542 388 585 360 q 423 456 498 416 l 367 487 z "},"9":{"ha":919,"x_min":106,"x_max":822,"o":"m 822 465 q 745 135 822 285 q 544 -109 668 -15 q 280 -228 419 -203 l 246 -163 q 498 1 402 -111 q 630 262 593 114 q 539 204 593 228 q 422 181 485 181 q 255 222 327 181 q 145 338 184 263 q 106 511 106 413 q 150 693 106 609 q 274 827 193 777 q 466 877 355 877 q 664 823 584 877 q 783 676 744 769 q 822 465 822 583 m 646 351 q 652 429 652 391 l 653 465 q 456 801 653 801 q 353 763 395 801 q 290 665 311 724 q 269 543 269 605 q 318 337 269 402 q 449 273 368 273 q 568 297 515 273 q 646 351 621 321 z "},"\u0000":{"ha":0,"x_min":0,"x_max":0,"o":""},"\r":{"ha":0,"x_min":0,"x_max":0,"o":""}," ":{"ha":418,"x_min":0,"x_max":0,"o":""},"A":{"ha":961,"x_min":-23,"x_max":982,"o":"m 63 90 l 397 1040 l 559 1040 l 896 90 l 982 74 l 982 0 l 610 0 l 610 74 l 720 90 l 656 288 l 257 288 l 195 90 l 311 74 l 311 0 l -22 0 l -23 74 l 63 90 m 628 374 l 483 820 l 453 934 l 423 819 l 284 374 l 628 374 z "},"Á":{"ha":961,"x_min":-23,"x_max":982,"o":"m 63 90 l 397 1040 l 559 1040 l 896 90 l 982 74 l 982 0 l 610 0 l 610 74 l 720 90 l 656 288 l 257 288 l 195 90 l 311 74 l 311 0 l -22 0 l -23 74 l 63 90 m 628 374 l 483 820 l 453 934 l 423 819 l 284 374 l 628 374 m 610 1364 l 610 1364 l 714 1278 q 637 1211 690 1246 q 529 1146 585 1175 q 440 1107 473 1118 l 439 1107 l 385 1154 l 610 1364 z "},"Ă":{"ha":961,"x_min":-23,"x_max":982,"o":"m 63 90 l 397 1040 l 559 1040 l 896 90 l 982 74 l 982 0 l 610 0 l 610 74 l 720 90 l 656 288 l 257 288 l 195 90 l 311 74 l 311 0 l -22 0 l -23 74 l 63 90 m 628 374 l 483 820 l 453 934 l 423 819 l 284 374 l 628 374 m 251 1326 q 252 1355 251 1345 l 334 1355 q 336 1337 334 1345 q 377 1262 342 1296 q 486 1229 412 1229 q 593 1262 560 1229 q 631 1337 627 1296 q 633 1355 633 1345 l 713 1355 q 715 1327 715 1345 q 687 1219 715 1267 q 608 1142 660 1171 q 485 1114 556 1114 q 358 1142 411 1114 q 278 1218 305 1170 q 251 1326 251 1267 z "},"Ǎ":{"ha":961,"x_min":-23,"x_max":982,"o":"m 63 90 l 397 1040 l 559 1040 l 896 90 l 982 74 l 982 0 l 610 0 l 610 74 l 720 90 l 656 288 l 257 288 l 195 90 l 311 74 l 311 0 l -22 0 l -23 74 l 63 90 m 628 374 l 483 820 l 453 934 l 423 819 l 284 374 l 628 374 m 420 1365 l 545 1365 l 730 1163 l 668 1122 l 483 1259 l 294 1122 l 237 1162 l 420 1365 z "},"Â":{"ha":961,"x_min":-23,"x_max":982,"o":"m 63 90 l 397 1040 l 559 1040 l 896 90 l 982 74 l 982 0 l 610 0 l 610 74 l 720 90 l 656 288 l 257 288 l 195 90 l 311 74 l 311 0 l -22 0 l -23 74 l 63 90 m 628 374 l 483 820 l 453 934 l 423 819 l 284 374 l 628 374 m 420 1365 l 545 1365 l 730 1163 l 668 1122 l 483 1259 l 294 1122 l 237 1162 l 420 1365 z "},"Ä":{"ha":961,"x_min":-23,"x_max":982,"o":"m 63 90 l 397 1040 l 559 1040 l 896 90 l 982 74 l 982 0 l 610 0 l 610 74 l 720 90 l 656 288 l 257 288 l 195 90 l 311 74 l 311 0 l -22 0 l -23 74 l 63 90 m 628 374 l 483 820 l 453 934 l 423 819 l 284 374 l 628 374 m 219 1236 q 245 1314 219 1282 q 319 1345 271 1345 l 319 1345 q 368 1332 347 1345 q 398 1297 388 1318 q 409 1252 409 1276 q 382 1174 409 1204 q 304 1144 355 1144 l 304 1144 q 243 1171 267 1144 q 219 1236 219 1198 m 558 1236 q 584 1314 558 1282 q 657 1345 610 1345 l 658 1345 q 707 1332 686 1345 q 738 1297 727 1318 q 748 1252 748 1276 q 722 1174 748 1204 q 644 1144 695 1144 l 644 1144 q 582 1171 606 1144 q 558 1236 558 1198 z "},"À":{"ha":961,"x_min":-23,"x_max":982,"o":"m 63 90 l 397 1040 l 559 1040 l 896 90 l 982 74 l 982 0 l 610 0 l 610 74 l 720 90 l 656 288 l 257 288 l 195 90 l 311 74 l 311 0 l -22 0 l -23 74 l 63 90 m 628 374 l 483 820 l 453 934 l 423 819 l 284 374 l 628 374 m 371 1364 l 372 1364 l 596 1154 l 542 1107 l 541 1107 q 451 1147 508 1118 q 341 1212 393 1177 q 268 1278 290 1248 l 371 1364 z "},"Ā":{"ha":961,"x_min":-23,"x_max":982,"o":"m 63 90 l 397 1040 l 559 1040 l 896 90 l 982 74 l 982 0 l 610 0 l 610 74 l 720 90 l 656 288 l 257 288 l 195 90 l 311 74 l 311 0 l -22 0 l -23 74 l 63 90 m 628 374 l 483 820 l 453 934 l 423 819 l 284 374 l 628 374 m 680 1291 l 680 1184 l 293 1184 l 293 1291 l 680 1291 z "},"Ą":{"ha":956,"x_min":-23,"x_max":982,"o":"m 63 90 l 397 1040 l 559 1040 l 896 90 l 982 74 l 982 0 l 876 0 q 798 -47 833 -18 q 743 -109 763 -77 q 723 -166 723 -140 q 751 -228 723 -208 q 825 -248 779 -248 q 921 -225 869 -248 l 921 -300 q 848 -334 892 -321 q 760 -347 803 -347 q 633 -314 684 -347 q 583 -214 583 -281 q 608 -134 583 -176 q 677 -56 634 -92 q 771 0 721 -20 l 610 0 l 610 74 l 720 90 l 656 288 l 257 288 l 195 90 l 311 74 l 311 0 l -22 0 l -23 74 l 63 90 m 628 374 l 483 820 l 453 934 l 423 819 l 284 374 l 628 374 z "},"Å":{"ha":961,"x_min":-23,"x_max":982,"o":"m 982 74 l 982 0 l 610 0 l 610 74 l 720 90 l 656 288 l 257 288 l 195 90 l 311 74 l 311 0 l -22 0 l -23 74 l 63 90 l 394 1031 q 292 1091 326 1048 q 258 1192 258 1134 q 291 1286 258 1247 q 377 1346 323 1326 q 492 1366 430 1366 l 492 1366 q 612 1344 563 1366 q 686 1283 661 1322 q 710 1193 710 1244 q 670 1089 710 1131 q 562 1030 629 1046 l 896 90 l 982 74 m 486 1298 q 368 1196 368 1298 q 397 1119 368 1150 q 486 1088 427 1088 l 486 1088 q 575 1113 547 1088 q 602 1187 602 1138 q 574 1267 602 1236 q 487 1298 546 1298 l 486 1298 m 628 374 l 483 820 l 453 934 l 423 819 l 284 374 l 628 374 z "},"Ã":{"ha":961,"x_min":-23,"x_max":982,"o":"m 63 90 l 397 1040 l 559 1040 l 896 90 l 982 74 l 982 0 l 610 0 l 610 74 l 720 90 l 656 288 l 257 288 l 195 90 l 311 74 l 311 0 l -22 0 l -23 74 l 63 90 m 628 374 l 483 820 l 453 934 l 423 819 l 284 374 l 628 374 m 364 1255 q 306 1235 328 1255 q 272 1196 283 1214 q 258 1175 261 1179 l 193 1217 q 230 1283 203 1250 q 298 1339 257 1317 q 388 1362 339 1362 q 440 1353 416 1362 q 480 1331 463 1343 q 521 1297 498 1318 q 567 1261 549 1272 q 609 1249 585 1249 q 665 1269 645 1249 q 696 1307 686 1289 q 709 1331 706 1326 l 775 1287 q 707 1183 752 1225 q 595 1142 661 1142 q 526 1158 555 1142 q 462 1205 496 1175 q 411 1243 431 1231 q 364 1255 390 1255 z "},"Æ":{"ha":1280,"x_min":-119,"x_max":1262,"o":"m 552 88 l 552 294 l 201 294 l 119 88 l 222 72 l 222 0 l -119 0 l -119 72 l -19 90 l 357 941 l 178 958 l 178 1032 l 1145 1032 l 1166 815 l 1080 815 l 1036 947 l 710 956 l 710 570 l 930 574 l 950 686 l 1036 686 l 1036 369 l 950 369 l 930 485 l 710 488 l 710 83 l 1087 99 l 1173 270 l 1262 244 l 1211 0 l 437 0 l 437 73 l 552 88 m 552 382 l 552 949 l 467 949 l 395 773 l 237 382 l 552 382 z "},"Ǽ":{"ha":1280,"x_min":-119,"x_max":1262,"o":"m 785 1364 l 785 1364 l 889 1278 q 812 1211 865 1246 q 704 1146 760 1175 q 615 1107 648 1118 l 614 1107 l 560 1154 l 785 1364 m 552 88 l 552 294 l 201 294 l 119 88 l 222 72 l 222 0 l -119 0 l -119 72 l -19 90 l 357 941 l 178 958 l 178 1032 l 1145 1032 l 1166 815 l 1080 815 l 1036 947 l 710 956 l 710 570 l 930 574 l 950 686 l 1036 686 l 1036 369 l 950 369 l 930 485 l 710 488 l 710 83 l 1087 99 l 1173 270 l 1262 244 l 1211 0 l 437 0 l 437 73 l 552 88 m 552 382 l 552 949 l 467 949 l 395 773 l 237 382 l 552 382 z "},"B":{"ha":950,"x_min":65,"x_max":901,"o":"m 179 90 l 179 940 l 67 957 l 67 1032 l 252 1032 q 370 1038 298 1032 q 465 1042 425 1042 q 742 983 656 1042 q 827 808 827 924 q 803 691 827 744 q 731 602 778 637 q 620 553 684 566 q 768 526 705 555 q 866 439 831 496 q 901 308 901 383 q 802 80 901 168 q 475 -8 703 -8 q 422 -7 450 -8 q 383 -5 395 -5 q 253 0 301 0 l 65 0 l 65 74 l 179 90 m 338 584 q 477 581 372 581 q 669 780 669 581 q 648 884 669 844 q 582 944 628 924 q 457 964 536 964 q 376 961 408 964 q 338 956 343 957 l 338 584 m 337 83 q 389 74 353 76 q 471 71 424 71 q 668 126 607 71 q 728 286 728 181 q 705 407 728 361 q 630 474 681 453 q 495 496 578 496 l 429 496 q 337 494 358 496 l 337 83 z "},"Ḃ":{"ha":950,"x_min":65,"x_max":901,"o":"m 407 1240 q 433 1316 407 1285 q 507 1347 460 1347 l 508 1347 q 576 1319 551 1347 q 601 1254 601 1292 q 574 1178 601 1207 q 496 1148 547 1148 l 495 1148 q 431 1174 456 1148 q 407 1240 407 1200 m 179 90 l 179 940 l 67 957 l 67 1032 l 252 1032 q 370 1038 298 1032 q 465 1042 425 1042 q 742 983 656 1042 q 827 808 827 924 q 803 691 827 744 q 731 602 778 637 q 620 553 684 566 q 768 526 705 555 q 866 439 831 496 q 901 308 901 383 q 802 80 901 168 q 475 -8 703 -8 q 422 -7 450 -8 q 383 -5 395 -5 q 253 0 301 0 l 65 0 l 65 74 l 179 90 m 338 584 q 477 581 372 581 q 669 780 669 581 q 648 884 669 844 q 582 944 628 924 q 457 964 536 964 q 376 961 408 964 q 338 956 343 957 l 338 584 m 337 83 q 389 74 353 76 q 471 71 424 71 q 668 126 607 71 q 728 286 728 181 q 705 407 728 361 q 630 474 681 453 q 495 496 578 496 l 429 496 q 337 494 358 496 l 337 83 z "},"C":{"ha":905,"x_min":45,"x_max":853,"o":"m 45 517 q 111 796 45 677 q 292 979 177 916 q 548 1043 406 1043 q 674 1034 613 1043 q 811 1008 734 1024 l 848 1001 l 835 747 l 734 747 l 696 920 q 638 950 682 939 q 524 962 595 962 q 371 912 437 962 q 266 766 304 863 q 229 533 229 669 q 262 301 229 407 q 366 130 296 195 q 541 65 436 65 q 698 115 650 65 l 757 258 l 853 245 l 823 38 q 788 32 805 37 q 744 18 771 28 q 656 -7 698 2 q 552 -16 614 -16 q 277 48 391 -16 q 104 231 163 111 q 45 517 45 350 z "},"Ć":{"ha":905,"x_min":45,"x_max":853,"o":"m 45 517 q 111 796 45 677 q 292 979 177 916 q 548 1043 406 1043 q 674 1034 613 1043 q 811 1008 734 1024 l 848 1001 l 835 747 l 734 747 l 696 920 q 638 950 682 939 q 524 962 595 962 q 371 912 437 962 q 266 766 304 863 q 229 533 229 669 q 262 301 229 407 q 366 130 296 195 q 541 65 436 65 q 698 115 650 65 l 757 258 l 853 245 l 823 38 q 788 32 805 37 q 744 18 771 28 q 656 -7 698 2 q 552 -16 614 -16 q 277 48 391 -16 q 104 231 163 111 q 45 517 45 350 m 658 1364 l 659 1364 l 762 1278 q 686 1211 738 1246 q 577 1146 633 1175 q 488 1107 521 1118 l 488 1107 l 433 1154 l 658 1364 z "},"Č":{"ha":905,"x_min":45,"x_max":853,"o":"m 45 517 q 111 796 45 677 q 292 979 177 916 q 548 1043 406 1043 q 674 1034 613 1043 q 811 1008 734 1024 l 848 1001 l 835 747 l 734 747 l 696 920 q 638 950 682 939 q 524 962 595 962 q 371 912 437 962 q 266 766 304 863 q 229 533 229 669 q 262 301 229 407 q 366 130 296 195 q 541 65 436 65 q 698 115 650 65 l 757 258 l 853 245 l 823 38 q 788 32 805 37 q 744 18 771 28 q 656 -7 698 2 q 552 -16 614 -16 q 277 48 391 -16 q 104 231 163 111 q 45 517 45 350 m 359 1365 l 532 1237 l 711 1365 l 769 1325 l 595 1137 l 471 1137 l 298 1324 l 359 1365 z "},"Ç":{"ha":905,"x_min":45,"x_max":853,"o":"m 823 38 q 788 32 805 37 q 744 18 771 28 q 656 -7 698 2 q 552 -16 614 -16 l 545 -16 q 595 -96 573 -50 q 617 -190 617 -142 q 572 -302 617 -269 q 438 -335 528 -335 l 437 -335 q 386 -330 414 -335 q 340 -317 357 -325 l 340 -213 q 371 -220 353 -218 q 399 -222 389 -222 l 399 -222 q 455 -216 435 -222 q 485 -189 475 -210 q 496 -127 496 -168 q 485 -66 496 -98 q 460 -10 474 -35 q 234 74 327 7 q 93 254 141 142 q 45 517 45 366 q 111 796 45 677 q 292 979 177 916 q 548 1043 406 1043 q 674 1034 613 1043 q 811 1008 734 1024 l 848 1001 l 835 747 l 734 747 l 696 920 q 638 950 682 939 q 524 962 595 962 q 371 912 437 962 q 266 766 304 863 q 229 533 229 669 q 262 301 229 407 q 366 130 296 195 q 541 65 436 65 q 698 115 650 65 l 757 258 l 853 245 l 823 38 z "},"Ĉ":{"ha":905,"x_min":45,"x_max":853,"o":"m 45 517 q 111 796 45 677 q 292 979 177 916 q 548 1043 406 1043 q 674 1034 613 1043 q 811 1008 734 1024 l 848 1001 l 835 747 l 734 747 l 696 920 q 638 950 682 939 q 524 962 595 962 q 371 912 437 962 q 266 766 304 863 q 229 533 229 669 q 262 301 229 407 q 366 130 296 195 q 541 65 436 65 q 698 115 650 65 l 757 258 l 853 245 l 823 38 q 788 32 805 37 q 744 18 771 28 q 656 -7 698 2 q 552 -16 614 -16 q 277 48 391 -16 q 104 231 163 111 q 45 517 45 350 m 469 1365 l 593 1365 l 779 1163 l 716 1122 l 531 1259 l 342 1122 l 285 1162 l 469 1365 z "},"Ċ":{"ha":905,"x_min":45,"x_max":853,"o":"m 435 1240 q 461 1316 435 1285 q 535 1347 488 1347 l 536 1347 q 604 1319 578 1347 q 629 1254 629 1292 q 602 1178 629 1207 q 524 1148 575 1148 l 523 1148 q 459 1174 484 1148 q 435 1240 435 1200 m 45 517 q 111 796 45 677 q 292 979 177 916 q 548 1043 406 1043 q 674 1034 613 1043 q 811 1008 734 1024 l 848 1001 l 835 747 l 734 747 l 696 920 q 638 950 682 939 q 524 962 595 962 q 371 912 437 962 q 266 766 304 863 q 229 533 229 669 q 262 301 229 407 q 366 130 296 195 q 541 65 436 65 q 698 115 650 65 l 757 258 l 853 245 l 823 38 q 788 32 805 37 q 744 18 771 28 q 656 -7 698 2 q 552 -16 614 -16 q 277 48 391 -16 q 104 231 163 111 q 45 517 45 350 z "},"D":{"ha":1059,"x_min":64,"x_max":1010,"o":"m 179 90 l 179 939 l 72 957 l 72 1032 l 253 1032 q 325 1034 287 1032 q 374 1037 362 1036 q 497 1042 454 1042 q 883 913 757 1042 q 1010 549 1010 783 q 945 257 1010 384 q 765 60 881 130 q 497 -11 648 -11 q 381 -5 463 -11 q 260 0 297 0 l 64 0 l 64 74 l 179 90 m 338 83 q 397 73 366 76 q 467 71 428 71 l 498 71 q 674 124 598 73 q 794 275 751 175 q 837 519 837 375 q 743 850 837 739 q 461 962 650 962 q 359 956 420 962 l 338 954 l 338 83 z "},"Ǳ":{"ha":1971,"x_min":64,"x_max":1910,"o":"m 179 90 l 179 939 l 72 957 l 72 1032 l 253 1032 q 325 1034 287 1032 q 374 1037 362 1036 q 497 1042 454 1042 q 883 913 757 1042 q 1010 549 1010 783 q 945 257 1010 384 q 765 60 881 130 q 497 -11 648 -11 q 381 -5 463 -11 q 260 0 297 0 l 64 0 l 64 74 l 179 90 m 338 83 q 397 73 366 76 q 467 71 428 71 l 498 71 q 674 124 598 73 q 794 275 751 175 q 837 519 837 375 q 743 850 837 739 q 461 962 650 962 q 359 956 420 962 l 338 954 l 338 83 m 1640 867 l 1716 959 l 1328 944 l 1252 764 l 1167 776 l 1197 1036 l 1870 1036 l 1905 971 l 1376 173 l 1289 79 l 1746 106 l 1822 316 l 1910 298 l 1878 0 l 1143 0 l 1103 66 l 1640 867 z "},"Ǆ":{"ha":1974,"x_min":64,"x_max":1913,"o":"m 1368 1365 l 1541 1237 l 1720 1365 l 1777 1325 l 1603 1137 l 1479 1137 l 1306 1324 l 1368 1365 m 1643 867 l 1719 959 l 1331 944 l 1255 764 l 1170 776 l 1200 1036 l 1873 1036 l 1908 971 l 1379 173 l 1292 79 l 1748 106 l 1825 316 l 1913 298 l 1881 0 l 1145 0 l 1105 66 l 1643 867 m 179 90 l 179 939 l 72 957 l 72 1032 l 253 1032 q 325 1034 287 1032 q 374 1037 362 1036 q 497 1042 454 1042 q 883 913 757 1042 q 1010 549 1010 783 q 945 257 1010 384 q 765 60 881 130 q 497 -11 648 -11 q 381 -5 463 -11 q 260 0 297 0 l 64 0 l 64 74 l 179 90 m 338 83 q 397 73 366 76 q 467 71 428 71 l 498 71 q 674 124 598 73 q 794 275 751 175 q 837 519 837 375 q 743 850 837 739 q 461 962 650 962 q 359 956 420 962 l 338 954 l 338 83 z "},"Ð":{"ha":1059,"x_min":64,"x_max":1010,"o":"m 179 577 l 179 939 l 72 957 l 72 1032 l 253 1032 q 325 1034 287 1032 q 374 1037 362 1036 q 497 1042 454 1042 q 883 913 757 1042 q 1010 549 1010 783 q 945 257 1010 384 q 765 60 881 130 q 497 -11 648 -11 q 381 -5 463 -11 q 260 0 297 0 l 64 0 l 64 74 l 179 90 l 179 498 l 76 498 l 76 577 l 179 577 m 569 577 l 569 498 l 338 498 l 338 83 q 397 73 366 76 q 467 71 428 71 l 498 71 q 674 124 598 73 q 794 275 751 175 q 837 519 837 375 q 743 850 837 739 q 461 962 650 962 q 359 956 420 962 l 338 954 l 338 577 l 569 577 z "},"Ď":{"ha":1059,"x_min":64,"x_max":1010,"o":"m 372 1365 l 545 1237 l 724 1365 l 782 1325 l 608 1137 l 484 1137 l 311 1324 l 372 1365 m 179 90 l 179 939 l 72 957 l 72 1032 l 253 1032 q 325 1034 287 1032 q 374 1037 362 1036 q 497 1042 454 1042 q 883 913 757 1042 q 1010 549 1010 783 q 945 257 1010 384 q 765 60 881 130 q 497 -11 648 -11 q 381 -5 463 -11 q 260 0 297 0 l 64 0 l 64 74 l 179 90 m 338 83 q 397 73 366 76 q 467 71 428 71 l 498 71 q 674 124 598 73 q 794 275 751 175 q 837 519 837 375 q 743 850 837 739 q 461 962 650 962 q 359 956 420 962 l 338 954 l 338 83 z "},"Đ":{"ha":1059,"x_min":64,"x_max":1010,"o":"m 179 573 l 179 939 l 72 957 l 72 1032 l 253 1032 q 325 1034 287 1032 q 374 1037 362 1036 q 497 1042 454 1042 q 883 913 757 1042 q 1010 549 1010 783 q 945 257 1010 384 q 765 60 881 130 q 497 -11 648 -11 q 381 -5 463 -11 q 260 0 297 0 l 64 0 l 64 74 l 179 90 l 179 486 l 73 486 l 73 573 l 179 573 m 567 573 l 567 486 l 338 486 l 338 83 q 397 73 366 76 q 467 71 428 71 l 498 71 q 674 124 598 73 q 794 275 751 175 q 837 519 837 375 q 743 850 837 739 q 461 962 650 962 q 359 956 420 962 l 338 954 l 338 573 l 567 573 z "},"Ḋ":{"ha":1059,"x_min":64,"x_max":1010,"o":"m 448 1240 q 474 1316 448 1285 q 548 1347 500 1347 l 549 1347 q 616 1319 591 1347 q 642 1254 642 1292 q 615 1178 642 1207 q 536 1148 588 1148 l 536 1148 q 472 1174 496 1148 q 448 1240 448 1200 m 179 90 l 179 939 l 72 957 l 72 1032 l 253 1032 q 325 1034 287 1032 q 374 1037 362 1036 q 497 1042 454 1042 q 883 913 757 1042 q 1010 549 1010 783 q 945 257 1010 384 q 765 60 881 130 q 497 -11 648 -11 q 381 -5 463 -11 q 260 0 297 0 l 64 0 l 64 74 l 179 90 m 338 83 q 397 73 366 76 q 467 71 428 71 l 498 71 q 674 124 598 73 q 794 275 751 175 q 837 519 837 375 q 743 850 837 739 q 461 962 650 962 q 359 956 420 962 l 338 954 l 338 83 z "},"ǲ":{"ha":1830,"x_min":64,"x_max":1775,"o":"m 179 90 l 179 939 l 72 957 l 72 1032 l 253 1032 q 325 1034 287 1032 q 374 1037 362 1036 q 497 1042 454 1042 q 883 913 757 1042 q 1010 549 1010 783 q 945 257 1010 384 q 765 60 881 130 q 497 -11 648 -11 q 381 -5 463 -11 q 260 0 297 0 l 64 0 l 64 74 l 179 90 m 338 83 q 397 73 366 76 q 467 71 428 71 l 498 71 q 674 124 598 73 q 794 275 751 175 q 837 519 837 375 q 743 850 837 739 q 461 962 650 962 q 359 956 420 962 l 338 954 l 338 83 m 1592 688 l 1277 678 l 1251 549 l 1158 549 l 1158 771 l 1743 771 l 1771 709 l 1375 169 l 1286 82 l 1636 97 l 1687 244 l 1775 234 l 1755 0 l 1131 0 l 1101 64 l 1503 599 l 1592 688 z "},"ǅ":{"ha":1835,"x_min":64,"x_max":1778,"o":"m 1277 1220 l 1470 1029 l 1666 1221 l 1722 1180 l 1530 910 l 1408 910 l 1217 1179 l 1277 1220 m 1595 688 l 1280 678 l 1253 549 l 1160 549 l 1160 771 l 1746 771 l 1774 709 l 1377 169 l 1289 82 l 1638 97 l 1690 244 l 1778 234 l 1758 0 l 1134 0 l 1103 64 l 1506 599 l 1595 688 m 179 90 l 179 939 l 72 957 l 72 1032 l 253 1032 q 325 1034 287 1032 q 374 1037 362 1036 q 497 1042 454 1042 q 883 913 757 1042 q 1010 549 1010 783 q 945 257 1010 384 q 765 60 881 130 q 497 -11 648 -11 q 381 -5 463 -11 q 260 0 297 0 l 64 0 l 64 74 l 179 90 m 338 83 q 397 73 366 76 q 467 71 428 71 l 498 71 q 674 124 598 73 q 794 275 751 175 q 837 519 837 375 q 743 850 837 739 q 461 962 650 962 q 359 956 420 962 l 338 954 l 338 83 z "},"E":{"ha":908,"x_min":65,"x_max":875,"o":"m 179 90 l 179 940 l 67 957 l 67 1032 l 774 1032 l 793 817 l 705 817 l 663 946 l 338 955 l 338 572 l 559 576 l 579 688 l 667 688 l 667 367 l 579 367 l 559 486 l 338 490 l 338 84 l 711 99 l 788 269 l 875 243 l 835 0 l 65 0 l 65 74 l 179 90 z "},"É":{"ha":908,"x_min":65,"x_max":875,"o":"m 597 1364 l 597 1364 l 701 1278 q 625 1211 677 1246 q 516 1146 572 1175 q 427 1107 460 1118 l 427 1107 l 372 1154 l 597 1364 m 179 90 l 179 940 l 67 957 l 67 1032 l 774 1032 l 793 817 l 705 817 l 663 946 l 338 955 l 338 572 l 559 576 l 579 688 l 667 688 l 667 367 l 579 367 l 559 486 l 338 490 l 338 84 l 711 99 l 788 269 l 875 243 l 835 0 l 65 0 l 65 74 l 179 90 z "},"Ĕ":{"ha":908,"x_min":65,"x_max":875,"o":"m 240 1326 q 241 1355 240 1345 l 323 1355 q 326 1337 323 1345 q 366 1262 332 1296 q 475 1229 401 1229 q 583 1262 549 1229 q 621 1337 616 1296 q 622 1355 622 1345 l 703 1355 q 704 1327 704 1345 q 676 1219 704 1267 q 597 1142 649 1171 q 474 1114 545 1114 q 347 1142 400 1114 q 267 1218 294 1170 q 240 1326 240 1267 m 179 90 l 179 940 l 67 957 l 67 1032 l 774 1032 l 793 817 l 705 817 l 663 946 l 338 955 l 338 572 l 559 576 l 579 688 l 667 688 l 667 367 l 579 367 l 559 486 l 338 490 l 338 84 l 711 99 l 788 269 l 875 243 l 835 0 l 65 0 l 65 74 l 179 90 z "},"Ě":{"ha":908,"x_min":65,"x_max":875,"o":"m 301 1365 l 474 1237 l 653 1365 l 711 1325 l 536 1137 l 412 1137 l 239 1324 l 301 1365 m 179 90 l 179 940 l 67 957 l 67 1032 l 774 1032 l 793 817 l 705 817 l 663 946 l 338 955 l 338 572 l 559 576 l 579 688 l 667 688 l 667 367 l 579 367 l 559 486 l 338 490 l 338 84 l 711 99 l 788 269 l 875 243 l 835 0 l 65 0 l 65 74 l 179 90 z "},"Ê":{"ha":908,"x_min":65,"x_max":875,"o":"m 179 90 l 179 940 l 67 957 l 67 1032 l 774 1032 l 793 817 l 705 817 l 663 946 l 338 955 l 338 572 l 559 576 l 579 688 l 667 688 l 667 367 l 579 367 l 559 486 l 338 490 l 338 84 l 711 99 l 788 269 l 875 243 l 835 0 l 65 0 l 65 74 l 179 90 m 410 1365 l 534 1365 l 720 1163 l 658 1122 l 473 1259 l 284 1122 l 227 1162 l 410 1365 z "},"Ë":{"ha":908,"x_min":65,"x_max":875,"o":"m 208 1236 q 234 1314 208 1282 q 308 1345 260 1345 l 309 1345 q 357 1332 336 1345 q 388 1297 377 1318 q 398 1252 398 1276 q 371 1174 398 1204 q 294 1144 345 1144 l 293 1144 q 232 1171 256 1144 q 208 1236 208 1198 m 547 1236 q 573 1314 547 1282 q 646 1345 600 1345 l 647 1345 q 696 1332 675 1345 q 727 1297 716 1318 q 737 1252 737 1276 q 711 1174 737 1204 q 633 1144 684 1144 l 633 1144 q 571 1171 595 1144 q 547 1236 547 1198 m 179 90 l 179 940 l 67 957 l 67 1032 l 774 1032 l 793 817 l 705 817 l 663 946 l 338 955 l 338 572 l 559 576 l 579 688 l 667 688 l 667 367 l 579 367 l 559 486 l 338 490 l 338 84 l 711 99 l 788 269 l 875 243 l 835 0 l 65 0 l 65 74 l 179 90 z "},"Ė":{"ha":908,"x_min":65,"x_max":875,"o":"m 376 1240 q 402 1316 376 1285 q 476 1347 429 1347 l 477 1347 q 545 1319 519 1347 q 570 1254 570 1292 q 543 1178 570 1207 q 465 1148 516 1148 l 464 1148 q 400 1174 425 1148 q 376 1240 376 1200 m 179 90 l 179 940 l 67 957 l 67 1032 l 774 1032 l 793 817 l 705 817 l 663 946 l 338 955 l 338 572 l 559 576 l 579 688 l 667 688 l 667 367 l 579 367 l 559 486 l 338 490 l 338 84 l 711 99 l 788 269 l 875 243 l 835 0 l 65 0 l 65 74 l 179 90 z "},"È":{"ha":908,"x_min":65,"x_max":875,"o":"m 345 1364 l 345 1364 l 570 1154 l 515 1107 l 515 1107 q 424 1147 481 1118 q 315 1212 367 1177 q 241 1278 263 1248 l 345 1364 m 179 90 l 179 940 l 67 957 l 67 1032 l 774 1032 l 793 817 l 705 817 l 663 946 l 338 955 l 338 572 l 559 576 l 579 688 l 667 688 l 667 367 l 579 367 l 559 486 l 338 490 l 338 84 l 711 99 l 788 269 l 875 243 l 835 0 l 65 0 l 65 74 l 179 90 z "},"Ē":{"ha":908,"x_min":65,"x_max":875,"o":"m 669 1291 l 669 1184 l 282 1184 l 282 1291 l 669 1291 m 179 90 l 179 940 l 67 957 l 67 1032 l 774 1032 l 793 817 l 705 817 l 663 946 l 338 955 l 338 572 l 559 576 l 579 688 l 667 688 l 667 367 l 579 367 l 559 486 l 338 490 l 338 84 l 711 99 l 788 269 l 875 243 l 835 0 l 65 0 l 65 74 l 179 90 z "},"Ę":{"ha":908,"x_min":65,"x_max":875,"o":"m 179 90 l 179 940 l 67 957 l 67 1032 l 774 1032 l 793 817 l 705 817 l 663 946 l 338 955 l 338 572 l 559 576 l 579 688 l 667 688 l 667 367 l 579 367 l 559 486 l 338 490 l 338 84 l 711 99 l 788 269 l 875 243 l 835 0 l 825 0 q 737 -36 781 -7 q 665 -101 693 -64 q 636 -165 636 -137 q 664 -227 636 -207 q 736 -248 691 -248 q 832 -225 782 -248 l 832 -300 q 759 -334 804 -321 q 671 -347 715 -347 q 545 -314 595 -347 q 495 -214 495 -281 q 521 -134 495 -176 q 591 -56 547 -92 q 690 0 636 -20 l 65 0 l 65 74 l 179 90 z "},"F":{"ha":861,"x_min":65,"x_max":820,"o":"m 179 90 l 179 940 l 65 957 l 65 1032 l 806 1032 l 820 795 l 722 795 l 677 945 l 338 955 l 338 559 l 574 562 l 602 676 l 685 676 l 685 353 l 602 353 l 574 469 l 338 475 l 338 90 l 545 74 l 545 0 l 67 0 l 67 74 l 179 90 z "},"Ḟ":{"ha":861,"x_min":65,"x_max":820,"o":"m 344 1240 q 370 1316 344 1285 q 444 1347 397 1347 l 445 1347 q 513 1319 488 1347 q 538 1254 538 1292 q 511 1178 538 1207 q 433 1148 484 1148 l 432 1148 q 368 1174 393 1148 q 344 1240 344 1200 m 179 90 l 179 940 l 65 957 l 65 1032 l 806 1032 l 820 795 l 722 795 l 677 945 l 338 955 l 338 559 l 574 562 l 602 676 l 685 676 l 685 353 l 602 353 l 574 469 l 338 475 l 338 90 l 545 74 l 545 0 l 67 0 l 67 74 l 179 90 z "},"G":{"ha":1032,"x_min":59,"x_max":1004,"o":"m 59 500 q 128 791 59 668 q 317 979 197 913 q 587 1044 437 1044 q 762 1030 681 1044 q 913 1000 843 1017 l 899 760 l 795 760 l 758 920 q 698 951 741 937 q 576 964 654 964 q 402 916 477 964 q 284 771 327 867 q 242 537 242 675 q 278 303 242 410 q 387 131 313 196 q 568 65 460 65 q 682 80 629 65 q 765 123 736 94 l 765 420 l 599 435 l 599 523 l 1004 523 l 1004 435 l 924 421 l 924 56 q 884 49 907 55 q 827 33 861 43 q 693 -3 755 10 q 554 -16 631 -16 q 290 51 401 -16 q 118 235 178 118 q 59 500 59 353 z "},"Ǵ":{"ha":1032,"x_min":59,"x_max":1004,"o":"m 59 500 q 128 791 59 668 q 317 979 197 913 q 587 1044 437 1044 q 762 1030 681 1044 q 913 1000 843 1017 l 899 760 l 795 760 l 758 920 q 698 951 741 937 q 576 964 654 964 q 402 916 477 964 q 284 771 327 867 q 242 537 242 675 q 278 303 242 410 q 387 131 313 196 q 568 65 460 65 q 682 80 629 65 q 765 123 736 94 l 765 420 l 599 435 l 599 523 l 1004 523 l 1004 435 l 924 421 l 924 56 q 884 49 907 55 q 827 33 861 43 q 693 -3 755 10 q 554 -16 631 -16 q 290 51 401 -16 q 118 235 178 118 q 59 500 59 353 m 692 1364 l 693 1364 l 797 1278 q 720 1211 772 1246 q 612 1146 668 1175 q 523 1107 555 1118 l 522 1107 l 468 1154 l 692 1364 z "},"Ğ":{"ha":1036,"x_min":63,"x_max":1008,"o":"m 337 1326 q 338 1355 337 1345 l 420 1355 q 422 1337 420 1345 q 463 1262 429 1296 q 572 1229 498 1229 q 680 1262 646 1229 q 718 1337 713 1296 q 719 1355 719 1345 l 800 1355 q 801 1327 801 1345 q 773 1219 801 1267 q 694 1142 746 1171 q 571 1114 642 1114 q 444 1142 497 1114 q 364 1218 391 1170 q 337 1326 337 1267 m 63 500 q 132 791 63 668 q 321 979 201 913 q 591 1044 441 1044 q 766 1030 685 1044 q 917 1000 847 1017 l 903 760 l 799 760 l 762 920 q 702 951 745 937 q 581 964 659 964 q 406 916 481 964 q 289 771 331 867 q 246 537 246 675 q 282 303 246 410 q 391 131 317 196 q 572 65 465 65 q 686 80 633 65 q 769 123 740 94 l 769 420 l 603 435 l 603 523 l 1008 523 l 1008 435 l 928 421 l 928 56 q 888 49 911 55 q 831 33 865 43 q 697 -3 760 10 q 558 -16 635 -16 q 294 51 406 -16 q 122 235 182 118 q 63 500 63 353 z "},"Ǧ":{"ha":1032,"x_min":59,"x_max":1004,"o":"m 59 500 q 128 791 59 668 q 317 979 197 913 q 587 1044 437 1044 q 762 1030 681 1044 q 913 1000 843 1017 l 899 760 l 795 760 l 758 920 q 698 951 741 937 q 576 964 654 964 q 402 916 477 964 q 284 771 327 867 q 242 537 242 675 q 278 303 242 410 q 387 131 313 196 q 568 65 460 65 q 682 80 629 65 q 765 123 736 94 l 765 420 l 599 435 l 599 523 l 1004 523 l 1004 435 l 924 421 l 924 56 q 884 49 907 55 q 827 33 861 43 q 693 -3 755 10 q 554 -16 631 -16 q 290 51 401 -16 q 118 235 178 118 q 59 500 59 353 m 394 1365 l 567 1237 l 746 1365 l 804 1325 l 629 1137 l 505 1137 l 332 1324 l 394 1365 z "},"Ĝ":{"ha":1032,"x_min":59,"x_max":1004,"o":"m 59 500 q 128 791 59 668 q 317 979 197 913 q 587 1044 437 1044 q 762 1030 681 1044 q 913 1000 843 1017 l 899 760 l 795 760 l 758 920 q 698 951 741 937 q 576 964 654 964 q 402 916 477 964 q 284 771 327 867 q 242 537 242 675 q 278 303 242 410 q 387 131 313 196 q 568 65 460 65 q 682 80 629 65 q 765 123 736 94 l 765 420 l 599 435 l 599 523 l 1004 523 l 1004 435 l 924 421 l 924 56 q 884 49 907 55 q 827 33 861 43 q 693 -3 755 10 q 554 -16 631 -16 q 290 51 401 -16 q 118 235 178 118 q 59 500 59 353 m 503 1365 l 627 1365 l 813 1163 l 751 1122 l 566 1259 l 377 1122 l 319 1162 l 503 1365 z "},"Ģ":{"ha":1037,"x_min":64,"x_max":1008,"o":"m 531 -380 l 478 -353 l 477 -341 q 507 -308 496 -333 q 517 -254 517 -282 q 509 -227 517 -237 q 487 -207 501 -216 q 467 -185 474 -199 q 460 -148 460 -172 q 474 -104 460 -120 q 507 -81 488 -87 q 543 -75 526 -75 l 549 -75 q 619 -103 593 -75 q 644 -184 644 -132 q 622 -278 644 -234 q 573 -350 600 -321 q 533 -380 545 -378 l 531 -380 m 64 500 q 133 791 64 668 q 322 979 202 913 q 592 1044 442 1044 q 767 1030 686 1044 q 918 1000 848 1017 l 904 760 l 800 760 l 763 920 q 703 951 746 937 q 581 964 659 964 q 407 916 482 964 q 289 771 332 867 q 247 537 247 675 q 282 303 247 410 q 392 131 318 196 q 572 65 465 65 q 687 80 633 65 q 770 123 741 94 l 770 420 l 604 435 l 604 523 l 1008 523 l 1008 435 l 929 421 l 929 56 q 889 49 911 55 q 832 33 866 43 q 698 -3 760 10 q 559 -16 635 -16 q 294 51 406 -16 q 123 235 182 118 q 64 500 64 353 z "},"Ġ":{"ha":1036,"x_min":63,"x_max":1008,"o":"m 473 1240 q 500 1316 473 1285 q 574 1347 526 1347 l 574 1347 q 642 1319 617 1347 q 667 1254 667 1292 q 641 1178 667 1207 q 562 1148 614 1148 l 562 1148 q 498 1174 522 1148 q 473 1240 473 1200 m 63 500 q 132 791 63 668 q 321 979 201 913 q 591 1044 441 1044 q 766 1030 685 1044 q 917 1000 847 1017 l 903 760 l 799 760 l 762 920 q 702 951 745 937 q 581 964 659 964 q 406 916 481 964 q 289 771 331 867 q 246 537 246 675 q 282 303 246 410 q 391 131 317 196 q 572 65 465 65 q 686 80 633 65 q 769 123 740 94 l 769 420 l 603 435 l 603 523 l 1008 523 l 1008 435 l 928 421 l 928 56 q 888 49 911 55 q 831 33 865 43 q 697 -3 760 10 q 558 -16 635 -16 q 294 51 406 -16 q 122 235 182 118 q 63 500 63 353 z "},"Ḡ":{"ha":1032,"x_min":59,"x_max":1004,"o":"m 59 500 q 128 791 59 668 q 317 979 197 913 q 587 1044 437 1044 q 762 1030 681 1044 q 913 1000 843 1017 l 899 760 l 795 760 l 758 920 q 698 951 741 937 q 576 964 654 964 q 402 916 477 964 q 284 771 327 867 q 242 537 242 675 q 278 303 242 410 q 387 131 313 196 q 568 65 460 65 q 682 80 629 65 q 765 123 736 94 l 765 420 l 599 435 l 599 523 l 1004 523 l 1004 435 l 924 421 l 924 56 q 884 49 907 55 q 827 33 861 43 q 693 -3 755 10 q 554 -16 631 -16 q 290 51 401 -16 q 118 235 178 118 q 59 500 59 353 m 762 1291 l 762 1184 l 376 1184 l 376 1291 l 762 1291 z "},"H":{"ha":1153,"x_min":68,"x_max":1082,"o":"m 180 90 l 180 939 l 72 957 l 72 1032 l 456 1032 l 456 957 l 339 940 l 339 574 l 814 574 l 814 940 l 703 957 l 703 1032 l 1082 1032 l 1082 957 l 973 940 l 973 90 l 1082 74 l 1082 0 l 703 0 l 703 74 l 814 90 l 814 484 l 339 484 l 339 90 l 456 74 l 456 0 l 68 0 l 68 74 l 180 90 z "},"Ħ":{"ha":1152,"x_min":35,"x_max":1120,"o":"m 180 770 l 180 939 l 70 957 l 70 1032 l 454 1032 l 454 957 l 338 940 l 338 770 l 814 770 l 814 940 l 704 957 l 704 1032 l 1083 1032 l 1083 957 l 973 940 l 973 770 l 1120 770 l 1120 694 l 973 694 l 973 91 l 1082 73 l 1082 0 l 705 0 l 705 73 l 814 90 l 814 415 l 338 415 l 338 90 l 455 74 l 455 0 l 66 0 l 66 74 l 180 90 l 180 694 l 35 694 l 35 770 l 180 770 m 814 694 l 338 694 l 338 504 l 814 504 l 814 694 z "},"Ĥ":{"ha":1153,"x_min":68,"x_max":1082,"o":"m 180 90 l 180 939 l 72 957 l 72 1032 l 456 1032 l 456 957 l 339 940 l 339 574 l 814 574 l 814 940 l 703 957 l 703 1032 l 1082 1032 l 1082 957 l 973 940 l 973 90 l 1082 74 l 1082 0 l 703 0 l 703 74 l 814 90 l 814 484 l 339 484 l 339 90 l 456 74 l 456 0 l 68 0 l 68 74 l 180 90 m 513 1365 l 637 1365 l 823 1163 l 761 1122 l 576 1259 l 387 1122 l 330 1162 l 513 1365 z "},"I":{"ha":561,"x_min":76,"x_max":486,"o":"m 200 90 l 200 939 l 76 957 l 76 1032 l 484 1032 l 484 957 l 360 940 l 360 90 l 486 72 l 486 0 l 76 0 l 76 74 l 200 90 z "},"Ĳ":{"ha":1090,"x_min":76,"x_max":1038,"o":"m 200 90 l 200 939 l 76 957 l 76 1032 l 484 1032 l 484 957 l 360 940 l 360 90 l 486 72 l 486 0 l 76 0 l 76 74 l 200 90 m 553 -187 q 621 -153 586 -178 q 685 -89 656 -127 q 728 -3 713 -50 q 751 121 745 52 q 757 329 757 189 l 757 939 l 629 957 l 629 1032 l 1038 1032 l 1038 957 l 915 939 l 915 383 l 915 305 q 912 141 915 204 q 899 31 909 77 q 834 -106 882 -47 q 723 -200 787 -164 q 591 -250 660 -235 l 553 -187 z "},"Í":{"ha":561,"x_min":76,"x_max":513,"o":"m 200 90 l 200 939 l 76 957 l 76 1032 l 484 1032 l 484 957 l 360 940 l 360 90 l 486 72 l 486 0 l 76 0 l 76 74 l 200 90 m 408 1364 l 409 1364 l 513 1278 q 436 1211 488 1246 q 328 1146 384 1175 q 239 1107 271 1118 l 238 1107 l 184 1154 l 408 1364 z "},"Ĭ":{"ha":561,"x_min":50,"x_max":513,"o":"m 200 90 l 200 939 l 76 957 l 76 1032 l 484 1032 l 484 957 l 360 940 l 360 90 l 486 72 l 486 0 l 76 0 l 76 74 l 200 90 m 50 1326 q 51 1355 50 1345 l 133 1355 q 135 1337 133 1345 q 176 1262 141 1296 q 285 1229 210 1229 q 392 1262 359 1229 q 430 1337 425 1296 q 431 1355 431 1345 l 512 1355 q 513 1327 513 1345 q 486 1219 513 1267 q 407 1142 458 1171 q 283 1114 355 1114 q 157 1142 210 1114 q 77 1218 104 1170 q 50 1326 50 1267 z "},"Ǐ":{"ha":561,"x_min":48,"x_max":519,"o":"m 200 90 l 200 939 l 76 957 l 76 1032 l 484 1032 l 484 957 l 360 940 l 360 90 l 486 72 l 486 0 l 76 0 l 76 74 l 200 90 m 110 1365 l 283 1237 l 462 1365 l 519 1325 l 345 1137 l 221 1137 l 48 1324 l 110 1365 z "},"Î":{"ha":561,"x_min":35,"x_max":529,"o":"m 200 90 l 200 939 l 76 957 l 76 1032 l 484 1032 l 484 957 l 360 940 l 360 90 l 486 72 l 486 0 l 76 0 l 76 74 l 200 90 m 219 1365 l 343 1365 l 529 1163 l 467 1122 l 281 1259 l 93 1122 l 35 1162 l 219 1365 z "},"Ï":{"ha":561,"x_min":18,"x_max":547,"o":"m 200 90 l 200 939 l 76 957 l 76 1032 l 484 1032 l 484 957 l 360 940 l 360 90 l 486 72 l 486 0 l 76 0 l 76 74 l 200 90 m 18 1236 q 44 1314 18 1282 q 117 1345 70 1345 l 118 1345 q 166 1332 146 1345 q 197 1297 186 1318 q 208 1252 208 1276 q 181 1174 208 1204 q 103 1144 154 1144 l 102 1144 q 41 1171 65 1144 q 18 1236 18 1198 m 357 1236 q 383 1314 357 1282 q 456 1345 409 1345 l 456 1345 q 505 1332 485 1345 q 536 1297 526 1318 q 547 1252 547 1276 q 520 1174 547 1204 q 443 1144 494 1144 l 442 1144 q 380 1171 404 1144 q 357 1236 357 1198 z "},"İ":{"ha":561,"x_min":76,"x_max":486,"o":"m 200 90 l 200 939 l 76 957 l 76 1032 l 484 1032 l 484 957 l 360 940 l 360 90 l 486 72 l 486 0 l 76 0 l 76 74 l 200 90 m 186 1240 q 212 1316 186 1285 q 286 1347 239 1347 l 287 1347 q 355 1319 330 1347 q 380 1254 380 1292 q 353 1178 380 1207 q 275 1148 326 1148 l 274 1148 q 210 1174 235 1148 q 186 1240 186 1200 z "},"Ì":{"ha":561,"x_min":66,"x_max":486,"o":"m 200 90 l 200 939 l 76 957 l 76 1032 l 484 1032 l 484 957 l 360 940 l 360 90 l 486 72 l 486 0 l 76 0 l 76 74 l 200 90 m 170 1364 l 170 1364 l 395 1154 l 340 1107 l 340 1107 q 249 1147 307 1118 q 140 1212 192 1177 q 66 1278 88 1248 l 170 1364 z "},"Ī":{"ha":561,"x_min":76,"x_max":486,"o":"m 200 90 l 200 939 l 76 957 l 76 1032 l 484 1032 l 484 957 l 360 940 l 360 90 l 486 72 l 486 0 l 76 0 l 76 74 l 200 90 m 478 1291 l 478 1184 l 92 1184 l 92 1291 l 478 1291 z "},"Į":{"ha":561,"x_min":76,"x_max":486,"o":"m 200 90 l 200 939 l 76 957 l 76 1032 l 484 1032 l 484 957 l 360 940 l 360 90 l 486 72 l 486 0 l 357 0 q 289 -47 320 -18 q 239 -108 257 -77 q 220 -165 220 -140 q 249 -227 220 -207 q 323 -248 277 -248 q 419 -225 368 -248 l 419 -300 q 346 -334 390 -321 q 258 -347 301 -347 q 131 -314 182 -347 q 80 -214 80 -281 q 103 -135 80 -176 q 165 -57 127 -93 q 248 0 204 -21 l 76 0 l 76 74 l 200 90 z "},"Ĩ":{"ha":561,"x_min":-8,"x_max":574,"o":"m 200 90 l 200 939 l 76 957 l 76 1032 l 484 1032 l 484 957 l 360 940 l 360 90 l 486 72 l 486 0 l 76 0 l 76 74 l 200 90 m 163 1255 q 104 1235 127 1255 q 71 1196 82 1214 q 57 1175 60 1179 l -8 1217 q 29 1283 2 1250 q 97 1339 56 1317 q 186 1362 138 1362 q 238 1353 215 1362 q 279 1331 262 1343 q 319 1297 296 1318 q 366 1261 347 1272 q 408 1249 384 1249 q 464 1269 444 1249 q 494 1307 484 1289 q 507 1331 505 1326 l 574 1287 q 505 1183 551 1225 q 393 1142 460 1142 q 324 1158 353 1142 q 260 1205 295 1175 q 209 1243 230 1231 q 163 1255 189 1255 z "},"J":{"ha":529,"x_min":-8,"x_max":477,"o":"m -8 -187 q 60 -153 25 -178 q 124 -89 95 -127 q 168 -3 153 -50 q 190 121 184 52 q 196 329 196 189 l 196 939 l 68 957 l 68 1032 l 477 1032 l 477 957 l 354 939 l 354 383 l 354 305 q 351 141 354 204 q 338 31 348 77 q 273 -106 321 -47 q 162 -200 226 -164 q 31 -250 99 -235 l -8 -187 z "},"Ĵ":{"ha":529,"x_min":-8,"x_max":518,"o":"m -8 -187 q 60 -153 25 -178 q 124 -89 95 -127 q 168 -3 153 -50 q 190 121 184 52 q 196 329 196 189 l 196 939 l 68 957 l 68 1032 l 477 1032 l 477 957 l 354 939 l 354 383 l 354 305 q 351 141 354 204 q 338 31 348 77 q 273 -106 321 -47 q 162 -200 226 -164 q 31 -250 99 -235 l -8 -187 m 208 1365 l 332 1365 l 518 1163 l 456 1122 l 271 1259 l 82 1122 l 24 1162 l 208 1365 z "},"K":{"ha":1010,"x_min":66,"x_max":1010,"o":"m 802 0 q 741 58 778 0 q 640 235 703 115 q 547 400 585 336 q 475 503 509 464 l 340 347 l 340 90 l 467 73 l 467 0 l 66 0 l 66 74 l 180 90 l 180 940 l 68 957 l 68 1032 l 450 1032 l 450 957 l 340 939 l 340 465 l 732 940 l 620 957 l 619 1032 l 965 1032 l 965 958 l 859 940 l 568 610 q 670 491 614 570 q 800 292 725 412 q 898 142 864 190 q 949 90 932 94 l 1010 73 l 1010 0 l 802 0 z "},"Ķ":{"ha":1010,"x_min":66,"x_max":1010,"o":"m 531 -380 l 478 -353 l 477 -341 q 507 -308 496 -333 q 517 -254 517 -282 q 509 -227 517 -237 q 487 -207 501 -216 q 467 -185 474 -199 q 460 -148 460 -172 q 474 -104 460 -120 q 507 -81 488 -87 q 543 -75 526 -75 l 549 -75 q 619 -103 593 -75 q 644 -184 644 -132 q 622 -278 644 -234 q 573 -350 600 -321 q 533 -380 545 -378 l 531 -380 m 802 0 q 741 58 778 0 q 640 235 703 115 q 547 400 585 336 q 475 503 509 464 l 340 347 l 340 90 l 467 73 l 467 0 l 66 0 l 66 74 l 180 90 l 180 940 l 68 957 l 68 1032 l 450 1032 l 450 957 l 340 939 l 340 465 l 732 940 l 620 957 l 619 1032 l 965 1032 l 965 958 l 859 940 l 568 610 q 670 491 614 570 q 800 292 725 412 q 898 142 864 190 q 949 90 932 94 l 1010 73 l 1010 0 l 802 0 z "},"L":{"ha":882,"x_min":66,"x_max":857,"o":"m 180 90 l 180 940 l 68 957 l 68 1032 l 472 1032 l 472 957 l 341 939 l 341 90 l 684 103 l 766 330 l 857 314 l 811 0 l 66 0 l 66 74 l 180 90 z "},"Ǉ":{"ha":1411,"x_min":66,"x_max":1359,"o":"m 180 90 l 180 940 l 68 957 l 68 1032 l 472 1032 l 472 957 l 341 939 l 341 90 l 684 103 l 766 330 l 857 314 l 811 0 l 66 0 l 66 74 l 180 90 m 874 -187 q 942 -153 907 -178 q 1006 -89 977 -127 q 1050 -3 1035 -50 q 1072 121 1066 52 q 1078 329 1078 189 l 1078 939 l 951 957 l 951 1032 l 1359 1032 l 1359 957 l 1236 939 l 1236 383 l 1236 305 q 1233 141 1236 204 q 1220 31 1230 77 q 1156 -106 1203 -47 q 1045 -200 1108 -164 q 913 -250 981 -235 l 874 -187 z "},"Ĺ":{"ha":882,"x_min":66,"x_max":857,"o":"m 465 1364 l 465 1364 l 569 1278 q 492 1211 545 1246 q 384 1146 440 1175 q 295 1107 328 1118 l 294 1107 l 240 1154 l 465 1364 m 180 90 l 180 940 l 68 957 l 68 1032 l 472 1032 l 472 957 l 341 939 l 341 90 l 684 103 l 766 330 l 857 314 l 811 0 l 66 0 l 66 74 l 180 90 z "},"Ľ":{"ha":882,"x_min":66,"x_max":857,"o":"m 180 90 l 180 940 l 68 957 l 68 1032 l 472 1032 l 472 957 l 341 939 l 341 90 l 684 103 l 766 330 l 857 314 l 811 0 l 66 0 l 66 74 l 180 90 m 626 736 q 648 913 648 814 q 637 1022 648 972 q 612 1088 625 1072 l 622 1116 l 736 1143 q 767 1077 755 1124 q 779 977 779 1030 q 766 862 779 920 q 734 760 754 804 q 694 696 715 716 l 629 720 l 626 736 z "},"Ļ":{"ha":882,"x_min":66,"x_max":857,"o":"m 463 -380 l 410 -353 l 410 -341 q 439 -308 428 -333 q 450 -254 450 -282 q 441 -227 450 -237 q 419 -207 433 -216 q 399 -185 406 -199 q 392 -148 392 -172 q 406 -104 392 -120 q 439 -81 420 -87 q 475 -75 458 -75 l 481 -75 q 551 -103 526 -75 q 576 -184 576 -132 q 554 -278 576 -234 q 505 -350 532 -321 q 465 -380 477 -378 l 463 -380 m 180 90 l 180 940 l 68 957 l 68 1032 l 472 1032 l 472 957 l 341 939 l 341 90 l 684 103 l 766 330 l 857 314 l 811 0 l 66 0 l 66 74 l 180 90 z "},"Ŀ":{"ha":890,"x_min":66,"x_max":857,"o":"m 180 90 l 180 940 l 68 957 l 68 1032 l 472 1032 l 472 957 l 341 939 l 341 90 l 684 103 l 766 330 l 857 314 l 811 0 l 66 0 l 66 74 l 180 90 m 561 577 q 577 632 561 607 q 618 671 593 656 q 673 685 644 685 q 744 659 720 685 q 769 593 769 632 q 754 536 769 561 q 712 498 739 511 q 656 485 686 485 q 609 496 631 485 q 574 529 587 508 q 561 577 561 550 z "},"ǈ":{"ha":1327,"x_min":66,"x_max":1209,"o":"m 180 90 l 180 940 l 68 957 l 68 1032 l 472 1032 l 472 957 l 341 939 l 341 90 l 684 103 l 766 330 l 857 314 l 811 0 l 66 0 l 66 74 l 180 90 m 943 677 l 945 762 l 1160 789 l 1163 789 l 1197 763 l 1197 12 q 1164 -174 1197 -98 q 1078 -290 1132 -250 q 959 -338 1024 -330 q 943 -338 956 -338 q 905 -337 925 -338 q 879 -332 884 -335 l 871 -259 q 904 -256 882 -260 q 945 -245 926 -252 q 1022 -151 1000 -224 q 1044 41 1044 -78 l 1042 649 l 943 677 m 1014 1010 q 1041 1088 1014 1056 q 1116 1120 1067 1120 l 1116 1120 q 1166 1106 1145 1120 q 1198 1072 1187 1093 q 1209 1025 1209 1050 q 1182 947 1209 978 q 1103 917 1155 917 l 1103 917 q 1039 943 1063 917 q 1014 1010 1014 970 z "},"Ł":{"ha":882,"x_min":32,"x_max":857,"o":"m 180 503 l 180 940 l 68 957 l 68 1032 l 472 1032 l 472 957 l 341 939 l 341 569 l 601 683 l 601 594 l 341 483 l 341 90 l 684 103 l 766 330 l 857 314 l 811 0 l 66 0 l 66 74 l 180 90 l 180 418 l 32 355 l 32 439 l 180 503 z "},"M":{"ha":1388,"x_min":1,"x_max":1388,"o":"m 121 90 l 223 940 l 78 957 l 78 1032 l 448 1032 l 661 410 l 696 254 l 727 410 l 915 1032 l 1285 1032 l 1285 957 l 1135 939 l 1266 90 l 1388 74 l 1388 0 l 985 0 l 985 74 l 1105 90 l 1019 705 l 989 976 l 943 790 l 722 46 l 634 46 l 389 714 l 314 975 l 292 706 l 237 90 l 371 74 l 371 0 l 1 0 l 1 74 l 121 90 z "},"Ṁ":{"ha":1394,"x_min":1,"x_max":1388,"o":"m 592 1240 q 618 1316 592 1285 q 692 1347 645 1347 l 693 1347 q 761 1319 736 1347 q 786 1254 786 1292 q 759 1178 786 1207 q 681 1148 732 1148 l 680 1148 q 616 1174 641 1148 q 592 1240 592 1200 m 121 90 l 223 940 l 78 957 l 78 1032 l 448 1032 l 661 410 l 696 254 l 727 410 l 915 1032 l 1285 1032 l 1285 957 l 1135 939 l 1266 90 l 1388 74 l 1388 0 l 985 0 l 985 74 l 1105 90 l 1019 705 l 989 976 l 943 790 l 722 46 l 634 46 l 389 714 l 314 975 l 292 706 l 237 90 l 371 74 l 371 0 l 1 0 l 1 74 l 121 90 z "},"N":{"ha":1111,"x_min":66,"x_max":1078,"o":"m 178 90 l 178 939 l 66 957 l 66 1032 l 334 1032 l 791 366 l 863 231 l 863 940 l 741 957 l 741 1032 l 1078 1032 l 1078 957 l 965 939 l 965 0 l 854 0 l 387 680 l 281 865 l 281 90 l 410 74 l 410 0 l 66 0 l 66 74 l 178 90 z "},"Ǌ":{"ha":1640,"x_min":66,"x_max":1588,"o":"m 178 90 l 178 939 l 66 957 l 66 1032 l 334 1032 l 791 366 l 863 231 l 863 940 l 741 957 l 741 1032 l 1078 1032 l 1078 957 l 965 939 l 965 0 l 854 0 l 387 680 l 281 865 l 281 90 l 410 74 l 410 0 l 66 0 l 66 74 l 178 90 m 1103 -187 q 1171 -153 1136 -178 q 1235 -89 1206 -127 q 1278 -3 1263 -50 q 1301 121 1295 52 q 1307 329 1307 189 l 1307 939 l 1179 957 l 1179 1032 l 1588 1032 l 1588 957 l 1465 939 l 1465 383 l 1465 305 q 1462 141 1465 204 q 1449 31 1459 77 q 1384 -106 1432 -47 q 1273 -200 1337 -164 q 1141 -250 1210 -235 l 1103 -187 z "},"Ń":{"ha":1112,"x_min":66,"x_max":1078,"o":"m 712 1364 l 713 1364 l 817 1278 q 740 1211 792 1246 q 631 1146 688 1175 q 543 1107 575 1118 l 542 1107 l 488 1154 l 712 1364 m 178 90 l 178 939 l 66 957 l 66 1032 l 334 1032 l 791 366 l 863 231 l 863 940 l 741 957 l 741 1032 l 1078 1032 l 1078 957 l 965 939 l 965 0 l 854 0 l 387 680 l 281 865 l 281 90 l 410 74 l 410 0 l 66 0 l 66 74 l 178 90 z "},"Ň":{"ha":1112,"x_min":66,"x_max":1078,"o":"m 407 1365 l 580 1237 l 759 1365 l 817 1325 l 642 1137 l 518 1137 l 345 1324 l 407 1365 m 178 90 l 178 939 l 66 957 l 66 1032 l 334 1032 l 791 366 l 863 231 l 863 940 l 741 957 l 741 1032 l 1078 1032 l 1078 957 l 965 939 l 965 0 l 854 0 l 387 680 l 281 865 l 281 90 l 410 74 l 410 0 l 66 0 l 66 74 l 178 90 z "},"Ņ":{"ha":1112,"x_min":66,"x_max":1078,"o":"m 571 -380 l 518 -353 l 517 -341 q 547 -308 536 -333 q 557 -254 557 -282 q 549 -227 557 -237 q 527 -207 541 -216 q 507 -185 514 -199 q 500 -148 500 -172 q 514 -104 500 -120 q 547 -81 528 -87 q 583 -75 566 -75 l 589 -75 q 659 -103 633 -75 q 684 -184 684 -132 q 662 -278 684 -234 q 613 -350 640 -321 q 573 -380 585 -378 l 571 -380 m 178 90 l 178 939 l 66 957 l 66 1032 l 334 1032 l 791 366 l 863 231 l 863 940 l 741 957 l 741 1032 l 1078 1032 l 1078 957 l 965 939 l 965 0 l 854 0 l 387 680 l 281 865 l 281 90 l 410 74 l 410 0 l 66 0 l 66 74 l 178 90 z "},"Ṅ":{"ha":1111,"x_min":66,"x_max":1078,"o":"m 178 90 l 178 939 l 66 957 l 66 1032 l 334 1032 l 791 366 l 863 231 l 863 940 l 741 957 l 741 1032 l 1078 1032 l 1078 957 l 965 939 l 965 0 l 854 0 l 387 680 l 281 865 l 281 90 l 410 74 l 410 0 l 66 0 l 66 74 l 178 90 m 477 1240 q 503 1316 477 1285 q 577 1347 530 1347 l 578 1347 q 646 1319 621 1347 q 671 1254 671 1292 q 644 1178 671 1207 q 566 1148 617 1148 l 565 1148 q 501 1174 526 1148 q 477 1240 477 1200 z "},"Ŋ":{"ha":1094,"x_min":67,"x_max":1080,"o":"m 180 89 l 180 943 l 67 962 l 67 1032 l 339 1032 l 766 366 l 864 180 l 864 941 l 746 959 l 746 1032 l 1080 1032 l 1080 959 l 966 941 l 966 273 q 952 79 966 155 q 917 -39 939 3 q 865 -117 896 -81 q 749 -208 808 -179 q 613 -246 689 -237 l 576 -186 q 691 -136 640 -170 q 776 -53 743 -102 q 810 17 797 -21 l 378 684 l 283 868 l 283 89 l 411 73 l 411 0 l 67 0 l 67 73 l 180 89 z "},"ǋ":{"ha":1556,"x_min":66,"x_max":1438,"o":"m 178 90 l 178 939 l 66 957 l 66 1032 l 334 1032 l 791 366 l 863 231 l 863 940 l 741 957 l 741 1032 l 1078 1032 l 1078 957 l 965 939 l 965 0 l 854 0 l 387 680 l 281 865 l 281 90 l 410 74 l 410 0 l 66 0 l 66 74 l 178 90 m 1172 677 l 1173 762 l 1388 789 l 1392 789 l 1426 763 l 1426 12 q 1393 -174 1426 -98 q 1306 -290 1360 -250 q 1187 -338 1253 -330 q 1172 -338 1184 -338 q 1133 -337 1154 -338 q 1107 -332 1113 -335 l 1100 -259 q 1132 -256 1110 -260 q 1174 -245 1154 -252 q 1251 -151 1229 -224 q 1272 41 1272 -78 l 1271 649 l 1172 677 m 1242 1010 q 1269 1088 1242 1056 q 1344 1120 1296 1120 l 1345 1120 q 1394 1106 1373 1120 q 1427 1072 1415 1093 q 1438 1025 1438 1050 q 1411 947 1438 978 q 1332 917 1383 917 l 1331 917 q 1267 943 1292 917 q 1242 1010 1242 970 z "},"Ñ":{"ha":1112,"x_min":66,"x_max":1078,"o":"m 443 1255 q 385 1235 407 1255 q 351 1196 362 1214 q 337 1175 340 1179 l 272 1217 q 309 1283 282 1250 q 377 1339 336 1317 q 467 1362 418 1362 q 518 1353 495 1362 q 559 1331 542 1343 q 600 1297 576 1318 q 646 1261 627 1272 q 688 1249 664 1249 q 744 1269 724 1249 q 774 1307 764 1289 q 787 1331 785 1326 l 854 1287 q 785 1183 831 1225 q 673 1142 740 1142 q 604 1158 633 1142 q 541 1205 575 1175 q 489 1243 510 1231 q 443 1255 469 1255 m 178 90 l 178 939 l 66 957 l 66 1032 l 334 1032 l 791 366 l 863 231 l 863 940 l 741 957 l 741 1032 l 1078 1032 l 1078 957 l 965 939 l 965 0 l 854 0 l 387 680 l 281 865 l 281 90 l 410 74 l 410 0 l 66 0 l 66 74 l 178 90 z "},"O":{"ha":1004,"x_min":45,"x_max":958,"o":"m 45 509 q 106 790 45 669 q 274 978 167 911 q 514 1044 380 1044 q 759 980 659 1044 q 908 801 859 917 q 958 527 958 685 q 897 242 958 365 q 727 52 836 119 q 484 -16 619 -16 q 244 50 342 -16 q 95 234 145 115 q 45 509 45 352 m 221 509 q 254 273 221 374 q 351 119 288 173 q 502 64 414 64 q 651 116 588 64 q 748 271 713 168 q 783 526 783 374 q 750 761 783 662 q 654 912 717 859 q 503 964 591 964 q 353 915 416 964 q 255 763 290 865 q 221 509 221 661 z "},"Ó":{"ha":1004,"x_min":45,"x_max":958,"o":"m 631 1364 l 632 1364 l 736 1278 q 659 1211 711 1246 q 551 1146 607 1175 q 462 1107 494 1118 l 461 1107 l 407 1154 l 631 1364 m 45 509 q 106 790 45 669 q 274 978 167 911 q 514 1044 380 1044 q 759 980 659 1044 q 908 801 859 917 q 958 527 958 685 q 897 242 958 365 q 727 52 836 119 q 484 -16 619 -16 q 244 50 342 -16 q 95 234 145 115 q 45 509 45 352 m 221 509 q 254 273 221 374 q 351 119 288 173 q 502 64 414 64 q 651 116 588 64 q 748 271 713 168 q 783 526 783 374 q 750 761 783 662 q 654 912 717 859 q 503 964 591 964 q 353 915 416 964 q 255 763 290 865 q 221 509 221 661 z "},"Ŏ":{"ha":1004,"x_min":45,"x_max":958,"o":"m 273 1326 q 274 1355 273 1345 l 356 1355 q 358 1337 356 1345 q 399 1262 364 1296 q 508 1229 433 1229 q 615 1262 582 1229 q 653 1337 648 1296 q 654 1355 654 1345 l 735 1355 q 736 1327 736 1345 q 709 1219 736 1267 q 630 1142 682 1171 q 507 1114 578 1114 q 380 1142 433 1114 q 300 1218 327 1170 q 273 1326 273 1267 m 45 509 q 106 790 45 669 q 274 978 167 911 q 514 1044 380 1044 q 759 980 659 1044 q 908 801 859 917 q 958 527 958 685 q 897 242 958 365 q 727 52 836 119 q 484 -16 619 -16 q 244 50 342 -16 q 95 234 145 115 q 45 509 45 352 m 221 509 q 254 273 221 374 q 351 119 288 173 q 502 64 414 64 q 651 116 588 64 q 748 271 713 168 q 783 526 783 374 q 750 761 783 662 q 654 912 717 859 q 503 964 591 964 q 353 915 416 964 q 255 763 290 865 q 221 509 221 661 z "},"Ǒ":{"ha":1004,"x_min":45,"x_max":958,"o":"m 45 509 q 106 790 45 669 q 274 978 167 911 q 514 1044 380 1044 q 759 980 659 1044 q 908 801 859 917 q 958 527 958 685 q 897 242 958 365 q 727 52 836 119 q 484 -16 619 -16 q 244 50 342 -16 q 95 234 145 115 q 45 509 45 352 m 221 509 q 254 273 221 374 q 351 119 288 173 q 502 64 414 64 q 651 116 588 64 q 748 271 713 168 q 783 526 783 374 q 750 761 783 662 q 654 912 717 859 q 503 964 591 964 q 353 915 416 964 q 255 763 290 865 q 221 509 221 661 m 333 1365 l 506 1237 l 685 1365 l 743 1325 l 568 1137 l 444 1137 l 271 1324 l 333 1365 z "},"Ô":{"ha":1004,"x_min":45,"x_max":958,"o":"m 45 509 q 106 790 45 669 q 274 978 167 911 q 514 1044 380 1044 q 759 980 659 1044 q 908 801 859 917 q 958 527 958 685 q 897 242 958 365 q 727 52 836 119 q 484 -16 619 -16 q 244 50 342 -16 q 95 234 145 115 q 45 509 45 352 m 221 509 q 254 273 221 374 q 351 119 288 173 q 502 64 414 64 q 651 116 588 64 q 748 271 713 168 q 783 526 783 374 q 750 761 783 662 q 654 912 717 859 q 503 964 591 964 q 353 915 416 964 q 255 763 290 865 q 221 509 221 661 m 442 1365 l 566 1365 l 752 1163 l 690 1122 l 505 1259 l 316 1122 l 258 1162 l 442 1365 z "},"Ö":{"ha":1004,"x_min":45,"x_max":958,"o":"m 241 1236 q 267 1314 241 1282 q 340 1345 293 1345 l 341 1345 q 389 1332 369 1345 q 420 1297 410 1318 q 431 1252 431 1276 q 404 1174 431 1204 q 326 1144 377 1144 l 326 1144 q 264 1171 288 1144 q 241 1236 241 1198 m 580 1236 q 606 1314 580 1282 q 679 1345 632 1345 l 680 1345 q 728 1332 708 1345 q 759 1297 749 1318 q 770 1252 770 1276 q 743 1174 770 1204 q 666 1144 717 1144 l 665 1144 q 604 1171 627 1144 q 580 1236 580 1198 m 45 509 q 106 790 45 669 q 274 978 167 911 q 514 1044 380 1044 q 759 980 659 1044 q 908 801 859 917 q 958 527 958 685 q 897 242 958 365 q 727 52 836 119 q 484 -16 619 -16 q 244 50 342 -16 q 95 234 145 115 q 45 509 45 352 m 221 509 q 254 273 221 374 q 351 119 288 173 q 502 64 414 64 q 651 116 588 64 q 748 271 713 168 q 783 526 783 374 q 750 761 783 662 q 654 912 717 859 q 503 964 591 964 q 353 915 416 964 q 255 763 290 865 q 221 509 221 661 z "},"Ò":{"ha":1004,"x_min":45,"x_max":958,"o":"m 392 1364 l 393 1364 l 617 1154 l 563 1107 l 562 1107 q 472 1147 529 1118 q 362 1212 414 1177 q 289 1278 311 1248 l 392 1364 m 45 509 q 106 790 45 669 q 274 978 167 911 q 514 1044 380 1044 q 759 980 659 1044 q 908 801 859 917 q 958 527 958 685 q 897 242 958 365 q 727 52 836 119 q 484 -16 619 -16 q 244 50 342 -16 q 95 234 145 115 q 45 509 45 352 m 221 509 q 254 273 221 374 q 351 119 288 173 q 502 64 414 64 q 651 116 588 64 q 748 271 713 168 q 783 526 783 374 q 750 761 783 662 q 654 912 717 859 q 503 964 591 964 q 353 915 416 964 q 255 763 290 865 q 221 509 221 661 z "},"Ő":{"ha":1004,"x_min":45,"x_max":958,"o":"m 45 509 q 106 790 45 669 q 274 978 167 911 q 514 1044 380 1044 q 759 980 659 1044 q 908 801 859 917 q 958 527 958 685 q 897 242 958 365 q 727 52 836 119 q 484 -16 619 -16 q 244 50 342 -16 q 95 234 145 115 q 45 509 45 352 m 221 509 q 254 273 221 374 q 351 119 288 173 q 502 64 414 64 q 651 116 588 64 q 748 271 713 168 q 783 526 783 374 q 750 761 783 662 q 654 912 717 859 q 503 964 591 964 q 353 915 416 964 q 255 763 290 865 q 221 509 221 661 m 436 1366 l 534 1284 q 429 1188 491 1235 q 312 1110 367 1141 l 248 1166 l 436 1366 m 790 1364 l 881 1283 q 777 1189 842 1238 q 655 1110 711 1140 l 591 1166 l 790 1364 z "},"Ō":{"ha":1004,"x_min":45,"x_max":958,"o":"m 701 1291 l 701 1184 l 315 1184 l 315 1291 l 701 1291 m 45 509 q 106 790 45 669 q 274 978 167 911 q 514 1044 380 1044 q 759 980 659 1044 q 908 801 859 917 q 958 527 958 685 q 897 242 958 365 q 727 52 836 119 q 484 -16 619 -16 q 244 50 342 -16 q 95 234 145 115 q 45 509 45 352 m 221 509 q 254 273 221 374 q 351 119 288 173 q 502 64 414 64 q 651 116 588 64 q 748 271 713 168 q 783 526 783 374 q 750 761 783 662 q 654 912 717 859 q 503 964 591 964 q 353 915 416 964 q 255 763 290 865 q 221 509 221 661 z "},"Ø":{"ha":1004,"x_min":45,"x_max":958,"o":"m 279 29 q 104 212 164 87 q 45 509 45 337 q 106 790 45 669 q 274 978 167 911 q 514 1044 380 1044 q 658 1025 590 1044 l 712 1166 l 784 1141 l 726 998 q 900 820 841 941 q 958 527 958 698 q 898 244 958 367 q 732 54 838 122 q 493 -16 627 -14 q 349 1 417 -16 l 288 -146 l 215 -124 l 279 29 m 221 509 q 250 288 221 383 q 332 136 278 193 l 623 933 q 503 964 570 964 q 353 915 416 964 q 255 763 290 865 q 221 509 221 661 m 385 94 q 502 64 437 64 q 651 116 588 64 q 748 271 713 168 q 783 526 783 374 q 755 742 783 649 q 675 890 728 836 l 385 94 z "},"Ǿ":{"ha":1004,"x_min":45,"x_max":958,"o":"m 279 29 q 104 212 164 87 q 45 509 45 337 q 106 790 45 669 q 274 978 167 911 q 514 1044 380 1044 q 658 1025 590 1044 l 712 1166 l 784 1141 l 726 998 q 900 820 841 941 q 958 527 958 698 q 898 244 958 367 q 732 54 838 122 q 493 -16 627 -14 q 349 1 417 -16 l 288 -146 l 215 -124 l 279 29 m 221 509 q 250 288 221 383 q 332 136 278 193 l 623 933 q 503 964 570 964 q 353 915 416 964 q 255 763 290 865 q 221 509 221 661 m 385 94 q 502 64 437 64 q 651 116 588 64 q 748 271 713 168 q 783 526 783 374 q 755 742 783 649 q 675 890 728 836 l 385 94 m 603 1364 l 604 1364 l 707 1278 q 631 1211 683 1246 q 522 1146 578 1175 q 433 1107 466 1118 l 433 1107 l 378 1154 l 603 1364 z "},"Õ":{"ha":1004,"x_min":45,"x_max":958,"o":"m 386 1255 q 328 1235 350 1255 q 294 1196 305 1214 q 280 1175 283 1179 l 215 1217 q 252 1283 225 1250 q 320 1339 279 1317 q 410 1362 361 1362 q 461 1353 438 1362 q 502 1331 485 1343 q 543 1297 519 1318 q 589 1261 570 1272 q 631 1249 607 1249 q 687 1269 667 1249 q 718 1307 707 1289 q 730 1331 728 1326 l 797 1287 q 728 1183 774 1225 q 616 1142 683 1142 q 547 1158 576 1142 q 484 1205 518 1175 q 432 1243 453 1231 q 386 1255 412 1255 m 45 509 q 106 790 45 669 q 274 978 167 911 q 514 1044 380 1044 q 759 980 659 1044 q 908 801 859 917 q 958 527 958 685 q 897 242 958 365 q 727 52 836 119 q 484 -16 619 -16 q 244 50 342 -16 q 95 234 145 115 q 45 509 45 352 m 221 509 q 254 273 221 374 q 351 119 288 173 q 502 64 414 64 q 651 116 588 64 q 748 271 713 168 q 783 526 783 374 q 750 761 783 662 q 654 912 717 859 q 503 964 591 964 q 353 915 416 964 q 255 763 290 865 q 221 509 221 661 z "},"Œ":{"ha":1432,"x_min":53,"x_max":1409,"o":"m 696 40 q 494 -11 605 -11 q 255 55 354 -11 q 104 238 155 120 q 53 510 53 355 q 114 791 53 670 q 281 979 174 912 q 522 1046 388 1045 q 696 1014 623 1046 l 696 1032 l 1293 1032 l 1311 816 l 1225 816 l 1183 945 l 855 954 l 855 570 l 1078 575 l 1098 686 l 1186 686 l 1186 369 l 1098 369 l 1078 485 l 855 489 l 855 83 l 1235 98 l 1323 269 l 1409 243 l 1358 0 l 696 0 l 696 40 m 696 893 q 511 970 632 970 q 358 918 422 970 q 260 762 294 865 q 227 511 227 659 q 260 283 227 384 q 359 125 294 182 q 512 67 424 67 q 696 158 628 67 l 696 893 z "},"P":{"ha":901,"x_min":66,"x_max":866,"o":"m 180 90 l 180 939 l 74 957 l 74 1032 l 241 1032 q 340 1036 278 1032 q 481 1042 414 1042 q 709 1007 625 1042 q 830 908 794 973 q 866 745 866 843 q 814 551 866 633 q 672 426 763 469 q 463 382 581 382 q 388 385 427 382 q 340 389 349 387 l 340 90 l 523 74 l 523 0 l 66 0 l 66 74 l 180 90 m 463 463 q 630 527 566 463 q 695 743 695 592 q 638 912 695 861 q 460 964 581 964 q 377 958 419 964 q 339 955 355 955 l 339 469 q 463 463 372 463 z "},"Ṗ":{"ha":901,"x_min":66,"x_max":866,"o":"m 363 1240 q 389 1316 363 1285 q 463 1347 416 1347 l 464 1347 q 532 1319 507 1347 q 557 1254 557 1292 q 530 1178 557 1207 q 452 1148 503 1148 l 451 1148 q 387 1174 412 1148 q 363 1240 363 1200 m 180 90 l 180 939 l 74 957 l 74 1032 l 241 1032 q 340 1036 278 1032 q 481 1042 414 1042 q 709 1007 625 1042 q 830 908 794 973 q 866 745 866 843 q 814 551 866 633 q 672 426 763 469 q 463 382 581 382 q 388 385 427 382 q 340 389 349 387 l 340 90 l 523 74 l 523 0 l 66 0 l 66 74 l 180 90 m 463 463 q 630 527 566 463 q 695 743 695 592 q 638 912 695 861 q 460 964 581 964 q 377 958 419 964 q 339 955 355 955 l 339 469 q 463 463 372 463 z "},"Þ":{"ha":900,"x_min":64,"x_max":861,"o":"m 178 89 l 178 941 l 66 960 l 66 1032 l 454 1032 l 454 960 l 336 941 l 336 789 l 382 793 q 470 801 433 798 q 547 803 507 803 q 780 734 699 803 q 861 532 861 666 q 767 302 861 378 q 502 227 673 227 q 336 233 399 227 l 336 89 l 483 73 l 483 0 l 64 0 l 64 73 l 178 89 m 688 524 q 479 721 688 721 q 336 709 417 721 l 336 310 q 464 304 389 304 l 487 304 q 634 356 580 304 q 688 524 688 408 z "},"Q":{"ha":1019,"x_min":52,"x_max":1268,"o":"m 52 509 q 113 790 52 669 q 280 978 174 911 q 521 1044 387 1044 q 766 980 666 1044 q 915 801 865 917 q 965 527 965 685 q 932 312 965 410 q 839 142 899 214 q 697 31 779 71 q 784 14 739 29 q 869 -21 829 -1 q 972 -77 909 -41 q 1107 -147 1053 -123 q 1207 -170 1160 -170 l 1208 -170 q 1246 -170 1237 -170 l 1268 -244 q 1214 -275 1246 -261 q 1124 -288 1181 -288 l 1117 -288 q 1001 -267 1055 -288 q 904 -214 947 -245 q 804 -133 862 -183 q 727 -70 758 -93 q 661 -28 696 -46 q 588 -6 625 -11 q 490 -16 539 -16 q 251 50 349 -16 q 102 234 152 115 q 52 509 52 352 m 228 509 q 261 273 228 374 q 357 119 294 173 q 509 64 420 64 q 657 116 595 64 q 755 271 720 168 q 789 526 789 374 q 756 761 789 662 q 661 912 724 859 q 509 964 597 964 q 359 915 422 964 q 262 763 296 865 q 228 509 228 661 z "},"R":{"ha":977,"x_min":65,"x_max":979,"o":"m 179 89 l 179 941 l 72 958 l 72 1032 l 258 1032 q 321 1034 288 1032 q 363 1037 353 1036 q 472 1042 432 1042 q 692 1013 609 1042 q 811 923 774 983 q 848 770 848 863 q 824 647 848 707 q 754 544 800 588 q 646 479 709 499 q 703 427 675 463 q 755 351 732 391 q 814 247 779 311 q 879 133 854 170 q 926 90 904 95 l 979 73 l 979 0 l 778 0 q 727 48 755 0 q 654 198 700 96 q 571 368 606 306 q 502 452 536 431 q 338 454 367 452 l 338 89 l 471 74 l 471 0 l 65 0 l 65 74 l 179 89 m 491 532 q 627 589 578 532 q 675 759 675 646 q 626 909 675 856 q 454 963 576 963 q 359 957 403 963 l 338 955 l 338 533 q 406 531 359 531 l 491 532 z "},"Ŕ":{"ha":977,"x_min":65,"x_max":979,"o":"m 179 89 l 179 941 l 72 958 l 72 1032 l 258 1032 q 321 1034 288 1032 q 363 1037 353 1036 q 472 1042 432 1042 q 692 1013 609 1042 q 811 923 774 983 q 848 770 848 863 q 824 647 848 707 q 754 544 800 588 q 646 479 709 499 q 703 427 675 463 q 755 351 732 391 q 814 247 779 311 q 879 133 854 170 q 926 90 904 95 l 979 73 l 979 0 l 778 0 q 727 48 755 0 q 654 198 700 96 q 571 368 606 306 q 502 452 536 431 q 338 454 367 452 l 338 89 l 471 74 l 471 0 l 65 0 l 65 74 l 179 89 m 491 532 q 627 589 578 532 q 675 759 675 646 q 626 909 675 856 q 454 963 576 963 q 359 957 403 963 l 338 955 l 338 533 q 406 531 359 531 l 491 532 m 616 1364 l 616 1364 l 720 1278 q 644 1211 696 1246 q 535 1146 591 1175 q 446 1107 479 1118 l 446 1107 l 391 1154 l 616 1364 z "},"Ř":{"ha":977,"x_min":65,"x_max":979,"o":"m 317 1365 l 490 1237 l 669 1365 l 727 1325 l 553 1137 l 429 1137 l 256 1324 l 317 1365 m 179 89 l 179 941 l 72 958 l 72 1032 l 258 1032 q 321 1034 288 1032 q 363 1037 353 1036 q 472 1042 432 1042 q 692 1013 609 1042 q 811 923 774 983 q 848 770 848 863 q 824 647 848 707 q 754 544 800 588 q 646 479 709 499 q 703 427 675 463 q 755 351 732 391 q 814 247 779 311 q 879 133 854 170 q 926 90 904 95 l 979 73 l 979 0 l 778 0 q 727 48 755 0 q 654 198 700 96 q 571 368 606 306 q 502 452 536 431 q 338 454 367 452 l 338 89 l 471 74 l 471 0 l 65 0 l 65 74 l 179 89 m 491 532 q 627 589 578 532 q 675 759 675 646 q 626 909 675 856 q 454 963 576 963 q 359 957 403 963 l 338 955 l 338 533 q 406 531 359 531 l 491 532 z "},"Ŗ":{"ha":977,"x_min":65,"x_max":979,"o":"m 514 -380 l 461 -353 l 460 -341 q 490 -308 479 -333 q 500 -254 500 -282 q 492 -227 500 -237 q 470 -207 484 -216 q 450 -185 457 -199 q 443 -148 443 -172 q 457 -104 443 -120 q 490 -81 471 -87 q 526 -75 509 -75 l 532 -75 q 602 -103 576 -75 q 627 -184 627 -132 q 605 -278 627 -234 q 556 -350 583 -321 q 516 -380 528 -378 l 514 -380 m 179 89 l 179 941 l 72 958 l 72 1032 l 258 1032 q 321 1034 288 1032 q 363 1037 353 1036 q 472 1042 432 1042 q 692 1013 609 1042 q 811 923 774 983 q 848 770 848 863 q 824 647 848 707 q 754 544 800 588 q 646 479 709 499 q 703 427 675 463 q 755 351 732 391 q 814 247 779 311 q 879 133 854 170 q 926 90 904 95 l 979 73 l 979 0 l 778 0 q 727 48 755 0 q 654 198 700 96 q 571 368 606 306 q 502 452 536 431 q 338 454 367 452 l 338 89 l 471 74 l 471 0 l 65 0 l 65 74 l 179 89 m 491 532 q 627 589 578 532 q 675 759 675 646 q 626 909 675 856 q 454 963 576 963 q 359 957 403 963 l 338 955 l 338 533 q 406 531 359 531 l 491 532 z "},"S":{"ha":824,"x_min":79,"x_max":768,"o":"m 91 298 l 185 298 l 212 125 q 287 83 235 100 q 399 66 338 66 q 551 111 500 66 q 602 236 602 156 q 574 326 602 288 q 498 392 546 363 q 366 458 450 420 q 234 530 292 492 q 134 631 176 569 q 92 777 92 692 q 133 915 92 854 q 251 1009 174 975 q 429 1044 328 1044 q 545 1033 492 1044 q 654 1006 597 1023 q 703 994 684 998 l 694 762 l 603 762 l 572 926 q 517 952 559 941 q 428 964 476 964 q 245 817 245 964 q 273 728 245 765 q 347 664 300 692 q 483 591 393 635 q 629 511 572 547 q 727 417 686 474 q 768 283 768 361 q 726 140 768 209 q 601 28 684 71 q 397 -16 517 -16 q 264 -2 324 -16 q 138 32 203 11 q 79 47 94 46 l 91 298 z "},"Ś":{"ha":824,"x_min":79,"x_max":768,"o":"m 91 298 l 185 298 l 212 125 q 287 83 235 100 q 399 66 338 66 q 551 111 500 66 q 602 236 602 156 q 574 326 602 288 q 498 392 546 363 q 366 458 450 420 q 234 530 292 492 q 134 631 176 569 q 92 777 92 692 q 133 915 92 854 q 251 1009 174 975 q 429 1044 328 1044 q 545 1033 492 1044 q 654 1006 597 1023 q 703 994 684 998 l 694 762 l 603 762 l 572 926 q 517 952 559 941 q 428 964 476 964 q 245 817 245 964 q 273 728 245 765 q 347 664 300 692 q 483 591 393 635 q 629 511 572 547 q 727 417 686 474 q 768 283 768 361 q 726 140 768 209 q 601 28 684 71 q 397 -16 517 -16 q 264 -2 324 -16 q 138 32 203 11 q 79 47 94 46 l 91 298 m 558 1364 l 559 1364 l 663 1278 q 586 1211 638 1246 q 477 1146 534 1175 q 389 1107 421 1118 l 388 1107 l 334 1154 l 558 1364 z "},"Š":{"ha":824,"x_min":79,"x_max":768,"o":"m 91 298 l 185 298 l 212 125 q 287 83 235 100 q 399 66 338 66 q 551 111 500 66 q 602 236 602 156 q 574 326 602 288 q 498 392 546 363 q 366 458 450 420 q 234 530 292 492 q 134 631 176 569 q 92 777 92 692 q 133 915 92 854 q 251 1009 174 975 q 429 1044 328 1044 q 545 1033 492 1044 q 654 1006 597 1023 q 703 994 684 998 l 694 762 l 603 762 l 572 926 q 517 952 559 941 q 428 964 476 964 q 245 817 245 964 q 273 728 245 765 q 347 664 300 692 q 483 591 393 635 q 629 511 572 547 q 727 417 686 474 q 768 283 768 361 q 726 140 768 209 q 601 28 684 71 q 397 -16 517 -16 q 264 -2 324 -16 q 138 32 203 11 q 79 47 94 46 l 91 298 m 260 1365 l 433 1237 l 612 1365 l 669 1325 l 495 1137 l 371 1137 l 198 1324 l 260 1365 z "},"Ş":{"ha":824,"x_min":79,"x_max":768,"o":"m 768 283 q 731 148 768 214 q 620 38 694 83 q 439 -14 545 -6 q 491 -95 468 -47 q 513 -190 513 -142 q 469 -302 513 -269 q 334 -335 424 -335 l 334 -335 q 282 -330 310 -335 q 236 -317 254 -325 l 237 -213 q 267 -220 250 -218 q 295 -222 285 -222 l 296 -222 q 351 -216 331 -222 q 381 -189 371 -210 q 392 -127 392 -168 q 382 -70 392 -100 q 359 -14 372 -39 q 245 1 297 -11 q 138 32 194 14 q 79 47 92 46 l 91 298 l 185 298 l 212 125 q 287 83 235 100 q 399 66 338 66 q 551 111 500 66 q 602 236 602 156 q 574 326 602 288 q 498 392 546 363 q 366 458 450 420 q 234 530 292 492 q 134 631 176 569 q 92 777 92 692 q 133 915 92 854 q 251 1009 174 975 q 429 1044 328 1044 q 545 1033 492 1044 q 654 1006 597 1023 q 703 994 684 998 l 694 762 l 603 762 l 572 926 q 517 952 559 941 q 428 964 476 964 q 245 817 245 964 q 273 728 245 765 q 347 664 300 692 q 483 591 393 635 q 629 511 572 547 q 727 417 686 474 q 768 283 768 361 z "},"Ŝ":{"ha":824,"x_min":79,"x_max":768,"o":"m 91 298 l 185 298 l 212 125 q 287 83 235 100 q 399 66 338 66 q 551 111 500 66 q 602 236 602 156 q 574 326 602 288 q 498 392 546 363 q 366 458 450 420 q 234 530 292 492 q 134 631 176 569 q 92 777 92 692 q 133 915 92 854 q 251 1009 174 975 q 429 1044 328 1044 q 545 1033 492 1044 q 654 1006 597 1023 q 703 994 684 998 l 694 762 l 603 762 l 572 926 q 517 952 559 941 q 428 964 476 964 q 245 817 245 964 q 273 728 245 765 q 347 664 300 692 q 483 591 393 635 q 629 511 572 547 q 727 417 686 474 q 768 283 768 361 q 726 140 768 209 q 601 28 684 71 q 397 -16 517 -16 q 264 -2 324 -16 q 138 32 203 11 q 79 47 94 46 l 91 298 m 369 1365 l 493 1365 l 679 1163 l 616 1122 l 431 1259 l 243 1122 l 185 1162 l 369 1365 z "},"Ș":{"ha":824,"x_min":79,"x_max":768,"o":"m 408 -380 l 355 -353 l 355 -341 q 384 -308 373 -333 q 395 -254 395 -282 q 387 -227 395 -237 q 364 -207 378 -216 q 344 -185 351 -199 q 337 -148 337 -172 q 351 -104 337 -120 q 385 -81 366 -87 q 420 -75 404 -75 l 427 -75 q 496 -103 471 -75 q 522 -184 522 -132 q 499 -278 522 -234 q 450 -350 477 -321 q 410 -380 422 -378 l 408 -380 m 91 298 l 185 298 l 212 125 q 287 83 235 100 q 399 66 338 66 q 551 111 500 66 q 602 236 602 156 q 574 326 602 288 q 498 392 546 363 q 366 458 450 420 q 234 530 292 492 q 134 631 176 569 q 92 777 92 692 q 133 915 92 854 q 251 1009 174 975 q 429 1044 328 1044 q 545 1033 492 1044 q 654 1006 597 1023 q 703 994 684 998 l 694 762 l 603 762 l 572 926 q 517 952 559 941 q 428 964 476 964 q 245 817 245 964 q 273 728 245 765 q 347 664 300 692 q 483 591 393 635 q 629 511 572 547 q 727 417 686 474 q 768 283 768 361 q 726 140 768 209 q 601 28 684 71 q 397 -16 517 -16 q 264 -2 324 -16 q 138 32 203 11 q 79 47 94 46 l 91 298 z "},"Ṡ":{"ha":824,"x_min":79,"x_max":768,"o":"m 334 1240 q 361 1316 334 1285 q 435 1347 387 1347 l 435 1347 q 503 1319 478 1347 q 528 1254 528 1292 q 502 1178 528 1207 q 423 1148 475 1148 l 422 1148 q 359 1174 383 1148 q 334 1240 334 1200 m 91 298 l 185 298 l 212 125 q 287 83 235 100 q 399 66 338 66 q 551 111 500 66 q 602 236 602 156 q 574 326 602 288 q 498 392 546 363 q 366 458 450 420 q 234 530 292 492 q 134 631 176 569 q 92 777 92 692 q 133 915 92 854 q 251 1009 174 975 q 429 1044 328 1044 q 545 1033 492 1044 q 654 1006 597 1023 q 703 994 684 998 l 694 762 l 603 762 l 572 926 q 517 952 559 941 q 428 964 476 964 q 245 817 245 964 q 273 728 245 765 q 347 664 300 692 q 483 591 393 635 q 629 511 572 547 q 727 417 686 474 q 768 283 768 361 q 726 140 768 209 q 601 28 684 71 q 397 -16 517 -16 q 264 -2 324 -16 q 138 32 203 11 q 79 47 94 46 l 91 298 z "},"ẞ":{"ha":1017,"x_min":28,"x_max":994,"o":"m 268 641 q 303 816 268 743 q 397 927 338 889 q 530 965 457 965 q 650 946 604 965 q 722 899 696 927 l 538 596 l 538 560 q 669 496 600 538 q 787 394 738 454 q 836 265 836 334 q 793 110 836 157 q 684 63 750 63 q 604 77 642 63 q 551 113 566 90 l 523 287 l 433 287 l 425 41 q 477 26 439 40 q 576 -4 529 7 q 681 -16 623 -16 q 845 24 774 -16 q 955 134 916 64 q 994 295 994 205 q 947 455 994 389 q 839 558 901 520 q 680 642 777 597 l 862 905 l 863 971 q 728 1024 796 1005 q 567 1044 661 1044 q 333 987 438 1044 q 169 832 229 931 q 109 612 109 734 l 108 90 l 28 73 l 28 0 l 268 0 l 268 641 z "},"Ə":{"ha":932,"x_min":72,"x_max":888,"o":"m 72 393 q 81 536 72 497 l 726 536 l 726 541 q 682 770 722 674 q 579 914 643 865 q 440 963 516 963 q 310 941 358 963 q 229 881 261 918 l 201 781 l 101 783 l 107 989 q 146 994 126 990 q 201 1007 167 998 q 326 1034 267 1024 q 465 1043 385 1043 q 688 979 592 1043 q 836 797 783 915 q 888 523 888 680 q 828 241 888 363 q 666 52 769 119 q 433 -16 562 -16 q 247 32 328 -16 q 120 171 166 79 q 72 393 74 262 m 239 452 q 234 378 234 408 q 259 234 234 304 q 336 119 283 164 q 467 73 389 73 q 654 164 585 73 q 727 452 723 254 l 239 452 z "},"T":{"ha":957,"x_min":22,"x_max":926,"o":"m 397 90 l 397 951 l 171 945 l 120 661 l 22 661 l 45 1032 l 904 1032 l 926 661 l 829 661 l 777 945 l 560 951 l 560 90 l 752 74 l 752 0 l 220 0 l 220 74 l 397 90 z "},"Ŧ":{"ha":982,"x_min":35,"x_max":939,"o":"m 410 530 l 410 951 l 184 945 l 133 661 l 35 661 l 58 1032 l 917 1032 l 939 661 l 842 661 l 790 945 l 573 951 l 573 530 l 733 530 l 733 444 l 573 444 l 573 90 l 765 74 l 765 0 l 233 0 l 233 74 l 410 90 l 410 444 l 248 444 l 248 530 l 410 530 z "},"Ť":{"ha":957,"x_min":22,"x_max":926,"o":"m 317 1365 l 490 1237 l 669 1365 l 727 1325 l 553 1137 l 429 1137 l 256 1324 l 317 1365 m 397 90 l 397 951 l 171 945 l 120 661 l 22 661 l 45 1032 l 904 1032 l 926 661 l 829 661 l 777 945 l 560 951 l 560 90 l 752 74 l 752 0 l 220 0 l 220 74 l 397 90 z "},"Ţ":{"ha":957,"x_min":22,"x_max":926,"o":"m 926 661 l 829 661 l 777 945 l 560 951 l 560 90 l 752 74 l 752 0 l 505 0 q 542 -46 522 -16 q 577 -113 562 -75 q 591 -190 591 -151 q 547 -302 591 -269 q 412 -335 502 -335 l 412 -335 q 360 -330 388 -335 q 314 -317 332 -325 l 315 -213 q 345 -220 328 -218 q 373 -222 363 -222 l 374 -222 q 429 -216 409 -222 q 459 -189 449 -210 q 470 -127 470 -168 q 457 -58 470 -94 q 429 0 444 -22 l 220 0 l 220 74 l 397 90 l 397 951 l 171 945 l 120 661 l 22 661 l 45 1032 l 904 1032 l 926 661 z "},"Ț":{"ha":957,"x_min":22,"x_max":926,"o":"m 484 -380 l 431 -353 l 430 -341 q 459 -308 448 -333 q 470 -254 470 -282 q 462 -227 470 -237 q 439 -207 454 -216 q 419 -185 427 -199 q 412 -148 412 -172 q 427 -104 412 -120 q 460 -81 441 -87 q 495 -75 479 -75 l 502 -75 q 571 -103 546 -75 q 597 -184 597 -132 q 575 -278 597 -234 q 525 -350 553 -321 q 486 -380 498 -378 l 484 -380 m 397 90 l 397 951 l 171 945 l 120 661 l 22 661 l 45 1032 l 904 1032 l 926 661 l 829 661 l 777 945 l 560 951 l 560 90 l 752 74 l 752 0 l 220 0 l 220 74 l 397 90 z "},"Ṫ":{"ha":957,"x_min":22,"x_max":926,"o":"m 391 1240 q 417 1316 391 1285 q 491 1347 444 1347 l 492 1347 q 559 1319 534 1347 q 585 1254 585 1292 q 558 1178 585 1207 q 479 1148 531 1148 l 479 1148 q 415 1174 439 1148 q 391 1240 391 1200 m 397 90 l 397 951 l 171 945 l 120 661 l 22 661 l 45 1032 l 904 1032 l 926 661 l 829 661 l 777 945 l 560 951 l 560 90 l 752 74 l 752 0 l 220 0 l 220 74 l 397 90 z "},"U":{"ha":1023,"x_min":27,"x_max":1001,"o":"m 125 939 l 27 957 l 27 1032 l 406 1032 l 406 957 l 290 939 l 290 420 q 357 152 290 233 q 545 70 423 70 q 726 159 665 70 q 788 413 788 248 l 788 939 l 676 957 l 676 1032 l 1001 1032 l 1001 957 l 901 939 l 901 420 q 852 179 901 275 q 720 36 804 82 q 526 -11 636 -11 q 297 36 385 -11 q 167 182 209 83 q 125 436 125 280 l 125 939 z "},"Ú":{"ha":1023,"x_min":27,"x_max":1001,"o":"m 664 1364 l 665 1364 l 768 1278 q 692 1211 744 1246 q 583 1146 640 1175 q 494 1107 527 1118 l 494 1107 l 439 1154 l 664 1364 m 125 939 l 27 957 l 27 1032 l 406 1032 l 406 957 l 290 939 l 290 420 q 357 152 290 233 q 545 70 423 70 q 726 159 665 70 q 788 413 788 248 l 788 939 l 676 957 l 676 1032 l 1001 1032 l 1001 957 l 901 939 l 901 420 q 852 179 901 275 q 720 36 804 82 q 526 -11 636 -11 q 297 36 385 -11 q 167 182 209 83 q 125 436 125 280 l 125 939 z "},"Ŭ":{"ha":1023,"x_min":27,"x_max":1001,"o":"m 304 1326 q 306 1355 304 1345 l 388 1355 q 390 1337 388 1345 q 431 1262 396 1296 q 540 1229 465 1229 q 647 1262 614 1229 q 685 1337 680 1296 q 686 1355 686 1345 l 767 1355 q 768 1327 768 1345 q 741 1219 768 1267 q 662 1142 713 1171 q 538 1114 610 1114 q 412 1142 465 1114 q 332 1218 359 1170 q 304 1326 304 1267 m 125 939 l 27 957 l 27 1032 l 406 1032 l 406 957 l 290 939 l 290 420 q 357 152 290 233 q 545 70 423 70 q 726 159 665 70 q 788 413 788 248 l 788 939 l 676 957 l 676 1032 l 1001 1032 l 1001 957 l 901 939 l 901 420 q 852 179 901 275 q 720 36 804 82 q 526 -11 636 -11 q 297 36 385 -11 q 167 182 209 83 q 125 436 125 280 l 125 939 z "},"Ǔ":{"ha":1023,"x_min":27,"x_max":1001,"o":"m 125 939 l 27 957 l 27 1032 l 406 1032 l 406 957 l 290 939 l 290 420 q 357 152 290 233 q 545 70 423 70 q 726 159 665 70 q 788 413 788 248 l 788 939 l 676 957 l 676 1032 l 1001 1032 l 1001 957 l 901 939 l 901 420 q 852 179 901 275 q 720 36 804 82 q 526 -11 636 -11 q 297 36 385 -11 q 167 182 209 83 q 125 436 125 280 l 125 939 m 365 1365 l 538 1237 l 717 1365 l 774 1325 l 600 1137 l 476 1137 l 303 1324 l 365 1365 z "},"Û":{"ha":1023,"x_min":27,"x_max":1001,"o":"m 125 939 l 27 957 l 27 1032 l 406 1032 l 406 957 l 290 939 l 290 420 q 357 152 290 233 q 545 70 423 70 q 726 159 665 70 q 788 413 788 248 l 788 939 l 676 957 l 676 1032 l 1001 1032 l 1001 957 l 901 939 l 901 420 q 852 179 901 275 q 720 36 804 82 q 526 -11 636 -11 q 297 36 385 -11 q 167 182 209 83 q 125 436 125 280 l 125 939 m 474 1365 l 598 1365 l 784 1163 l 722 1122 l 536 1259 l 348 1122 l 290 1162 l 474 1365 z "},"Ü":{"ha":1023,"x_min":27,"x_max":1001,"o":"m 273 1236 q 299 1314 273 1282 q 373 1345 326 1345 l 374 1345 q 422 1332 401 1345 q 453 1297 442 1318 q 463 1252 463 1276 q 436 1174 463 1204 q 359 1144 410 1144 l 358 1144 q 297 1171 321 1144 q 273 1236 273 1198 m 612 1236 q 638 1314 612 1282 q 711 1345 665 1345 l 712 1345 q 761 1332 741 1345 q 792 1297 781 1318 q 802 1252 802 1276 q 776 1174 802 1204 q 699 1144 749 1144 l 698 1144 q 636 1171 660 1144 q 612 1236 612 1198 m 125 939 l 27 957 l 27 1032 l 406 1032 l 406 957 l 290 939 l 290 420 q 357 152 290 233 q 545 70 423 70 q 726 159 665 70 q 788 413 788 248 l 788 939 l 676 957 l 676 1032 l 1001 1032 l 1001 957 l 901 939 l 901 420 q 852 179 901 275 q 720 36 804 82 q 526 -11 636 -11 q 297 36 385 -11 q 167 182 209 83 q 125 436 125 280 l 125 939 z "},"Ù":{"ha":1023,"x_min":27,"x_max":1001,"o":"m 427 1364 l 427 1364 l 652 1154 l 597 1107 l 597 1107 q 506 1147 564 1118 q 397 1212 449 1177 q 323 1278 345 1248 l 427 1364 m 125 939 l 27 957 l 27 1032 l 406 1032 l 406 957 l 290 939 l 290 420 q 357 152 290 233 q 545 70 423 70 q 726 159 665 70 q 788 413 788 248 l 788 939 l 676 957 l 676 1032 l 1001 1032 l 1001 957 l 901 939 l 901 420 q 852 179 901 275 q 720 36 804 82 q 526 -11 636 -11 q 297 36 385 -11 q 167 182 209 83 q 125 436 125 280 l 125 939 z "},"Ű":{"ha":1023,"x_min":27,"x_max":1001,"o":"m 125 939 l 27 957 l 27 1032 l 406 1032 l 406 957 l 290 939 l 290 420 q 357 152 290 233 q 545 70 423 70 q 726 159 665 70 q 788 413 788 248 l 788 939 l 676 957 l 676 1032 l 1001 1032 l 1001 957 l 901 939 l 901 420 q 852 179 901 275 q 720 36 804 82 q 526 -11 636 -11 q 297 36 385 -11 q 167 182 209 83 q 125 436 125 280 l 125 939 m 468 1366 l 566 1284 q 461 1188 523 1235 q 344 1110 399 1141 l 279 1166 l 468 1366 m 822 1364 l 913 1283 q 809 1189 874 1238 q 687 1110 743 1140 l 623 1166 l 822 1364 z "},"Ū":{"ha":1023,"x_min":27,"x_max":1001,"o":"m 733 1291 l 733 1184 l 347 1184 l 347 1291 l 733 1291 m 125 939 l 27 957 l 27 1032 l 406 1032 l 406 957 l 290 939 l 290 420 q 357 152 290 233 q 545 70 423 70 q 726 159 665 70 q 788 413 788 248 l 788 939 l 676 957 l 676 1032 l 1001 1032 l 1001 957 l 901 939 l 901 420 q 852 179 901 275 q 720 36 804 82 q 526 -11 636 -11 q 297 36 385 -11 q 167 182 209 83 q 125 436 125 280 l 125 939 z "},"Ų":{"ha":1023,"x_min":27,"x_max":1001,"o":"m 125 939 l 27 957 l 27 1032 l 406 1032 l 406 957 l 290 939 l 290 420 q 357 152 290 233 q 545 70 423 70 q 726 159 665 70 q 788 413 788 248 l 788 939 l 676 957 l 676 1032 l 1001 1032 l 1001 957 l 901 939 l 901 420 q 837 151 901 253 q 663 10 774 48 q 559 -76 600 -28 q 518 -163 518 -123 q 546 -226 518 -205 q 618 -248 574 -248 q 713 -225 662 -248 l 713 -299 q 641 -334 685 -321 q 553 -347 596 -347 q 428 -315 478 -347 q 377 -214 377 -283 q 400 -139 377 -178 q 461 -66 423 -100 q 544 -10 499 -33 q 526 -11 538 -11 q 297 36 385 -11 q 167 182 209 83 q 125 436 125 280 l 125 939 z "},"Ů":{"ha":1023,"x_min":27,"x_max":1001,"o":"m 125 939 l 27 957 l 27 1032 l 406 1032 l 406 957 l 290 939 l 290 420 q 357 152 290 233 q 545 70 423 70 q 726 159 665 70 q 788 413 788 248 l 788 939 l 676 957 l 676 1032 l 1001 1032 l 1001 957 l 901 939 l 901 420 q 852 179 901 275 q 720 36 804 82 q 526 -11 636 -11 q 297 36 385 -11 q 167 182 209 83 q 125 436 125 280 l 125 939 m 312 1259 q 345 1354 312 1314 q 430 1413 377 1393 q 545 1434 484 1434 l 546 1434 q 666 1412 616 1434 q 739 1351 715 1390 q 764 1261 764 1312 q 733 1168 764 1207 q 651 1109 703 1129 q 536 1088 599 1088 l 536 1088 q 411 1111 461 1088 q 336 1172 360 1133 q 312 1259 312 1211 m 540 1156 q 628 1181 601 1156 q 656 1255 656 1206 q 628 1335 656 1304 q 541 1366 600 1366 l 540 1366 q 421 1263 421 1366 q 451 1187 421 1218 q 539 1156 480 1156 l 540 1156 z "},"Ũ":{"ha":1023,"x_min":27,"x_max":1001,"o":"m 418 1255 q 359 1235 382 1255 q 326 1196 337 1214 q 312 1175 315 1179 l 247 1217 q 284 1283 257 1250 q 352 1339 311 1317 q 441 1362 393 1362 q 493 1353 470 1362 q 534 1331 517 1343 q 574 1297 551 1318 q 621 1261 602 1272 q 663 1249 639 1249 q 719 1269 699 1249 q 749 1307 739 1289 q 762 1331 760 1326 l 829 1287 q 760 1183 806 1225 q 648 1142 715 1142 q 579 1158 608 1142 q 515 1205 550 1175 q 464 1243 485 1231 q 418 1255 444 1255 m 125 939 l 27 957 l 27 1032 l 406 1032 l 406 957 l 290 939 l 290 420 q 357 152 290 233 q 545 70 423 70 q 726 159 665 70 q 788 413 788 248 l 788 939 l 676 957 l 676 1032 l 1001 1032 l 1001 957 l 901 939 l 901 420 q 852 179 901 275 q 720 36 804 82 q 526 -11 636 -11 q 297 36 385 -11 q 167 182 209 83 q 125 436 125 280 l 125 939 z "},"V":{"ha":927,"x_min":-23,"x_max":955,"o":"m -23 957 l -23 1032 l 357 1032 l 357 957 l 233 940 l 456 294 l 502 136 l 542 296 l 747 939 l 642 957 l 642 1032 l 955 1032 l 955 957 l 865 939 l 538 -10 l 411 -10 l 63 939 l -23 957 z "},"W":{"ha":1388,"x_min":-30,"x_max":1415,"o":"m -30 957 l -30 1032 l 349 1032 l 349 957 l 225 939 l 414 297 l 450 113 l 491 297 l 646 820 l 608 939 l 513 957 l 513 1032 l 905 1032 l 905 957 l 774 939 l 960 297 l 1002 98 l 1038 297 l 1215 939 l 1078 957 l 1078 1032 l 1415 1032 l 1415 957 l 1325 939 l 1045 -7 l 899 -7 l 694 669 l 494 -7 l 354 -7 l 61 939 l -30 957 z "},"Ẃ":{"ha":1388,"x_min":-30,"x_max":1415,"o":"m 821 1364 l 822 1364 l 926 1278 q 849 1211 901 1246 q 741 1146 797 1175 q 652 1107 684 1118 l 651 1107 l 597 1154 l 821 1364 m -30 957 l -30 1032 l 349 1032 l 349 957 l 225 939 l 414 297 l 450 113 l 491 297 l 646 820 l 608 939 l 513 957 l 513 1032 l 905 1032 l 905 957 l 774 939 l 960 297 l 1002 98 l 1038 297 l 1215 939 l 1078 957 l 1078 1032 l 1415 1032 l 1415 957 l 1325 939 l 1045 -7 l 899 -7 l 694 669 l 494 -7 l 354 -7 l 61 939 l -30 957 z "},"Ŵ":{"ha":1388,"x_min":-30,"x_max":1415,"o":"m -30 957 l -30 1032 l 349 1032 l 349 957 l 225 939 l 414 297 l 450 113 l 491 297 l 646 820 l 608 939 l 513 957 l 513 1032 l 905 1032 l 905 957 l 774 939 l 960 297 l 1002 98 l 1038 297 l 1215 939 l 1078 957 l 1078 1032 l 1415 1032 l 1415 957 l 1325 939 l 1045 -7 l 899 -7 l 694 669 l 494 -7 l 354 -7 l 61 939 l -30 957 m 632 1365 l 756 1365 l 942 1163 l 880 1122 l 694 1259 l 506 1122 l 448 1162 l 632 1365 z "},"Ẅ":{"ha":1388,"x_min":-30,"x_max":1415,"o":"m 431 1236 q 457 1314 431 1282 q 530 1345 483 1345 l 531 1345 q 579 1332 559 1345 q 610 1297 600 1318 q 621 1252 621 1276 q 594 1174 621 1204 q 516 1144 567 1144 l 515 1144 q 454 1171 478 1144 q 431 1236 431 1198 m 770 1236 q 796 1314 770 1282 q 869 1345 822 1345 l 869 1345 q 918 1332 898 1345 q 949 1297 939 1318 q 960 1252 960 1276 q 933 1174 960 1204 q 856 1144 907 1144 l 855 1144 q 793 1171 817 1144 q 770 1236 770 1198 m -30 957 l -30 1032 l 349 1032 l 349 957 l 225 939 l 414 297 l 450 113 l 491 297 l 646 820 l 608 939 l 513 957 l 513 1032 l 905 1032 l 905 957 l 774 939 l 960 297 l 1002 98 l 1038 297 l 1215 939 l 1078 957 l 1078 1032 l 1415 1032 l 1415 957 l 1325 939 l 1045 -7 l 899 -7 l 694 669 l 494 -7 l 354 -7 l 61 939 l -30 957 z "},"Ẁ":{"ha":1388,"x_min":-30,"x_max":1415,"o":"m 582 1364 l 583 1364 l 807 1154 l 753 1107 l 752 1107 q 662 1147 719 1118 q 552 1212 604 1177 q 479 1278 500 1248 l 582 1364 m -30 957 l -30 1032 l 349 1032 l 349 957 l 225 939 l 414 297 l 450 113 l 491 297 l 646 820 l 608 939 l 513 957 l 513 1032 l 905 1032 l 905 957 l 774 939 l 960 297 l 1002 98 l 1038 297 l 1215 939 l 1078 957 l 1078 1032 l 1415 1032 l 1415 957 l 1325 939 l 1045 -7 l 899 -7 l 694 669 l 494 -7 l 354 -7 l 61 939 l -30 957 z "},"X":{"ha":991,"x_min":8,"x_max":992,"o":"m 127 90 l 414 515 l 130 939 l 28 957 l 28 1032 l 444 1032 l 444 957 l 321 939 l 531 600 l 739 939 l 621 957 l 621 1032 l 966 1032 l 966 957 l 857 939 l 579 543 l 886 90 l 992 74 l 992 0 l 576 0 l 576 74 l 694 90 l 465 456 l 250 90 l 382 74 l 382 0 l 8 0 l 8 74 l 127 90 z "},"Y":{"ha":893,"x_min":-19,"x_max":914,"o":"m 374 90 l 374 401 l 68 939 l -19 957 l -19 1032 l 353 1032 l 353 957 l 248 939 l 439 571 l 477 473 l 522 570 l 703 940 l 593 957 l 593 1032 l 914 1032 l 914 957 l 824 940 l 539 405 l 539 90 l 691 74 l 691 0 l 226 0 l 226 74 l 374 90 z "},"Ý":{"ha":893,"x_min":-19,"x_max":914,"o":"m 374 90 l 374 401 l 68 939 l -19 957 l -19 1032 l 353 1032 l 353 957 l 248 939 l 439 571 l 477 473 l 522 570 l 703 940 l 593 957 l 593 1032 l 914 1032 l 914 957 l 824 940 l 539 405 l 539 90 l 691 74 l 691 0 l 226 0 l 226 74 l 374 90 m 591 1364 l 591 1364 l 695 1278 q 618 1211 671 1246 q 510 1146 566 1175 q 421 1107 454 1118 l 420 1107 l 366 1154 l 591 1364 z "},"Ŷ":{"ha":893,"x_min":-19,"x_max":914,"o":"m 374 90 l 374 401 l 68 939 l -19 957 l -19 1032 l 353 1032 l 353 957 l 248 939 l 439 571 l 477 473 l 522 570 l 703 940 l 593 957 l 593 1032 l 914 1032 l 914 957 l 824 940 l 539 405 l 539 90 l 691 74 l 691 0 l 226 0 l 226 74 l 374 90 m 401 1365 l 526 1365 l 711 1163 l 649 1122 l 464 1259 l 275 1122 l 218 1162 l 401 1365 z "},"Ÿ":{"ha":893,"x_min":-19,"x_max":914,"o":"m 374 90 l 374 401 l 68 939 l -19 957 l -19 1032 l 353 1032 l 353 957 l 248 939 l 439 571 l 477 473 l 522 570 l 703 940 l 593 957 l 593 1032 l 914 1032 l 914 957 l 824 940 l 539 405 l 539 90 l 691 74 l 691 0 l 226 0 l 226 74 l 374 90 m 200 1236 q 226 1314 200 1282 q 300 1345 252 1345 l 300 1345 q 349 1332 328 1345 q 379 1297 369 1318 q 390 1252 390 1276 q 363 1174 390 1204 q 286 1144 336 1144 l 285 1144 q 224 1171 248 1144 q 200 1236 200 1198 m 539 1236 q 565 1314 539 1282 q 638 1345 591 1345 l 639 1345 q 688 1332 667 1345 q 719 1297 708 1318 q 729 1252 729 1276 q 703 1174 729 1204 q 625 1144 676 1144 l 625 1144 q 563 1171 587 1144 q 539 1236 539 1198 z "},"Ẏ":{"ha":893,"x_min":-19,"x_max":914,"o":"m 374 90 l 374 401 l 68 939 l -19 957 l -19 1032 l 353 1032 l 353 957 l 248 939 l 439 571 l 477 473 l 522 570 l 703 940 l 593 957 l 593 1032 l 914 1032 l 914 957 l 824 940 l 539 405 l 539 90 l 691 74 l 691 0 l 226 0 l 226 74 l 374 90 m 368 1240 q 395 1316 368 1285 q 469 1347 421 1347 l 469 1347 q 537 1319 512 1347 q 562 1254 562 1292 q 535 1178 562 1207 q 457 1148 509 1148 l 456 1148 q 393 1174 417 1148 q 368 1240 368 1200 z "},"Ỳ":{"ha":893,"x_min":-19,"x_max":914,"o":"m 374 90 l 374 401 l 68 939 l -19 957 l -19 1032 l 353 1032 l 353 957 l 248 939 l 439 571 l 477 473 l 522 570 l 703 940 l 593 957 l 593 1032 l 914 1032 l 914 957 l 824 940 l 539 405 l 539 90 l 691 74 l 691 0 l 226 0 l 226 74 l 374 90 m 352 1364 l 353 1364 l 577 1154 l 523 1107 l 522 1107 q 432 1147 489 1118 q 322 1212 374 1177 q 249 1278 271 1248 l 352 1364 z "},"Z":{"ha":913,"x_min":44,"x_max":852,"o":"m 582 867 l 658 959 l 269 944 l 193 764 l 109 776 l 138 1036 l 812 1036 l 846 971 l 317 173 l 231 79 l 687 106 l 764 316 l 852 298 l 819 0 l 84 0 l 44 66 l 582 867 z "},"Ź":{"ha":913,"x_min":44,"x_max":852,"o":"m 582 867 l 658 959 l 269 944 l 193 764 l 109 776 l 138 1036 l 812 1036 l 846 971 l 317 173 l 231 79 l 687 106 l 764 316 l 852 298 l 819 0 l 84 0 l 44 66 l 582 867 m 608 1364 l 609 1364 l 713 1278 q 636 1211 688 1246 q 528 1146 584 1175 q 439 1107 471 1118 l 438 1107 l 384 1154 l 608 1364 z "},"Ž":{"ha":913,"x_min":44,"x_max":852,"o":"m 310 1365 l 483 1237 l 662 1365 l 720 1325 l 545 1137 l 421 1137 l 248 1324 l 310 1365 m 582 867 l 658 959 l 269 944 l 193 764 l 109 776 l 138 1036 l 812 1036 l 846 971 l 317 173 l 231 79 l 687 106 l 764 316 l 852 298 l 819 0 l 84 0 l 44 66 l 582 867 z "},"Ż":{"ha":913,"x_min":44,"x_max":852,"o":"m 385 1240 q 412 1316 385 1285 q 486 1347 438 1347 l 486 1347 q 554 1319 529 1347 q 579 1254 579 1292 q 552 1178 579 1207 q 474 1148 526 1148 l 473 1148 q 410 1174 434 1148 q 385 1240 385 1200 m 582 867 l 658 959 l 269 944 l 193 764 l 109 776 l 138 1036 l 812 1036 l 846 971 l 317 173 l 231 79 l 687 106 l 764 316 l 852 298 l 819 0 l 84 0 l 44 66 l 582 867 z "},"a":{"ha":779,"x_min":58,"x_max":744,"o":"m 512 504 q 499 604 512 568 q 453 658 486 641 q 361 675 420 675 q 119 610 246 675 l 119 610 l 85 681 q 155 723 103 697 q 273 768 207 749 q 399 787 339 787 q 554 761 498 787 q 636 675 611 734 q 661 515 661 616 l 661 75 l 744 75 l 744 8 q 595 -16 645 -16 q 551 -11 566 -16 q 529 8 536 -6 q 522 54 522 23 l 522 86 q 426 17 486 50 q 292 -16 366 -16 q 174 8 227 -16 q 89 81 121 32 q 58 205 58 131 q 120 353 58 295 q 285 439 183 412 q 512 469 387 467 l 512 504 m 512 392 q 348 369 412 392 q 255 309 284 347 q 227 224 227 272 q 262 120 227 153 q 357 87 297 87 q 434 105 389 87 q 512 149 479 123 l 512 392 z "},"á":{"ha":779,"x_min":58,"x_max":744,"o":"m 512 504 q 499 604 512 568 q 453 658 486 641 q 361 675 420 675 q 119 610 246 675 l 119 610 l 85 681 q 155 723 103 697 q 273 768 207 749 q 399 787 339 787 q 554 761 498 787 q 636 675 611 734 q 661 515 661 616 l 661 75 l 744 75 l 744 8 q 595 -16 645 -16 q 551 -11 566 -16 q 529 8 536 -6 q 522 54 522 23 l 522 86 q 426 17 486 50 q 292 -16 366 -16 q 174 8 227 -16 q 89 81 121 32 q 58 205 58 131 q 120 353 58 295 q 285 439 183 412 q 512 469 387 467 l 512 504 m 512 392 q 348 369 412 392 q 255 309 284 347 q 227 224 227 272 q 262 120 227 153 q 357 87 297 87 q 434 105 389 87 q 512 149 479 123 l 512 392 m 513 1230 l 514 1230 l 622 1136 q 550 1056 604 1106 q 436 961 496 1005 q 346 905 376 917 l 345 905 l 290 955 l 513 1230 z "},"ă":{"ha":779,"x_min":58,"x_max":744,"o":"m 512 504 q 499 604 512 568 q 453 658 486 641 q 361 675 420 675 q 119 610 246 675 l 119 610 l 85 681 q 155 723 103 697 q 273 768 207 749 q 399 787 339 787 q 554 761 498 787 q 636 675 611 734 q 661 515 661 616 l 661 75 l 744 75 l 744 8 q 595 -16 645 -16 q 551 -11 566 -16 q 529 8 536 -6 q 522 54 522 23 l 522 86 q 426 17 486 50 q 292 -16 366 -16 q 174 8 227 -16 q 89 81 121 32 q 58 205 58 131 q 120 353 58 295 q 285 439 183 412 q 512 469 387 467 l 512 504 m 512 392 q 348 369 412 392 q 255 309 284 347 q 227 224 227 272 q 262 120 227 153 q 357 87 297 87 q 434 105 389 87 q 512 149 479 123 l 512 392 m 150 1148 q 153 1189 150 1178 l 233 1189 q 235 1164 233 1175 q 276 1077 241 1115 q 384 1038 311 1038 q 489 1076 456 1038 q 529 1164 522 1114 q 531 1189 531 1180 l 608 1189 q 610 1170 609 1183 q 611 1149 611 1158 q 583 1034 611 1087 q 502 948 554 980 q 382 916 450 916 q 260 948 313 916 q 178 1033 207 980 q 150 1148 150 1086 z "},"ǎ":{"ha":779,"x_min":58,"x_max":744,"o":"m 512 504 q 499 604 512 568 q 453 658 486 641 q 361 675 420 675 q 119 610 246 675 l 119 610 l 85 681 q 155 723 103 697 q 273 768 207 749 q 399 787 339 787 q 554 761 498 787 q 636 675 611 734 q 661 515 661 616 l 661 75 l 744 75 l 744 8 q 595 -16 645 -16 q 551 -11 566 -16 q 529 8 536 -6 q 522 54 522 23 l 522 86 q 426 17 486 50 q 292 -16 366 -16 q 174 8 227 -16 q 89 81 121 32 q 58 205 58 131 q 120 353 58 295 q 285 439 183 412 q 512 469 387 467 l 512 504 m 512 392 q 348 369 412 392 q 255 309 284 347 q 227 224 227 272 q 262 120 227 153 q 357 87 297 87 q 434 105 389 87 q 512 149 479 123 l 512 392 m 191 1220 l 383 1029 l 579 1221 l 635 1180 l 444 910 l 321 910 l 130 1179 l 191 1220 z "},"â":{"ha":779,"x_min":58,"x_max":744,"o":"m 512 504 q 499 604 512 568 q 453 658 486 641 q 361 675 420 675 q 119 610 246 675 l 119 610 l 85 681 q 155 723 103 697 q 273 768 207 749 q 399 787 339 787 q 554 761 498 787 q 636 675 611 734 q 661 515 661 616 l 661 75 l 744 75 l 744 8 q 595 -16 645 -16 q 551 -11 566 -16 q 529 8 536 -6 q 522 54 522 23 l 522 86 q 426 17 486 50 q 292 -16 366 -16 q 174 8 227 -16 q 89 81 121 32 q 58 205 58 131 q 120 353 58 295 q 285 439 183 412 q 512 469 387 467 l 512 504 m 512 392 q 348 369 412 392 q 255 309 284 347 q 227 224 227 272 q 262 120 227 153 q 357 87 297 87 q 434 105 389 87 q 512 149 479 123 l 512 392 m 321 1208 l 443 1208 l 633 938 l 572 899 l 382 1089 l 181 898 l 125 937 l 321 1208 z "},"ä":{"ha":779,"x_min":58,"x_max":744,"o":"m 512 504 q 499 604 512 568 q 453 658 486 641 q 361 675 420 675 q 119 610 246 675 l 119 610 l 85 681 q 155 723 103 697 q 273 768 207 749 q 399 787 339 787 q 554 761 498 787 q 636 675 611 734 q 661 515 661 616 l 661 75 l 744 75 l 744 8 q 595 -16 645 -16 q 551 -11 566 -16 q 529 8 536 -6 q 522 54 522 23 l 522 86 q 426 17 486 50 q 292 -16 366 -16 q 174 8 227 -16 q 89 81 121 32 q 58 205 58 131 q 120 353 58 295 q 285 439 183 412 q 512 469 387 467 l 512 504 m 512 392 q 348 369 412 392 q 255 309 284 347 q 227 224 227 272 q 262 120 227 153 q 357 87 297 87 q 434 105 389 87 q 512 149 479 123 l 512 392 m 130 1012 q 156 1089 130 1057 q 230 1120 182 1120 l 231 1120 q 296 1093 272 1120 q 320 1027 320 1065 q 293 949 320 979 q 216 919 267 919 l 216 919 q 154 945 177 919 q 130 1012 130 972 m 448 1012 q 474 1089 448 1057 q 547 1120 500 1120 l 548 1120 q 614 1093 590 1120 q 638 1027 638 1065 q 611 949 638 979 q 533 919 585 919 l 532 919 q 471 946 495 919 q 448 1012 448 973 z "},"à":{"ha":779,"x_min":58,"x_max":744,"o":"m 512 504 q 499 604 512 568 q 453 658 486 641 q 361 675 420 675 q 119 610 246 675 l 119 610 l 85 681 q 155 723 103 697 q 273 768 207 749 q 399 787 339 787 q 554 761 498 787 q 636 675 611 734 q 661 515 661 616 l 661 75 l 744 75 l 744 8 q 595 -16 645 -16 q 551 -11 566 -16 q 529 8 536 -6 q 522 54 522 23 l 522 86 q 426 17 486 50 q 292 -16 366 -16 q 174 8 227 -16 q 89 81 121 32 q 58 205 58 131 q 120 353 58 295 q 285 439 183 412 q 512 469 387 467 l 512 504 m 512 392 q 348 369 412 392 q 255 309 284 347 q 227 224 227 272 q 262 120 227 153 q 357 87 297 87 q 434 105 389 87 q 512 149 479 123 l 512 392 m 250 1230 l 250 1230 l 474 955 l 418 905 l 418 905 q 329 960 388 916 q 214 1055 269 1004 q 142 1136 159 1105 l 250 1230 z "},"ā":{"ha":779,"x_min":58,"x_max":744,"o":"m 512 504 q 499 604 512 568 q 453 658 486 641 q 361 675 420 675 q 119 610 246 675 l 119 610 l 85 681 q 155 723 103 697 q 273 768 207 749 q 399 787 339 787 q 554 761 498 787 q 636 675 611 734 q 661 515 661 616 l 661 75 l 744 75 l 744 8 q 595 -16 645 -16 q 551 -11 566 -16 q 529 8 536 -6 q 522 54 522 23 l 522 86 q 426 17 486 50 q 292 -16 366 -16 q 174 8 227 -16 q 89 81 121 32 q 58 205 58 131 q 120 353 58 295 q 285 439 183 412 q 512 469 387 467 l 512 504 m 512 392 q 348 369 412 392 q 255 309 284 347 q 227 224 227 272 q 262 120 227 153 q 357 87 297 87 q 434 105 389 87 q 512 149 479 123 l 512 392 m 571 1076 l 571 968 l 193 968 l 193 1076 l 571 1076 z "},"ą":{"ha":779,"x_min":58,"x_max":744,"o":"m 512 504 q 499 604 512 568 q 453 658 486 641 q 361 675 420 675 q 119 610 246 675 l 119 610 l 85 681 q 155 723 103 697 q 273 768 207 749 q 399 787 339 787 q 554 761 498 787 q 636 675 611 734 q 661 515 661 616 l 661 75 l 744 75 l 744 8 q 709 0 730 4 q 621 -46 661 -17 q 556 -107 580 -75 q 532 -165 532 -139 q 559 -227 532 -207 q 631 -248 587 -248 q 727 -225 675 -248 l 727 -300 q 654 -334 699 -321 q 566 -347 610 -347 q 441 -314 491 -347 q 391 -214 391 -281 q 415 -143 391 -180 q 480 -72 439 -106 q 570 -14 522 -38 q 533 3 544 -12 q 522 54 522 17 l 522 86 q 426 17 486 50 q 292 -16 366 -16 q 174 8 227 -16 q 89 81 121 32 q 58 205 58 131 q 120 353 58 295 q 285 439 183 412 q 512 469 387 467 l 512 504 m 512 392 q 348 369 412 392 q 255 309 284 347 q 227 224 227 272 q 262 120 227 153 q 357 87 297 87 q 434 105 389 87 q 512 149 479 123 l 512 392 z "},"å":{"ha":779,"x_min":58,"x_max":744,"o":"m 512 504 q 499 604 512 568 q 453 658 486 641 q 361 675 420 675 q 119 610 246 675 l 119 610 l 85 681 q 155 723 103 697 q 273 768 207 749 q 399 787 339 787 q 554 761 498 787 q 636 675 611 734 q 661 515 661 616 l 661 75 l 744 75 l 744 8 q 595 -16 645 -16 q 551 -11 566 -16 q 529 8 536 -6 q 522 54 522 23 l 522 86 q 426 17 486 50 q 292 -16 366 -16 q 174 8 227 -16 q 89 81 121 32 q 58 205 58 131 q 120 353 58 295 q 285 439 183 412 q 512 469 387 467 l 512 504 m 512 392 q 348 369 412 392 q 255 309 284 347 q 227 224 227 272 q 262 120 227 153 q 357 87 297 87 q 434 105 389 87 q 512 149 479 123 l 512 392 m 155 1080 q 188 1182 155 1139 q 275 1247 221 1225 q 389 1270 329 1270 l 389 1270 q 507 1245 458 1270 q 581 1178 556 1221 q 606 1081 606 1135 q 575 978 606 1021 q 493 911 545 934 q 379 888 441 888 l 378 888 q 254 913 304 888 q 179 982 203 938 q 155 1080 155 1025 m 383 960 q 472 988 445 960 q 500 1075 500 1017 q 471 1162 500 1128 q 384 1196 443 1196 l 383 1196 q 293 1166 323 1196 q 262 1084 262 1137 q 293 995 262 1031 q 382 960 323 960 l 383 960 z "},"ã":{"ha":779,"x_min":58,"x_max":744,"o":"m 512 504 q 499 604 512 568 q 453 658 486 641 q 361 675 420 675 q 119 610 246 675 l 119 610 l 85 681 q 155 723 103 697 q 273 768 207 749 q 399 787 339 787 q 554 761 498 787 q 636 675 611 734 q 661 515 661 616 l 661 75 l 744 75 l 744 8 q 595 -16 645 -16 q 551 -11 566 -16 q 529 8 536 -6 q 522 54 522 23 l 522 86 q 426 17 486 50 q 292 -16 366 -16 q 174 8 227 -16 q 89 81 121 32 q 58 205 58 131 q 120 353 58 295 q 285 439 183 412 q 512 469 387 467 l 512 504 m 512 392 q 348 369 412 392 q 255 309 284 347 q 227 224 227 272 q 262 120 227 153 q 357 87 297 87 q 434 105 389 87 q 512 149 479 123 l 512 392 m 93 982 q 130 1048 103 1015 q 198 1104 157 1082 q 288 1127 239 1127 q 339 1118 316 1127 q 379 1096 363 1109 q 419 1063 396 1084 q 465 1026 447 1038 q 507 1015 484 1015 q 555 1028 535 1015 q 585 1056 575 1042 q 607 1094 594 1070 l 673 1052 q 604 948 650 989 q 492 906 559 906 q 441 915 464 906 q 401 936 418 924 q 360 968 384 948 q 310 1007 331 994 q 264 1019 290 1019 q 215 1006 236 1019 q 184 978 195 992 q 159 940 174 964 l 93 982 z "},"æ":{"ha":1208,"x_min":56,"x_max":1154,"o":"m 572 132 q 508 63 547 97 q 412 7 468 30 q 290 -16 356 -16 q 173 8 227 -16 q 88 81 120 32 q 56 204 56 131 q 118 353 56 295 q 282 438 180 411 q 507 467 383 465 l 507 509 q 494 608 507 572 q 450 660 481 644 q 359 676 418 676 q 232 658 291 676 q 110 610 173 640 l 76 680 q 150 724 97 698 q 270 768 203 749 q 397 787 336 787 q 542 764 488 787 q 623 690 596 741 q 735 766 671 739 q 876 792 800 792 q 1077 721 1005 792 q 1154 515 1149 650 q 1152 437 1154 468 q 1145 382 1150 406 l 675 382 q 709 217 677 283 q 791 120 740 151 q 905 89 842 89 q 1020 108 961 89 q 1112 153 1079 127 l 1140 87 q 1069 37 1114 61 q 969 -1 1024 14 q 859 -16 913 -16 q 688 23 760 -16 q 572 132 616 61 m 991 461 q 993 519 993 489 q 957 658 992 606 q 846 710 922 710 q 726 653 770 710 q 675 461 681 597 l 991 461 m 543 195 q 511 387 511 278 l 511 389 l 507 393 l 507 394 q 347 371 410 394 q 254 310 283 348 q 224 225 224 272 q 259 120 224 153 q 353 87 294 87 q 431 103 393 87 q 498 145 469 120 q 543 195 528 170 z "},"ǽ":{"ha":1196,"x_min":58,"x_max":1156,"o":"m 751 1230 l 752 1230 l 860 1136 q 788 1056 842 1106 q 674 961 734 1005 q 584 905 614 917 l 583 905 l 528 955 l 751 1230 m 574 132 q 510 63 549 97 q 414 7 470 30 q 292 -16 358 -16 q 175 8 229 -16 q 90 81 122 32 q 58 204 58 131 q 120 353 58 295 q 284 438 182 411 q 509 467 385 465 l 509 509 q 496 608 509 572 q 452 660 484 644 q 361 676 420 676 q 234 658 293 676 q 112 610 175 640 l 78 680 q 152 724 99 698 q 272 768 205 749 q 399 787 338 787 q 544 764 490 787 q 625 690 598 741 q 738 766 673 739 q 878 792 802 792 q 1079 721 1007 792 q 1156 515 1151 650 q 1154 437 1156 468 q 1147 382 1152 406 l 677 382 q 711 217 680 283 q 793 120 742 151 q 907 89 844 89 q 1022 108 963 89 q 1114 153 1081 127 l 1142 87 q 1071 37 1116 61 q 971 -1 1026 14 q 861 -16 916 -16 q 690 23 762 -16 q 574 132 618 61 m 993 461 q 995 519 995 489 q 959 658 994 606 q 848 710 924 710 q 728 653 772 710 q 677 461 683 597 l 993 461 m 545 195 q 513 387 513 278 l 513 389 l 509 393 l 509 394 q 349 371 412 394 q 256 310 286 348 q 227 225 227 272 q 261 120 227 153 q 355 87 296 87 q 433 103 395 87 q 500 145 471 120 q 545 195 530 170 z "},"b":{"ha":842,"x_min":-3,"x_max":784,"o":"m -3 1046 l -3 1109 l 225 1139 l 229 1139 l 262 1116 l 262 701 q 358 766 302 741 q 481 792 414 792 q 633 752 564 792 q 743 627 701 712 q 784 413 784 542 q 735 196 784 294 q 595 41 686 98 q 382 -16 504 -16 q 257 -6 317 -16 q 158 16 198 3 q 109 38 118 28 l 109 1032 l -3 1046 m 262 106 q 308 74 271 86 q 393 62 345 62 q 510 100 459 62 q 589 212 560 137 q 617 397 617 287 q 592 559 617 494 q 522 656 566 625 q 419 687 477 687 q 329 665 370 687 q 262 615 288 643 l 262 106 z "},"ḃ":{"ha":842,"x_min":-3,"x_max":784,"o":"m -3 1046 l -3 1109 l 225 1139 l 229 1139 l 262 1116 l 262 701 q 358 766 302 741 q 481 792 414 792 q 633 752 564 792 q 743 627 701 712 q 784 413 784 542 q 735 196 784 294 q 595 41 686 98 q 382 -16 504 -16 q 257 -6 317 -16 q 158 16 198 3 q 109 38 118 28 l 109 1032 l -3 1046 m 262 106 q 308 74 271 86 q 393 62 345 62 q 510 100 459 62 q 589 212 560 137 q 617 397 617 287 q 592 559 617 494 q 522 656 566 625 q 419 687 477 687 q 329 665 370 687 q 262 615 288 643 l 262 106 m 424 1010 q 451 1088 424 1056 q 526 1120 477 1120 l 526 1120 q 576 1106 555 1120 q 608 1072 597 1093 q 619 1025 619 1050 q 592 947 619 978 q 513 917 565 917 l 513 917 q 449 943 473 917 q 424 1010 424 970 z "},"c":{"ha":710,"x_min":52,"x_max":663,"o":"m 443 792 q 652 750 541 792 l 645 541 l 551 541 l 519 668 q 482 701 510 690 q 414 712 454 712 q 311 679 355 712 q 242 581 267 646 q 218 419 218 515 q 247 233 218 307 q 326 124 276 159 q 439 89 376 89 q 548 106 498 89 q 633 149 598 123 l 663 86 q 597 38 638 61 q 506 -1 557 14 q 405 -16 456 -16 q 211 35 290 -16 q 92 175 132 86 q 52 376 52 263 q 97 586 52 492 q 230 736 142 681 q 443 792 318 792 z "},"ć":{"ha":710,"x_min":52,"x_max":663,"o":"m 532 1230 l 533 1230 l 641 1136 q 569 1056 623 1106 q 455 961 515 1005 q 365 905 395 917 l 363 905 l 309 955 l 532 1230 m 443 792 q 652 750 541 792 l 645 541 l 551 541 l 519 668 q 482 701 510 690 q 414 712 454 712 q 311 679 355 712 q 242 581 267 646 q 218 419 218 515 q 247 233 218 307 q 326 124 276 159 q 439 89 376 89 q 548 106 498 89 q 633 149 598 123 l 663 86 q 597 38 638 61 q 506 -1 557 14 q 405 -16 456 -16 q 211 35 290 -16 q 92 175 132 86 q 52 376 52 263 q 97 586 52 492 q 230 736 142 681 q 443 792 318 792 z "},"č":{"ha":710,"x_min":52,"x_max":663,"o":"m 212 1220 l 405 1029 l 601 1221 l 657 1180 l 465 910 l 343 910 l 152 1179 l 212 1220 m 443 792 q 652 750 541 792 l 645 541 l 551 541 l 519 668 q 482 701 510 690 q 414 712 454 712 q 311 679 355 712 q 242 581 267 646 q 218 419 218 515 q 247 233 218 307 q 326 124 276 159 q 439 89 376 89 q 548 106 498 89 q 633 149 598 123 l 663 86 q 597 38 638 61 q 506 -1 557 14 q 405 -16 456 -16 q 211 35 290 -16 q 92 175 132 86 q 52 376 52 263 q 97 586 52 492 q 230 736 142 681 q 443 792 318 792 z "},"ç":{"ha":710,"x_min":52,"x_max":663,"o":"m 663 86 q 563 20 628 50 q 429 -15 498 -9 q 479 -95 457 -48 q 502 -190 502 -142 q 457 -302 502 -269 q 323 -335 412 -335 l 322 -335 q 270 -330 298 -335 q 224 -317 242 -325 l 225 -213 q 256 -220 238 -218 q 283 -222 273 -222 l 284 -222 q 339 -216 319 -222 q 370 -189 359 -210 q 380 -127 380 -168 q 370 -67 380 -99 q 347 -12 359 -36 q 184 54 250 1 q 85 190 118 107 q 52 376 52 273 q 97 586 52 492 q 230 736 142 681 q 443 792 318 792 q 652 750 541 792 l 645 541 l 551 541 l 519 668 q 482 701 510 690 q 414 712 454 712 q 311 679 355 712 q 242 581 267 646 q 218 419 218 515 q 247 233 218 307 q 326 124 276 159 q 439 89 376 89 q 548 106 498 89 q 633 149 598 123 l 663 86 z "},"ĉ":{"ha":710,"x_min":52,"x_max":663,"o":"m 342 1208 l 465 1208 l 655 938 l 594 899 l 404 1089 l 203 898 l 147 937 l 342 1208 m 443 792 q 652 750 541 792 l 645 541 l 551 541 l 519 668 q 482 701 510 690 q 414 712 454 712 q 311 679 355 712 q 242 581 267 646 q 218 419 218 515 q 247 233 218 307 q 326 124 276 159 q 439 89 376 89 q 548 106 498 89 q 633 149 598 123 l 663 86 q 597 38 638 61 q 506 -1 557 14 q 405 -16 456 -16 q 211 35 290 -16 q 92 175 132 86 q 52 376 52 263 q 97 586 52 492 q 230 736 142 681 q 443 792 318 792 z "},"ċ":{"ha":710,"x_min":52,"x_max":663,"o":"m 443 792 q 652 750 541 792 l 645 541 l 551 541 l 519 668 q 482 701 510 690 q 414 712 454 712 q 311 679 355 712 q 242 581 267 646 q 218 419 218 515 q 247 233 218 307 q 326 124 276 159 q 439 89 376 89 q 548 106 498 89 q 633 149 598 123 l 663 86 q 597 38 638 61 q 506 -1 557 14 q 405 -16 456 -16 q 211 35 290 -16 q 92 175 132 86 q 52 376 52 263 q 97 586 52 492 q 230 736 142 681 q 443 792 318 792 m 301 1010 q 328 1088 301 1056 q 403 1120 355 1120 l 404 1120 q 453 1106 432 1120 q 485 1072 474 1093 q 496 1025 496 1050 q 469 947 496 978 q 391 917 442 917 l 390 917 q 326 943 351 917 q 301 1010 301 970 z "},"d":{"ha":863,"x_min":58,"x_max":814,"o":"m 58 368 q 106 583 58 486 q 245 736 154 680 q 458 792 336 792 q 581 779 517 792 l 581 1032 l 444 1046 l 444 1112 l 697 1139 l 701 1139 l 734 1114 l 734 79 l 814 79 l 814 8 q 736 -9 770 -3 q 665 -16 702 -16 q 624 -11 639 -16 q 601 10 608 -5 q 593 54 593 25 l 593 90 q 492 15 551 45 q 360 -16 433 -16 q 208 27 277 -16 q 99 156 140 69 q 58 368 58 242 m 581 671 q 532 700 570 688 q 448 712 493 712 q 286 631 347 712 q 224 378 224 551 q 251 215 224 280 q 321 120 277 151 q 422 89 366 89 q 513 111 472 89 q 581 161 555 132 l 581 671 z "},"ð":{"ha":806,"x_min":54,"x_max":756,"o":"m 258 1080 q 180 1123 222 1103 q 112 1151 139 1143 l 142 1225 q 229 1195 191 1211 q 314 1153 267 1179 q 367 1220 343 1190 q 399 1261 391 1251 l 465 1206 q 436 1170 458 1197 q 387 1110 414 1143 q 579 936 496 1036 q 709 713 663 836 q 756 452 756 591 q 721 226 756 332 q 606 52 685 120 q 405 -16 527 -16 q 210 33 288 -16 q 92 166 131 81 q 54 363 54 251 q 103 597 54 500 q 234 743 153 694 q 412 792 316 792 q 541 767 479 792 q 455 912 511 842 q 326 1031 398 983 l 235 920 l 165 970 l 258 1080 m 591 437 q 583 562 591 506 q 564 652 574 618 q 509 696 547 677 q 416 715 471 715 q 313 676 357 715 q 246 560 269 636 q 223 377 223 484 q 242 222 223 292 q 303 110 261 153 q 410 67 345 67 q 547 160 503 67 q 591 437 591 252 z "},"ď":{"ha":1000,"x_min":58,"x_max":1025,"o":"m 58 368 q 106 583 58 486 q 245 736 154 680 q 458 792 336 792 q 581 779 517 792 l 581 1032 l 444 1046 l 444 1112 l 697 1139 l 701 1139 l 734 1114 l 734 79 l 814 79 l 814 8 q 736 -9 770 -3 q 665 -16 702 -16 q 624 -11 639 -16 q 601 10 608 -5 q 593 54 593 25 l 593 90 q 492 15 551 45 q 360 -16 433 -16 q 208 27 277 -16 q 99 156 140 69 q 58 368 58 242 m 581 671 q 532 700 570 688 q 448 712 493 712 q 286 631 347 712 q 224 378 224 551 q 251 215 224 280 q 321 120 277 151 q 422 89 366 89 q 513 111 472 89 q 581 161 555 132 l 581 671 m 873 736 q 895 913 895 814 q 884 1022 895 972 q 859 1088 872 1072 l 869 1116 l 983 1143 q 1014 1077 1002 1124 q 1025 977 1025 1030 q 1013 862 1025 920 q 981 760 1001 804 q 941 696 962 716 l 876 720 l 873 736 z "},"đ":{"ha":862,"x_min":56,"x_max":831,"o":"m 579 954 l 579 1032 l 443 1046 l 443 1112 l 696 1139 l 700 1139 l 733 1114 l 733 954 l 831 954 l 831 875 l 733 875 l 733 79 l 813 79 l 813 8 q 735 -9 769 -3 q 664 -16 701 -16 q 622 -11 637 -16 q 599 10 607 -5 q 591 54 591 25 l 591 90 q 491 15 550 45 q 359 -16 431 -16 q 207 27 275 -16 q 97 156 138 69 q 56 368 56 242 q 104 583 56 486 q 243 736 153 680 q 456 792 334 792 q 579 779 516 792 l 579 875 l 408 875 l 408 954 l 579 954 m 579 671 q 530 700 569 688 q 447 712 492 712 q 284 631 345 712 q 223 378 223 551 q 249 215 223 280 q 320 120 275 151 q 421 89 364 89 q 512 111 471 89 q 579 161 553 132 l 579 671 z "},"ḋ":{"ha":863,"x_min":58,"x_max":814,"o":"m 58 368 q 106 583 58 486 q 245 736 154 680 q 458 792 336 792 q 581 779 517 792 l 581 1032 l 444 1046 l 444 1112 l 697 1139 l 701 1139 l 734 1114 l 734 79 l 814 79 l 814 8 q 736 -9 770 -3 q 665 -16 702 -16 q 624 -11 639 -16 q 601 10 608 -5 q 593 54 593 25 l 593 90 q 492 15 551 45 q 360 -16 433 -16 q 208 27 277 -16 q 99 156 140 69 q 58 368 58 242 m 581 671 q 532 700 570 688 q 448 712 493 712 q 286 631 347 712 q 224 378 224 551 q 251 215 224 280 q 321 120 277 151 q 422 89 366 89 q 513 111 472 89 q 581 161 555 132 l 581 671 m 132 1010 q 159 1088 132 1056 q 234 1120 186 1120 l 235 1120 q 284 1106 263 1120 q 316 1072 305 1093 q 328 1025 328 1050 q 300 947 328 978 q 222 917 273 917 l 221 917 q 157 943 182 917 q 132 1010 132 970 z "},"ǳ":{"ha":1634,"x_min":58,"x_max":1579,"o":"m 58 368 q 106 583 58 486 q 245 736 154 680 q 458 792 336 792 q 581 779 517 792 l 581 1032 l 444 1046 l 444 1112 l 697 1139 l 701 1139 l 734 1114 l 734 79 l 814 79 l 814 8 q 736 -9 770 -3 q 665 -16 702 -16 q 624 -11 639 -16 q 601 10 608 -5 q 593 54 593 25 l 593 90 q 492 15 551 45 q 360 -16 433 -16 q 208 27 277 -16 q 99 156 140 69 q 58 368 58 242 m 581 671 q 532 700 570 688 q 448 712 493 712 q 286 631 347 712 q 224 378 224 551 q 251 215 224 280 q 321 120 277 151 q 422 89 366 89 q 513 111 472 89 q 581 161 555 132 l 581 671 m 1396 688 l 1081 678 l 1055 549 l 962 549 l 962 771 l 1547 771 l 1575 709 l 1179 169 l 1090 82 l 1440 97 l 1491 244 l 1579 234 l 1559 0 l 935 0 l 905 64 l 1308 599 l 1396 688 z "},"ǆ":{"ha":1636,"x_min":58,"x_max":1580,"o":"m 1076 1220 l 1269 1029 l 1465 1221 l 1521 1180 l 1329 910 l 1207 910 l 1016 1179 l 1076 1220 m 1397 688 l 1082 678 l 1055 549 l 962 549 l 962 771 l 1548 771 l 1576 709 l 1179 169 l 1090 82 l 1440 97 l 1492 244 l 1580 234 l 1560 0 l 936 0 l 905 64 l 1308 599 l 1397 688 m 58 368 q 106 583 58 486 q 245 736 154 680 q 458 792 336 792 q 581 779 517 792 l 581 1032 l 444 1046 l 444 1112 l 697 1139 l 701 1139 l 734 1114 l 734 79 l 814 79 l 814 8 q 736 -9 770 -3 q 665 -16 702 -16 q 624 -11 639 -16 q 601 10 608 -5 q 593 54 593 25 l 593 90 q 492 15 551 45 q 360 -16 433 -16 q 208 27 277 -16 q 99 156 140 69 q 58 368 58 242 m 581 671 q 532 700 570 688 q 448 712 493 712 q 286 631 347 712 q 224 378 224 551 q 251 215 224 280 q 321 120 277 151 q 422 89 366 89 q 513 111 472 89 q 581 161 555 132 l 581 671 z "},"e":{"ha":754,"x_min":58,"x_max":699,"o":"m 58 387 q 104 599 58 507 q 234 742 151 691 q 422 792 317 792 q 623 721 552 792 q 699 515 694 650 l 699 491 q 691 382 699 420 l 221 382 q 255 217 224 283 q 337 120 286 151 q 452 89 388 89 q 566 108 507 89 q 658 153 625 127 l 686 87 q 615 37 661 61 q 515 -1 570 14 q 406 -16 460 -16 q 213 35 292 -16 q 96 176 135 85 q 58 387 58 267 m 536 461 q 539 519 539 486 q 503 658 538 606 q 392 710 468 710 q 272 653 316 710 q 221 461 227 597 l 536 461 z "},"é":{"ha":754,"x_min":58,"x_max":699,"o":"m 530 1230 l 530 1230 l 638 1136 q 566 1056 621 1106 q 452 961 512 1005 q 362 905 393 917 l 361 905 l 306 955 l 530 1230 m 58 387 q 104 599 58 507 q 234 742 151 691 q 422 792 317 792 q 623 721 552 792 q 699 515 694 650 l 699 491 q 691 382 699 420 l 221 382 q 255 217 224 283 q 337 120 286 151 q 452 89 388 89 q 566 108 507 89 q 658 153 625 127 l 686 87 q 615 37 661 61 q 515 -1 570 14 q 406 -16 460 -16 q 213 35 292 -16 q 96 176 135 85 q 58 387 58 267 m 536 461 q 539 519 539 486 q 503 658 538 606 q 392 710 468 710 q 272 653 316 710 q 221 461 227 597 l 536 461 z "},"ĕ":{"ha":754,"x_min":58,"x_max":699,"o":"m 58 387 q 104 599 58 507 q 234 742 151 691 q 422 792 317 792 q 623 721 552 792 q 699 515 694 650 l 699 491 q 691 382 699 420 l 221 382 q 255 217 224 283 q 337 120 286 151 q 452 89 388 89 q 566 108 507 89 q 658 153 625 127 l 686 87 q 615 37 661 61 q 515 -1 570 14 q 406 -16 460 -16 q 213 35 292 -16 q 96 176 135 85 q 58 387 58 267 m 536 461 q 539 519 539 486 q 503 658 538 606 q 392 710 468 710 q 272 653 316 710 q 221 461 227 597 l 536 461 m 166 1148 q 169 1189 166 1178 l 249 1189 q 251 1164 249 1175 q 293 1077 258 1115 q 400 1038 328 1038 q 505 1076 472 1038 q 545 1164 538 1114 q 547 1189 547 1180 l 625 1189 q 626 1170 625 1183 q 627 1149 627 1158 q 599 1034 627 1087 q 518 948 570 980 q 399 916 466 916 q 276 948 329 916 q 195 1033 223 980 q 166 1148 166 1086 z "},"ě":{"ha":754,"x_min":58,"x_max":700,"o":"m 209 1220 l 401 1029 l 597 1221 l 654 1180 l 462 910 l 340 910 l 149 1179 l 209 1220 m 58 387 q 105 599 58 507 q 235 742 152 691 q 422 792 317 792 q 624 721 553 792 q 700 515 695 650 l 700 491 q 692 382 700 420 l 222 382 q 256 217 224 283 q 338 120 287 151 q 452 89 389 89 q 567 108 508 89 q 659 153 625 127 l 687 87 q 616 37 661 61 q 516 -1 571 14 q 406 -16 460 -16 q 214 35 292 -16 q 97 176 136 85 q 58 387 58 267 m 537 461 q 540 519 540 486 q 504 658 539 606 q 393 710 469 710 q 272 653 317 710 q 222 461 228 597 l 537 461 z "},"ê":{"ha":754,"x_min":58,"x_max":699,"o":"m 336 1208 l 458 1208 l 649 938 l 588 899 l 397 1089 l 197 898 l 141 937 l 336 1208 m 58 387 q 104 599 58 507 q 234 742 151 691 q 422 792 317 792 q 623 721 552 792 q 699 515 694 650 l 699 491 q 691 382 699 420 l 221 382 q 255 217 224 283 q 337 120 286 151 q 452 89 388 89 q 566 108 507 89 q 658 153 625 127 l 686 87 q 615 37 661 61 q 515 -1 570 14 q 406 -16 460 -16 q 213 35 292 -16 q 96 176 135 85 q 58 387 58 267 m 536 461 q 539 519 539 486 q 503 658 538 606 q 392 710 468 710 q 272 653 316 710 q 221 461 227 597 l 536 461 z "},"ë":{"ha":754,"x_min":58,"x_max":699,"o":"m 146 1012 q 172 1089 146 1057 q 246 1120 198 1120 l 247 1120 q 312 1093 288 1120 q 336 1027 336 1065 q 310 949 336 979 q 233 919 283 919 l 232 919 q 170 945 193 919 q 146 1012 146 972 m 464 1012 q 490 1089 464 1057 q 564 1120 516 1120 l 564 1120 q 630 1093 606 1120 q 654 1027 654 1065 q 628 949 654 979 q 549 919 601 919 l 549 919 q 488 946 511 919 q 464 1012 464 973 m 58 387 q 104 599 58 507 q 234 742 151 691 q 422 792 317 792 q 623 721 552 792 q 699 515 694 650 l 699 491 q 691 382 699 420 l 221 382 q 255 217 224 283 q 337 120 286 151 q 452 89 388 89 q 566 108 507 89 q 658 153 625 127 l 686 87 q 615 37 661 61 q 515 -1 570 14 q 406 -16 460 -16 q 213 35 292 -16 q 96 176 135 85 q 58 387 58 267 m 536 461 q 539 519 539 486 q 503 658 538 606 q 392 710 468 710 q 272 653 316 710 q 221 461 227 597 l 536 461 z "},"ė":{"ha":754,"x_min":58,"x_max":699,"o":"m 58 387 q 104 599 58 507 q 234 742 151 691 q 422 792 317 792 q 623 721 552 792 q 699 515 694 650 l 699 491 q 691 382 699 420 l 221 382 q 255 217 224 283 q 337 120 286 151 q 452 89 388 89 q 566 108 507 89 q 658 153 625 127 l 686 87 q 615 37 661 61 q 515 -1 570 14 q 406 -16 460 -16 q 213 35 292 -16 q 96 176 135 85 q 58 387 58 267 m 536 461 q 539 519 539 486 q 503 658 538 606 q 392 710 468 710 q 272 653 316 710 q 221 461 227 597 l 536 461 m 303 1010 q 330 1088 303 1056 q 405 1120 357 1120 l 406 1120 q 455 1106 434 1120 q 487 1072 476 1093 q 498 1025 498 1050 q 471 947 498 978 q 393 917 444 917 l 392 917 q 328 943 353 917 q 303 1010 303 970 z "},"è":{"ha":754,"x_min":58,"x_max":699,"o":"m 58 387 q 104 599 58 507 q 234 742 151 691 q 422 792 317 792 q 623 721 552 792 q 699 515 694 650 l 699 491 q 691 382 699 420 l 221 382 q 255 217 224 283 q 337 120 286 151 q 452 89 388 89 q 566 108 507 89 q 658 153 625 127 l 686 87 q 615 37 661 61 q 515 -1 570 14 q 406 -16 460 -16 q 213 35 292 -16 q 96 176 135 85 q 58 387 58 267 m 536 461 q 539 519 539 486 q 503 658 538 606 q 392 710 468 710 q 272 653 316 710 q 221 461 227 597 l 536 461 m 266 1230 l 267 1230 l 490 955 l 435 905 l 434 905 q 345 960 404 916 q 231 1055 286 1004 q 158 1136 176 1105 l 266 1230 z "},"ē":{"ha":754,"x_min":58,"x_max":699,"o":"m 58 387 q 104 599 58 507 q 234 742 151 691 q 422 792 317 792 q 623 721 552 792 q 699 515 694 650 l 699 491 q 691 382 699 420 l 221 382 q 255 217 224 283 q 337 120 286 151 q 452 89 388 89 q 566 108 507 89 q 658 153 625 127 l 686 87 q 615 37 661 61 q 515 -1 570 14 q 406 -16 460 -16 q 213 35 292 -16 q 96 176 135 85 q 58 387 58 267 m 536 461 q 539 519 539 486 q 503 658 538 606 q 392 710 468 710 q 272 653 316 710 q 221 461 227 597 l 536 461 m 587 1076 l 587 968 l 209 968 l 209 1076 l 587 1076 z "},"ę":{"ha":754,"x_min":58,"x_max":700,"o":"m 58 387 q 105 599 58 507 q 235 742 152 691 q 422 792 317 792 q 624 721 553 792 q 700 515 695 650 l 700 491 q 692 382 700 420 l 222 382 q 256 217 224 283 q 338 120 287 151 q 452 89 389 89 q 567 108 508 89 q 659 153 625 127 l 687 87 q 612 35 659 59 q 493 -74 528 -32 q 458 -157 458 -117 q 489 -225 458 -202 q 569 -248 521 -248 q 657 -229 614 -248 l 657 -302 q 588 -334 630 -323 q 504 -346 547 -346 q 412 -332 454 -346 q 342 -286 369 -317 q 316 -206 316 -255 q 357 -103 316 -158 q 465 -11 399 -49 q 406 -16 430 -16 q 214 35 292 -16 q 97 176 136 85 q 58 387 58 267 m 537 461 q 540 519 540 486 q 504 658 539 606 q 393 710 469 710 q 272 653 317 710 q 222 461 228 597 l 537 461 z "},"f":{"ha":562,"x_min":45,"x_max":580,"o":"m 175 86 l 175 672 l 45 672 l 45 739 l 175 770 l 175 834 q 222 993 175 920 q 343 1108 269 1065 q 498 1150 418 1150 q 546 1147 528 1150 q 580 1139 563 1144 l 580 987 q 529 1011 566 1000 q 448 1023 492 1023 q 377 1011 403 1023 q 341 970 352 1000 q 330 887 330 941 l 330 770 l 517 770 l 517 672 l 330 672 l 330 85 l 477 73 l 477 0 l 60 0 l 60 73 l 175 86 z "},"ḟ":{"ha":562,"x_min":45,"x_max":580,"o":"m 160 1250 q 187 1328 160 1296 q 262 1360 214 1360 l 262 1360 q 312 1347 291 1360 q 344 1312 333 1333 q 355 1265 355 1290 q 328 1187 355 1218 q 250 1157 301 1157 l 249 1157 q 185 1183 210 1157 q 160 1250 160 1210 m 175 86 l 175 672 l 45 672 l 45 739 l 175 770 l 175 834 q 222 993 175 920 q 343 1108 269 1065 q 498 1150 418 1150 q 546 1147 528 1150 q 580 1139 563 1144 l 580 987 q 529 1011 566 1000 q 448 1023 492 1023 q 377 1011 403 1023 q 341 970 352 1000 q 330 887 330 941 l 330 770 l 517 770 l 517 672 l 330 672 l 330 85 l 477 73 l 477 0 l 60 0 l 60 73 l 175 86 z "},"g":{"ha":850,"x_min":62,"x_max":835,"o":"m 394 275 q 290 286 338 275 q 260 247 271 269 q 250 202 250 225 q 266 150 250 168 q 314 125 281 132 q 402 119 346 119 l 550 119 q 815 -85 815 119 q 759 -230 815 -163 q 610 -335 703 -296 q 409 -374 516 -374 l 408 -374 q 144 -319 227 -374 q 62 -163 62 -264 q 99 -48 62 -100 q 189 29 136 3 q 123 143 123 66 q 152 237 123 194 q 229 307 181 280 q 124 395 161 338 q 88 529 88 452 q 134 669 88 609 q 253 760 179 728 q 411 792 327 791 l 412 792 q 543 775 485 792 q 642 726 602 759 q 703 772 662 750 q 798 793 743 793 l 835 793 l 835 662 l 692 662 q 716 553 716 612 q 674 408 716 471 q 559 310 632 345 q 395 275 486 275 l 394 275 m 402 713 q 289 673 329 713 q 248 543 248 633 q 287 407 248 458 q 409 355 325 355 l 410 355 q 522 401 487 355 q 557 536 557 448 q 519 670 557 627 q 403 713 481 713 l 402 713 m 258 5 q 214 -123 214 -48 q 262 -246 214 -204 q 420 -288 311 -288 l 422 -288 q 538 -269 483 -288 q 629 -213 594 -250 q 663 -124 663 -176 q 650 -55 663 -80 q 602 -16 637 -29 q 499 -3 566 -3 l 363 -3 q 258 5 307 -3 z "},"ğ":{"ha":850,"x_min":62,"x_max":835,"o":"m 394 275 q 290 286 338 275 q 260 247 271 269 q 250 202 250 225 q 266 150 250 168 q 314 125 281 132 q 402 119 346 119 l 550 119 q 815 -85 815 119 q 759 -230 815 -163 q 610 -335 703 -296 q 409 -374 516 -374 l 408 -374 q 144 -319 227 -374 q 62 -163 62 -264 q 99 -48 62 -100 q 189 29 136 3 q 123 143 123 66 q 152 237 123 194 q 229 307 181 280 q 124 395 161 338 q 88 529 88 452 q 134 669 88 609 q 253 760 179 728 q 411 792 327 791 l 412 792 q 543 775 485 792 q 642 726 602 759 q 703 772 662 750 q 798 793 743 793 l 835 793 l 835 662 l 692 662 q 716 553 716 612 q 674 408 716 471 q 559 310 632 345 q 395 275 486 275 l 394 275 m 402 713 q 289 673 329 713 q 248 543 248 633 q 287 407 248 458 q 409 355 325 355 l 410 355 q 522 401 487 355 q 557 536 557 448 q 519 670 557 627 q 403 713 481 713 l 402 713 m 258 5 q 214 -123 214 -48 q 262 -246 214 -204 q 420 -288 311 -288 l 422 -288 q 538 -269 483 -288 q 629 -213 594 -250 q 663 -124 663 -176 q 650 -55 663 -80 q 602 -16 637 -29 q 499 -3 566 -3 l 363 -3 q 258 5 307 -3 m 179 1148 q 182 1189 179 1178 l 262 1189 q 264 1164 262 1175 q 306 1077 271 1115 q 413 1038 340 1038 q 518 1076 485 1038 q 558 1164 551 1114 q 560 1189 560 1180 l 637 1189 q 639 1170 638 1183 q 640 1149 640 1158 q 612 1034 640 1087 q 531 948 583 980 q 412 916 479 916 q 289 948 342 916 q 208 1033 236 980 q 179 1148 179 1086 z "},"ĝ":{"ha":848,"x_min":60,"x_max":833,"o":"m 349 1208 l 471 1208 l 662 938 l 601 899 l 410 1089 l 210 898 l 154 937 l 349 1208 m 392 275 q 288 286 336 275 q 258 247 269 269 q 248 202 248 225 q 263 150 248 168 q 312 125 279 132 q 400 119 344 119 l 548 119 q 813 -85 813 119 q 757 -230 813 -163 q 608 -335 701 -296 q 407 -374 514 -374 l 406 -374 q 142 -319 224 -374 q 60 -163 60 -264 q 97 -48 60 -100 q 186 29 134 3 q 121 143 121 66 q 150 237 121 194 q 227 307 179 280 q 122 395 159 338 q 86 529 86 452 q 132 669 86 609 q 251 760 177 728 q 409 792 325 791 l 410 792 q 541 775 483 792 q 640 726 600 759 q 701 772 660 750 q 796 793 741 793 l 833 793 l 833 662 l 690 662 q 714 553 714 612 q 672 408 714 471 q 557 310 630 345 q 393 275 484 275 l 392 275 m 400 713 q 287 673 327 713 q 246 543 246 633 q 284 407 246 458 q 407 355 323 355 l 408 355 q 520 401 485 355 q 555 536 555 448 q 517 670 555 627 q 401 713 479 713 l 400 713 m 256 5 q 212 -123 212 -48 q 260 -246 212 -204 q 418 -288 309 -288 l 420 -288 q 536 -269 481 -288 q 627 -213 592 -250 q 661 -124 661 -176 q 648 -55 661 -80 q 600 -16 635 -29 q 497 -3 564 -3 l 361 -3 q 256 5 305 -3 z "},"ģ":{"ha":846,"x_min":60,"x_max":833,"o":"m 413 1202 l 466 1176 l 467 1164 q 437 1130 448 1156 q 427 1077 427 1105 q 435 1049 427 1060 q 457 1029 443 1039 q 477 1008 470 1021 q 484 970 484 994 q 470 926 484 943 q 437 904 456 910 q 401 897 418 897 l 395 897 q 325 926 351 897 q 300 1007 300 955 q 322 1100 300 1057 q 371 1172 344 1144 q 411 1202 399 1200 l 413 1202 m 392 275 q 288 286 336 275 q 258 247 269 269 q 248 202 248 225 q 263 150 248 168 q 312 125 279 132 q 400 119 344 119 l 548 119 q 813 -85 813 119 q 757 -230 813 -163 q 608 -335 701 -296 q 407 -374 514 -374 l 406 -374 q 142 -319 224 -374 q 60 -163 60 -264 q 97 -48 60 -100 q 186 29 134 3 q 121 143 121 66 q 150 237 121 194 q 227 307 179 280 q 122 395 159 338 q 86 529 86 452 q 132 669 86 609 q 251 760 177 728 q 409 792 325 791 l 410 792 q 541 775 483 792 q 640 726 600 759 q 701 772 660 750 q 796 793 741 793 l 833 793 l 833 662 l 690 662 q 714 553 714 612 q 672 408 714 471 q 557 310 630 345 q 393 275 484 275 l 392 275 m 400 713 q 287 673 327 713 q 246 543 246 633 q 284 407 246 458 q 407 355 323 355 l 408 355 q 520 401 485 355 q 555 536 555 448 q 517 670 555 627 q 401 713 479 713 l 400 713 m 256 5 q 212 -123 212 -48 q 260 -246 212 -204 q 418 -288 309 -288 l 420 -288 q 536 -269 481 -288 q 627 -213 592 -250 q 661 -124 661 -176 q 648 -55 661 -80 q 600 -16 635 -29 q 497 -3 564 -3 l 361 -3 q 256 5 305 -3 z "},"ġ":{"ha":850,"x_min":62,"x_max":835,"o":"m 394 275 q 290 286 338 275 q 260 247 271 269 q 250 202 250 225 q 266 150 250 168 q 314 125 281 132 q 402 119 346 119 l 550 119 q 815 -85 815 119 q 759 -230 815 -163 q 610 -335 703 -296 q 409 -374 516 -374 l 408 -374 q 144 -319 227 -374 q 62 -163 62 -264 q 99 -48 62 -100 q 189 29 136 3 q 123 143 123 66 q 152 237 123 194 q 229 307 181 280 q 124 395 161 338 q 88 529 88 452 q 134 669 88 609 q 253 760 179 728 q 411 792 327 791 l 412 792 q 543 775 485 792 q 642 726 602 759 q 703 772 662 750 q 798 793 743 793 l 835 793 l 835 662 l 692 662 q 716 553 716 612 q 674 408 716 471 q 559 310 632 345 q 395 275 486 275 l 394 275 m 402 713 q 289 673 329 713 q 248 543 248 633 q 287 407 248 458 q 409 355 325 355 l 410 355 q 522 401 487 355 q 557 536 557 448 q 519 670 557 627 q 403 713 481 713 l 402 713 m 258 5 q 214 -123 214 -48 q 262 -246 214 -204 q 420 -288 311 -288 l 422 -288 q 538 -269 483 -288 q 629 -213 594 -250 q 663 -124 663 -176 q 650 -55 663 -80 q 602 -16 637 -29 q 499 -3 566 -3 l 363 -3 q 258 5 307 -3 m 316 1010 q 343 1088 316 1056 q 418 1120 370 1120 l 418 1120 q 468 1106 447 1120 q 500 1072 489 1093 q 511 1025 511 1050 q 484 947 511 978 q 406 917 457 917 l 405 917 q 341 943 366 917 q 316 1010 316 970 z "},"ḡ":{"ha":850,"x_min":62,"x_max":835,"o":"m 394 275 q 290 286 338 275 q 260 247 271 269 q 250 202 250 225 q 266 150 250 168 q 314 125 281 132 q 402 119 346 119 l 550 119 q 815 -85 815 119 q 759 -230 815 -163 q 610 -335 703 -296 q 409 -374 516 -374 l 408 -374 q 144 -319 227 -374 q 62 -163 62 -264 q 99 -48 62 -100 q 189 29 136 3 q 123 143 123 66 q 152 237 123 194 q 229 307 181 280 q 124 395 161 338 q 88 529 88 452 q 134 669 88 609 q 253 760 179 728 q 411 792 327 791 l 412 792 q 543 775 485 792 q 642 726 602 759 q 703 772 662 750 q 798 793 743 793 l 835 793 l 835 662 l 692 662 q 716 553 716 612 q 674 408 716 471 q 559 310 632 345 q 395 275 486 275 l 394 275 m 402 713 q 289 673 329 713 q 248 543 248 633 q 287 407 248 458 q 409 355 325 355 l 410 355 q 522 401 487 355 q 557 536 557 448 q 519 670 557 627 q 403 713 481 713 l 402 713 m 258 5 q 214 -123 214 -48 q 262 -246 214 -204 q 420 -288 311 -288 l 422 -288 q 538 -269 483 -288 q 629 -213 594 -250 q 663 -124 663 -176 q 650 -55 663 -80 q 602 -16 637 -29 q 499 -3 566 -3 l 363 -3 q 258 5 307 -3 m 600 1076 l 600 968 l 222 968 l 222 1076 l 600 1076 z "},"h":{"ha":920,"x_min":30,"x_max":884,"o":"m 142 85 l 142 1031 l 30 1045 l 30 1109 l 260 1139 l 263 1139 l 296 1116 l 296 801 l 290 680 q 411 754 336 720 q 564 789 486 789 q 700 755 651 789 q 767 653 748 722 q 787 469 787 585 l 787 85 l 884 74 l 884 0 l 543 0 l 543 73 l 632 85 l 632 469 q 622 593 632 548 q 581 661 611 638 q 494 684 551 684 q 391 664 445 684 q 297 613 338 644 l 297 85 l 393 74 l 393 0 l 60 0 l 60 74 l 142 85 z "},"ħ":{"ha":926,"x_min":20,"x_max":883,"o":"m 140 947 l 140 1031 l 28 1045 l 28 1109 l 258 1139 l 262 1139 l 294 1116 l 294 947 l 466 947 l 466 867 l 295 867 l 295 801 l 289 680 q 410 754 335 720 q 563 789 484 789 q 698 755 650 789 q 766 653 747 722 q 785 469 785 585 l 785 85 l 883 74 l 883 0 l 542 0 l 542 73 l 631 85 l 631 469 q 620 593 631 548 q 580 661 610 638 q 492 684 550 684 q 390 664 444 684 q 296 613 336 644 l 296 85 l 392 74 l 392 0 l 59 0 l 59 74 l 140 85 l 140 867 l 20 867 l 20 947 l 140 947 z "},"ĥ":{"ha":920,"x_min":30,"x_max":884,"o":"m 142 85 l 142 1031 l 30 1045 l 30 1109 l 260 1139 l 263 1139 l 296 1116 l 296 801 l 290 680 q 411 754 336 720 q 564 789 486 789 q 700 755 651 789 q 767 653 748 722 q 787 469 787 585 l 787 85 l 884 74 l 884 0 l 543 0 l 543 73 l 632 85 l 632 469 q 622 593 632 548 q 581 661 611 638 q 494 684 551 684 q 391 664 445 684 q 297 613 338 644 l 297 85 l 393 74 l 393 0 l 60 0 l 60 74 l 142 85 m 450 1365 l 574 1365 l 760 1163 l 698 1122 l 513 1259 l 324 1122 l 267 1162 l 450 1365 z "},"i":{"ha":465,"x_min":53,"x_max":427,"o":"m 163 85 l 163 654 l 64 682 l 64 762 l 280 789 l 283 789 l 318 763 l 318 85 l 427 74 l 427 0 l 53 0 l 53 74 l 163 85 m 135 1010 q 162 1088 135 1056 q 237 1120 189 1120 l 237 1120 q 287 1106 266 1120 q 319 1072 308 1093 q 330 1025 330 1050 q 303 947 330 978 q 224 917 276 917 l 224 917 q 160 943 184 917 q 135 1010 135 970 z "},"ı":{"ha":465,"x_min":53,"x_max":427,"o":"m 163 85 l 163 654 l 64 682 l 64 762 l 280 789 l 283 789 l 318 763 l 318 85 l 427 74 l 427 0 l 53 0 l 53 74 l 163 85 z "},"í":{"ha":465,"x_min":53,"x_max":471,"o":"m 362 1230 l 363 1230 l 471 1136 q 399 1056 453 1106 q 285 961 345 1005 q 195 905 225 917 l 193 905 l 138 955 l 362 1230 m 163 85 l 163 654 l 64 682 l 64 762 l 280 789 l 283 789 l 318 763 l 318 85 l 427 74 l 427 0 l 53 0 l 53 74 l 163 85 z "},"ĭ":{"ha":465,"x_min":-2,"x_max":459,"o":"m 163 85 l 163 654 l 64 682 l 64 762 l 280 789 l 283 789 l 318 763 l 318 85 l 427 74 l 427 0 l 53 0 l 53 74 l 163 85 m -2 1148 q 1 1189 -2 1178 l 81 1189 q 83 1164 81 1175 q 124 1077 90 1115 q 232 1038 159 1038 q 337 1076 304 1038 q 377 1164 370 1114 q 379 1189 379 1180 l 456 1189 q 458 1170 457 1183 q 459 1149 459 1158 q 431 1034 459 1087 q 350 948 402 980 q 231 916 298 916 q 108 948 161 916 q 26 1033 55 980 q -2 1148 -2 1086 z "},"ǐ":{"ha":465,"x_min":-22,"x_max":484,"o":"m 163 85 l 163 654 l 64 682 l 64 762 l 280 789 l 283 789 l 318 763 l 318 85 l 427 74 l 427 0 l 53 0 l 53 74 l 163 85 m 39 1220 l 231 1029 l 427 1221 l 484 1180 l 292 910 l 170 910 l -22 1179 l 39 1220 z "},"î":{"ha":465,"x_min":-26,"x_max":481,"o":"m 169 1208 l 291 1208 l 481 938 l 420 899 l 230 1089 l 29 898 l -26 937 l 169 1208 m 163 85 l 163 654 l 64 682 l 64 762 l 280 789 l 283 789 l 318 763 l 318 85 l 427 74 l 427 0 l 53 0 l 53 74 l 163 85 z "},"ï":{"ha":465,"x_min":-20,"x_max":488,"o":"m -20 1012 q 5 1089 -20 1057 q 79 1120 31 1120 l 80 1120 q 145 1093 121 1120 q 170 1027 170 1065 q 143 949 170 979 q 66 919 116 919 l 65 919 q 3 945 26 919 q -20 1012 -20 972 m 297 1012 q 323 1089 297 1057 q 397 1120 349 1120 l 397 1120 q 464 1093 439 1120 q 488 1027 488 1065 q 461 949 488 979 q 382 919 434 919 l 382 919 q 321 946 345 919 q 297 1012 297 973 m 163 85 l 163 654 l 64 682 l 64 762 l 280 789 l 283 789 l 318 763 l 318 85 l 427 74 l 427 0 l 53 0 l 53 74 l 163 85 z "},"ì":{"ha":465,"x_min":-10,"x_max":427,"o":"m 163 85 l 163 654 l 64 682 l 64 762 l 280 789 l 283 789 l 318 763 l 318 85 l 427 74 l 427 0 l 53 0 l 53 74 l 163 85 m 98 1230 l 98 1230 l 322 955 l 267 905 l 266 905 q 177 960 236 916 q 62 1055 117 1004 q -10 1136 7 1105 l 98 1230 z "},"ĳ":{"ha":909,"x_min":53,"x_max":791,"o":"m 163 85 l 163 654 l 64 682 l 64 762 l 280 789 l 283 789 l 318 763 l 318 85 l 427 74 l 427 0 l 53 0 l 53 74 l 163 85 m 135 1010 q 162 1088 135 1056 q 237 1120 189 1120 l 237 1120 q 287 1106 266 1120 q 319 1072 308 1093 q 330 1025 330 1050 q 303 947 330 978 q 224 917 276 917 l 224 917 q 160 943 184 917 q 135 1010 135 970 m 526 677 l 527 762 l 742 789 l 745 789 l 779 763 l 779 12 q 747 -174 779 -98 q 660 -290 714 -250 q 541 -338 606 -330 q 526 -338 538 -338 q 487 -337 507 -338 q 461 -332 467 -335 l 454 -259 q 486 -256 464 -260 q 528 -245 508 -252 q 604 -151 583 -224 q 626 41 626 -78 l 625 649 l 526 677 m 596 1010 q 623 1088 596 1056 q 698 1120 650 1120 l 699 1120 q 748 1106 727 1120 q 780 1072 769 1093 q 791 1025 791 1050 q 764 947 791 978 q 686 917 737 917 l 685 917 q 621 943 646 917 q 596 1010 596 970 z "},"ī":{"ha":465,"x_min":41,"x_max":427,"o":"m 163 85 l 163 654 l 64 682 l 64 762 l 280 789 l 283 789 l 318 763 l 318 85 l 427 74 l 427 0 l 53 0 l 53 74 l 163 85 m 419 1076 l 419 968 l 41 968 l 41 1076 l 419 1076 z "},"į":{"ha":465,"x_min":15,"x_max":427,"o":"m 134 1010 q 160 1088 134 1056 q 235 1120 187 1120 l 236 1120 q 286 1106 264 1120 q 318 1072 307 1093 q 329 1025 329 1050 q 302 947 329 978 q 223 917 275 917 l 222 917 q 158 943 183 917 q 134 1010 134 970 m 163 85 l 163 654 l 64 682 l 64 762 l 280 789 l 283 789 l 318 763 l 318 85 l 427 74 l 427 0 l 321 0 q 239 -45 277 -16 q 179 -107 201 -74 q 157 -168 157 -140 q 184 -228 157 -209 q 258 -248 212 -248 q 355 -225 303 -248 l 355 -300 q 281 -334 326 -321 q 193 -347 236 -347 q 66 -314 117 -347 q 15 -214 15 -281 q 38 -135 15 -177 q 101 -57 62 -93 q 184 0 140 -21 l 53 0 l 53 74 l 163 85 z "},"ĩ":{"ha":465,"x_min":-59,"x_max":522,"o":"m 163 85 l 163 654 l 64 682 l 64 762 l 280 789 l 283 789 l 318 763 l 318 85 l 427 74 l 427 0 l 53 0 l 53 74 l 163 85 m -59 982 q -22 1048 -49 1015 q 46 1104 5 1082 q 136 1127 87 1127 q 188 1118 164 1127 q 228 1096 211 1109 q 267 1063 244 1084 q 313 1026 295 1038 q 355 1015 332 1015 q 403 1028 383 1015 q 433 1056 423 1042 q 455 1094 442 1070 l 522 1052 q 452 948 498 989 q 340 906 407 906 q 289 915 312 906 q 249 936 266 924 q 208 968 232 948 q 158 1007 179 994 q 112 1019 138 1019 q 63 1006 84 1019 q 32 978 43 992 q 7 940 22 964 l -59 982 z "},"j":{"ha":445,"x_min":-11,"x_max":327,"o":"m 61 677 l 62 762 l 277 789 l 281 789 l 315 763 l 315 12 q 282 -174 315 -98 q 196 -290 250 -250 q 77 -338 142 -330 q 61 -338 73 -338 q 22 -337 43 -338 q -3 -332 2 -335 l -11 -259 q 21 -256 -1 -260 q 63 -245 43 -252 q 140 -151 118 -224 q 161 41 161 -78 l 160 649 l 61 677 m 132 1010 q 158 1088 132 1056 q 233 1120 185 1120 l 234 1120 q 283 1106 262 1120 q 316 1072 304 1093 q 327 1025 327 1050 q 300 947 327 978 q 221 917 273 917 l 220 917 q 156 943 181 917 q 132 1010 132 970 z "},"ȷ":{"ha":445,"x_min":-11,"x_max":315,"o":"m 61 677 l 62 762 l 277 789 l 281 789 l 315 763 l 315 12 q 282 -174 315 -98 q 196 -290 250 -250 q 77 -338 142 -330 q 61 -338 73 -338 q 22 -337 43 -338 q -3 -332 2 -335 l -11 -259 q 21 -256 -1 -260 q 63 -245 43 -252 q 140 -151 118 -224 q 161 41 161 -78 l 160 649 l 61 677 z "},"ĵ":{"ha":445,"x_min":-30,"x_max":478,"o":"m 61 677 l 62 762 l 277 789 l 281 789 l 315 763 l 315 12 q 282 -174 315 -98 q 196 -290 250 -250 q 77 -338 142 -330 q 61 -338 73 -338 q 22 -337 43 -338 q -3 -332 2 -335 l -11 -259 q 21 -256 -1 -260 q 63 -245 43 -252 q 140 -151 118 -224 q 161 41 161 -78 l 160 649 l 61 677 m 165 1208 l 288 1208 l 478 938 l 417 899 l 227 1089 l 26 898 l -30 937 l 165 1208 z "},"k":{"ha":842,"x_min":35,"x_max":875,"o":"m 141 85 l 141 1031 l 35 1045 l 35 1109 l 261 1139 l 263 1139 l 296 1116 l 296 444 l 293 367 l 595 682 l 486 702 l 486 771 l 831 771 l 831 702 l 725 679 l 528 486 l 793 85 l 875 74 l 875 0 l 535 0 l 535 73 l 616 86 l 425 396 l 292 264 l 296 193 l 296 85 l 393 73 l 393 0 l 52 0 l 52 74 l 141 85 z "},"ķ":{"ha":842,"x_min":35,"x_max":875,"o":"m 446 -380 l 393 -353 l 393 -341 q 422 -308 411 -333 q 433 -254 433 -282 q 425 -227 433 -237 q 402 -207 416 -216 q 382 -185 389 -199 q 375 -148 375 -172 q 389 -104 375 -120 q 422 -81 404 -87 q 458 -75 441 -75 l 465 -75 q 534 -103 509 -75 q 559 -184 559 -132 q 537 -278 559 -234 q 488 -350 515 -321 q 448 -380 460 -378 l 446 -380 m 141 85 l 141 1031 l 35 1045 l 35 1109 l 261 1139 l 263 1139 l 296 1116 l 296 444 l 293 367 l 595 682 l 486 702 l 486 771 l 831 771 l 831 702 l 725 679 l 528 486 l 793 85 l 875 74 l 875 0 l 535 0 l 535 73 l 616 86 l 425 396 l 292 264 l 296 193 l 296 85 l 393 73 l 393 0 l 52 0 l 52 74 l 141 85 z "},"ĸ":{"ha":929,"x_min":58,"x_max":912,"o":"m 166 85 l 166 654 l 70 681 l 70 762 l 281 789 l 285 789 l 321 763 l 321 484 l 318 367 l 628 679 l 519 696 l 519 770 l 868 770 l 868 696 l 772 684 l 558 477 l 825 85 l 912 73 l 912 0 l 578 0 l 578 73 l 646 85 l 456 386 l 319 260 l 321 191 l 321 85 l 428 73 l 428 0 l 58 0 l 58 73 l 166 85 z "},"l":{"ha":467,"x_min":48,"x_max":429,"o":"m 159 85 l 159 1031 l 48 1045 l 48 1109 l 279 1139 l 281 1139 l 314 1116 l 314 85 l 429 74 l 429 0 l 50 0 l 50 74 l 159 85 z "},"ĺ":{"ha":467,"x_min":48,"x_max":448,"o":"m 343 1364 l 344 1364 l 448 1278 q 371 1211 423 1246 q 262 1146 319 1175 q 174 1107 206 1118 l 173 1107 l 119 1154 l 343 1364 m 159 84 l 159 932 l 48 943 l 48 1008 l 279 1037 l 281 1037 l 315 1014 l 315 84 l 430 73 l 430 0 l 50 0 l 50 73 l 159 84 z "},"ľ":{"ha":585,"x_min":48,"x_max":608,"o":"m 159 85 l 159 1031 l 48 1045 l 48 1109 l 279 1139 l 281 1139 l 314 1116 l 314 85 l 429 74 l 429 0 l 50 0 l 50 74 l 159 85 m 456 736 q 478 913 478 814 q 467 1022 478 972 q 442 1088 455 1072 l 452 1116 l 566 1143 q 596 1077 585 1124 q 608 977 608 1030 q 596 862 608 920 q 564 760 584 804 q 524 696 545 716 l 458 720 l 456 736 z "},"ļ":{"ha":467,"x_min":48,"x_max":429,"o":"m 234 -380 l 181 -353 l 180 -341 q 210 -308 199 -333 q 220 -254 220 -282 q 212 -227 220 -237 q 190 -207 204 -216 q 170 -185 177 -199 q 163 -148 163 -172 q 177 -104 163 -120 q 210 -81 191 -87 q 245 -75 229 -75 l 252 -75 q 322 -103 296 -75 q 347 -184 347 -132 q 325 -278 347 -234 q 276 -350 303 -321 q 236 -380 248 -378 l 234 -380 m 159 85 l 159 1031 l 48 1045 l 48 1109 l 279 1139 l 281 1139 l 314 1116 l 314 85 l 429 74 l 429 0 l 50 0 l 50 74 l 159 85 z "},"ŀ":{"ha":712,"x_min":48,"x_max":692,"o":"m 159 85 l 159 1031 l 48 1045 l 48 1109 l 279 1139 l 281 1139 l 314 1116 l 314 85 l 429 74 l 429 0 l 50 0 l 50 74 l 159 85 m 484 492 q 499 547 484 522 q 541 586 515 572 q 595 600 567 600 q 667 574 642 600 q 692 508 692 547 q 676 451 692 476 q 635 413 661 427 q 578 400 609 400 q 532 412 553 400 q 497 444 510 423 q 484 492 484 465 z "},"ǉ":{"ha":911,"x_min":48,"x_max":793,"o":"m 159 85 l 159 1031 l 48 1045 l 48 1109 l 279 1139 l 281 1139 l 314 1116 l 314 85 l 429 74 l 429 0 l 50 0 l 50 74 l 159 85 m 528 677 l 529 762 l 744 789 l 747 789 l 781 763 l 781 12 q 749 -174 781 -98 q 662 -290 716 -250 q 543 -338 608 -330 q 528 -338 540 -338 q 489 -337 509 -338 q 463 -332 469 -335 l 456 -259 q 488 -256 466 -260 q 530 -245 510 -252 q 606 -151 585 -224 q 628 41 628 -78 l 627 649 l 528 677 m 598 1010 q 625 1088 598 1056 q 700 1120 652 1120 l 701 1120 q 750 1106 729 1120 q 782 1072 771 1093 q 793 1025 793 1050 q 766 947 793 978 q 688 917 739 917 l 687 917 q 623 943 648 917 q 598 1010 598 970 z "},"ł":{"ha":484,"x_min":25,"x_max":470,"o":"m 167 570 l 167 1031 l 56 1045 l 56 1109 l 287 1139 l 288 1139 l 321 1116 l 321 637 l 470 708 l 470 611 l 321 543 l 321 85 l 437 74 l 437 0 l 57 0 l 57 74 l 167 85 l 167 477 l 25 412 l 25 503 l 167 570 z "},"m":{"ha":1393,"x_min":61,"x_max":1357,"o":"m 158 85 l 158 654 l 61 681 l 61 762 l 261 789 l 264 789 l 297 763 l 297 708 l 296 677 q 375 730 326 705 q 477 772 423 756 q 575 789 531 789 q 695 764 650 789 q 764 686 741 739 q 837 733 791 709 q 937 773 884 757 q 1035 789 989 789 q 1172 756 1123 789 q 1240 655 1221 723 q 1260 471 1260 587 l 1260 85 l 1357 73 l 1357 0 l 1025 0 l 1025 73 l 1105 85 l 1105 466 q 1093 591 1105 545 q 1050 661 1082 637 q 958 684 1018 684 q 868 665 917 684 q 784 621 819 646 q 796 469 796 563 l 796 85 l 895 73 l 895 0 l 551 0 l 551 73 l 641 85 l 641 469 q 631 593 641 549 q 591 661 621 638 q 505 684 562 684 q 405 663 457 684 q 313 613 353 643 l 313 85 l 404 73 l 404 0 l 73 0 l 73 73 l 158 85 z "},"ṁ":{"ha":1393,"x_min":61,"x_max":1357,"o":"m 158 85 l 158 654 l 61 681 l 61 762 l 261 789 l 264 789 l 297 763 l 297 708 l 296 677 q 375 730 326 705 q 477 772 423 756 q 575 789 531 789 q 695 764 650 789 q 764 686 741 739 q 837 733 791 709 q 937 773 884 757 q 1035 789 989 789 q 1172 756 1123 789 q 1240 655 1221 723 q 1260 471 1260 587 l 1260 85 l 1357 73 l 1357 0 l 1025 0 l 1025 73 l 1105 85 l 1105 466 q 1093 591 1105 545 q 1050 661 1082 637 q 958 684 1018 684 q 868 665 917 684 q 784 621 819 646 q 796 469 796 563 l 796 85 l 895 73 l 895 0 l 551 0 l 551 73 l 641 85 l 641 469 q 631 593 641 549 q 591 661 621 638 q 505 684 562 684 q 405 663 457 684 q 313 613 353 643 l 313 85 l 404 73 l 404 0 l 73 0 l 73 73 l 158 85 m 600 1010 q 627 1088 600 1056 q 702 1120 654 1120 l 703 1120 q 752 1106 731 1120 q 784 1072 773 1093 q 795 1025 795 1050 q 768 947 795 978 q 690 917 741 917 l 689 917 q 625 943 650 917 q 600 1010 600 970 z "},"n":{"ha":932,"x_min":61,"x_max":898,"o":"m 158 85 l 158 654 l 61 681 l 61 762 l 262 789 l 265 789 l 297 763 l 297 708 l 296 677 q 375 730 328 705 q 476 772 422 756 q 578 789 530 789 q 714 756 666 789 q 781 654 762 723 q 800 469 800 586 l 800 85 l 898 74 l 898 0 l 557 0 l 557 74 l 644 85 l 644 469 q 634 593 644 548 q 594 661 623 638 q 508 684 565 684 q 406 663 459 684 q 313 612 353 642 l 313 85 l 407 74 l 407 0 l 69 0 l 69 74 l 158 85 z "},"ń":{"ha":932,"x_min":61,"x_max":898,"o":"m 158 85 l 158 654 l 61 681 l 61 762 l 262 789 l 265 789 l 297 763 l 297 708 l 296 677 q 375 730 328 705 q 476 772 422 756 q 578 789 530 789 q 714 756 666 789 q 781 654 762 723 q 800 469 800 586 l 800 85 l 898 74 l 898 0 l 557 0 l 557 74 l 644 85 l 644 469 q 634 593 644 548 q 594 661 623 638 q 508 684 565 684 q 406 663 459 684 q 313 612 353 642 l 313 85 l 407 74 l 407 0 l 69 0 l 69 74 l 158 85 m 605 1230 l 606 1230 l 713 1136 q 642 1056 696 1106 q 528 961 587 1005 q 437 905 468 917 l 436 905 l 381 955 l 605 1230 z "},"ŉ":{"ha":1145,"x_min":7,"x_max":1101,"o":"m 228 970 q 199 813 228 886 q 129 690 170 740 q 52 621 87 640 l 51 621 l 9 663 l 9 679 q 71 762 42 705 q 100 902 100 819 q 92 956 100 932 q 75 995 85 979 q 47 1031 64 1010 q 17 1073 27 1055 q 7 1117 7 1091 q 30 1179 7 1156 q 87 1201 52 1201 l 88 1201 q 158 1168 126 1201 q 209 1083 191 1136 q 228 970 228 1029 m 361 85 l 361 654 l 264 681 l 264 762 l 465 789 l 469 789 l 500 763 l 500 708 l 500 677 q 578 730 531 705 q 679 772 625 756 q 781 789 733 789 q 918 756 869 789 q 985 654 966 723 q 1004 469 1004 586 l 1004 85 l 1101 74 l 1101 0 l 761 0 l 761 74 l 848 85 l 848 469 q 837 593 848 548 q 798 661 827 638 q 711 684 768 684 q 610 663 663 684 q 517 612 557 642 l 517 85 l 610 74 l 610 0 l 273 0 l 273 74 l 361 85 z "},"ň":{"ha":932,"x_min":61,"x_max":898,"o":"m 158 85 l 158 654 l 61 681 l 61 762 l 262 789 l 265 789 l 297 763 l 297 708 l 296 677 q 375 730 328 705 q 476 772 422 756 q 578 789 530 789 q 714 756 666 789 q 781 654 762 723 q 800 469 800 586 l 800 85 l 898 74 l 898 0 l 557 0 l 557 74 l 644 85 l 644 469 q 634 593 644 548 q 594 661 623 638 q 508 684 565 684 q 406 663 459 684 q 313 612 353 642 l 313 85 l 407 74 l 407 0 l 69 0 l 69 74 l 158 85 m 282 1220 l 475 1029 l 671 1221 l 727 1180 l 535 910 l 413 910 l 222 1179 l 282 1220 z "},"ņ":{"ha":932,"x_min":61,"x_max":898,"o":"m 158 85 l 158 654 l 61 681 l 61 762 l 262 789 l 265 789 l 297 763 l 297 708 l 296 677 q 375 730 328 705 q 476 772 422 756 q 578 789 530 789 q 714 756 666 789 q 781 654 762 723 q 800 469 800 586 l 800 85 l 898 74 l 898 0 l 557 0 l 557 74 l 644 85 l 644 469 q 634 593 644 548 q 594 661 623 638 q 508 684 565 684 q 406 663 459 684 q 313 612 353 642 l 313 85 l 407 74 l 407 0 l 69 0 l 69 74 l 158 85 m 473 -380 l 420 -353 l 419 -341 q 448 -308 437 -333 q 459 -254 459 -282 q 451 -227 459 -237 q 429 -207 443 -216 q 409 -185 416 -199 q 401 -148 401 -172 q 416 -104 401 -120 q 449 -81 430 -87 q 484 -75 468 -75 l 491 -75 q 561 -103 535 -75 q 586 -184 586 -132 q 564 -278 586 -234 q 514 -350 542 -321 q 475 -380 487 -378 l 473 -380 z "},"ṅ":{"ha":932,"x_min":61,"x_max":898,"o":"m 158 85 l 158 654 l 61 681 l 61 762 l 262 789 l 265 789 l 297 763 l 297 708 l 296 677 q 375 730 328 705 q 476 772 422 756 q 578 789 530 789 q 714 756 666 789 q 781 654 762 723 q 800 469 800 586 l 800 85 l 898 74 l 898 0 l 557 0 l 557 74 l 644 85 l 644 469 q 634 593 644 548 q 594 661 623 638 q 508 684 565 684 q 406 663 459 684 q 313 612 353 642 l 313 85 l 407 74 l 407 0 l 69 0 l 69 74 l 158 85 m 378 1010 q 405 1088 378 1056 q 480 1120 432 1120 l 481 1120 q 530 1106 509 1120 q 563 1072 551 1093 q 574 1025 574 1050 q 547 947 574 978 q 468 917 519 917 l 467 917 q 403 943 428 917 q 378 1010 378 970 z "},"ŋ":{"ha":938,"x_min":67,"x_max":806,"o":"m 163 85 l 163 656 l 67 684 l 67 766 l 267 792 l 271 792 l 302 766 l 302 719 l 302 680 q 380 733 333 708 q 481 775 427 759 q 583 791 534 791 q 719 759 671 791 q 786 661 767 728 q 806 477 806 594 l 806 15 q 743 -248 806 -157 q 560 -346 680 -339 q 519 -345 547 -347 q 486 -340 491 -344 l 479 -267 q 513 -264 490 -269 q 553 -254 537 -260 q 629 -162 609 -235 q 649 31 649 -89 l 649 477 q 639 599 649 555 q 600 664 629 642 q 513 685 570 685 q 412 665 465 685 q 319 613 359 644 l 319 85 l 412 73 l 412 0 l 75 0 l 75 74 l 163 85 z "},"ǌ":{"ha":1377,"x_min":61,"x_max":1259,"o":"m 158 85 l 158 654 l 61 681 l 61 762 l 262 789 l 265 789 l 297 763 l 297 708 l 296 677 q 375 730 328 705 q 476 772 422 756 q 578 789 530 789 q 714 756 666 789 q 781 654 762 723 q 800 469 800 586 l 800 85 l 898 74 l 898 0 l 557 0 l 557 74 l 644 85 l 644 469 q 634 593 644 548 q 594 661 623 638 q 508 684 565 684 q 406 663 459 684 q 313 612 353 642 l 313 85 l 407 74 l 407 0 l 69 0 l 69 74 l 158 85 m 994 677 l 995 762 l 1210 789 l 1213 789 l 1247 763 l 1247 12 q 1215 -174 1247 -98 q 1128 -290 1182 -250 q 1009 -338 1074 -330 q 994 -338 1006 -338 q 955 -337 975 -338 q 929 -332 935 -335 l 922 -259 q 954 -256 932 -260 q 996 -245 976 -252 q 1072 -151 1050 -224 q 1094 41 1094 -78 l 1093 649 l 994 677 m 1064 1010 q 1091 1088 1064 1056 q 1166 1120 1118 1120 l 1166 1120 q 1216 1106 1195 1120 q 1248 1072 1237 1093 q 1259 1025 1259 1050 q 1232 947 1259 978 q 1154 917 1205 917 l 1153 917 q 1089 943 1114 917 q 1064 1010 1064 970 z "},"ñ":{"ha":932,"x_min":61,"x_max":898,"o":"m 158 85 l 158 654 l 61 681 l 61 762 l 262 789 l 265 789 l 297 763 l 297 708 l 296 677 q 375 730 328 705 q 476 772 422 756 q 578 789 530 789 q 714 756 666 789 q 781 654 762 723 q 800 469 800 586 l 800 85 l 898 74 l 898 0 l 557 0 l 557 74 l 644 85 l 644 469 q 634 593 644 548 q 594 661 623 638 q 508 684 565 684 q 406 663 459 684 q 313 612 353 642 l 313 85 l 407 74 l 407 0 l 69 0 l 69 74 l 158 85 m 184 982 q 222 1048 195 1015 q 290 1104 249 1082 q 379 1127 330 1127 q 431 1118 408 1127 q 471 1096 454 1109 q 511 1063 488 1084 q 557 1026 538 1038 q 598 1015 575 1015 q 647 1028 627 1015 q 676 1056 667 1042 q 699 1094 686 1070 l 765 1052 q 696 948 741 989 q 583 906 650 906 q 532 915 555 906 q 492 936 509 924 q 452 968 475 948 q 402 1007 422 994 q 355 1019 381 1019 q 307 1006 328 1019 q 276 978 286 992 q 250 940 265 964 l 184 982 z "},"o":{"ha":826,"x_min":54,"x_max":772,"o":"m 421 792 q 618 740 539 792 q 734 596 696 688 q 772 388 772 505 q 721 171 772 262 q 584 32 669 79 q 404 -16 500 -16 q 208 37 286 -16 q 92 180 130 89 q 54 389 54 271 q 105 604 54 513 q 242 744 157 696 q 421 792 326 792 m 601 376 q 556 618 601 528 q 413 708 511 708 q 272 631 319 708 q 224 401 224 554 q 270 158 224 248 q 413 68 316 68 q 601 376 601 68 z "},"ó":{"ha":826,"x_min":54,"x_max":772,"o":"m 549 1230 l 549 1230 l 657 1136 q 585 1056 640 1106 q 471 961 531 1005 q 381 905 412 917 l 380 905 l 325 955 l 549 1230 m 421 792 q 618 740 539 792 q 734 596 696 688 q 772 388 772 505 q 721 171 772 262 q 584 32 669 79 q 404 -16 500 -16 q 208 37 286 -16 q 92 180 130 89 q 54 389 54 271 q 105 604 54 513 q 242 744 157 696 q 421 792 326 792 m 601 376 q 556 618 601 528 q 413 708 511 708 q 272 631 319 708 q 224 401 224 554 q 270 158 224 248 q 413 68 316 68 q 601 376 601 68 z "},"ŏ":{"ha":826,"x_min":54,"x_max":772,"o":"m 421 792 q 618 740 539 792 q 734 596 696 688 q 772 388 772 505 q 721 171 772 262 q 584 32 669 79 q 404 -16 500 -16 q 208 37 286 -16 q 92 180 130 89 q 54 389 54 271 q 105 604 54 513 q 242 744 157 696 q 421 792 326 792 m 601 376 q 556 618 601 528 q 413 708 511 708 q 272 631 319 708 q 224 401 224 554 q 270 158 224 248 q 413 68 316 68 q 601 376 601 68 m 185 1148 q 188 1189 185 1178 l 268 1189 q 270 1164 268 1175 q 312 1077 277 1115 q 419 1038 347 1038 q 524 1076 491 1038 q 564 1164 557 1114 q 566 1189 566 1180 l 644 1189 q 645 1170 644 1183 q 646 1149 646 1158 q 618 1034 646 1087 q 537 948 589 980 q 418 916 485 916 q 295 948 348 916 q 214 1033 242 980 q 185 1148 185 1086 z "},"ǒ":{"ha":826,"x_min":54,"x_max":772,"o":"m 421 792 q 618 740 539 792 q 734 596 696 688 q 772 388 772 505 q 721 171 772 262 q 584 32 669 79 q 404 -16 500 -16 q 208 37 286 -16 q 92 180 130 89 q 54 389 54 271 q 105 604 54 513 q 242 744 157 696 q 421 792 326 792 m 601 376 q 556 618 601 528 q 413 708 511 708 q 272 631 319 708 q 224 401 224 554 q 270 158 224 248 q 413 68 316 68 q 601 376 601 68 m 226 1220 l 418 1029 l 614 1221 l 671 1180 l 479 910 l 357 910 l 165 1179 l 226 1220 z "},"ô":{"ha":826,"x_min":54,"x_max":772,"o":"m 357 1208 l 479 1208 l 669 938 l 608 899 l 418 1089 l 217 898 l 161 937 l 357 1208 m 421 792 q 618 740 539 792 q 734 596 696 688 q 772 388 772 505 q 721 171 772 262 q 584 32 669 79 q 404 -16 500 -16 q 208 37 286 -16 q 92 180 130 89 q 54 389 54 271 q 105 604 54 513 q 242 744 157 696 q 421 792 326 792 m 601 376 q 556 618 601 528 q 413 708 511 708 q 272 631 319 708 q 224 401 224 554 q 270 158 224 248 q 413 68 316 68 q 601 376 601 68 z "},"ö":{"ha":826,"x_min":54,"x_max":772,"o":"m 166 1012 q 192 1089 166 1057 q 266 1120 218 1120 l 267 1120 q 332 1093 308 1120 q 356 1027 356 1065 q 329 949 356 979 q 252 919 302 919 l 252 919 q 190 945 213 919 q 166 1012 166 972 m 484 1012 q 510 1089 484 1057 q 583 1120 536 1120 l 584 1120 q 650 1093 626 1120 q 674 1027 674 1065 q 647 949 674 979 q 569 919 621 919 l 568 919 q 507 946 531 919 q 484 1012 484 973 m 421 792 q 618 740 539 792 q 734 596 696 688 q 772 388 772 505 q 721 171 772 262 q 584 32 669 79 q 404 -16 500 -16 q 208 37 286 -16 q 92 180 130 89 q 54 389 54 271 q 105 604 54 513 q 242 744 157 696 q 421 792 326 792 m 601 376 q 556 618 601 528 q 413 708 511 708 q 272 631 319 708 q 224 401 224 554 q 270 158 224 248 q 413 68 316 68 q 601 376 601 68 z "},"ò":{"ha":826,"x_min":54,"x_max":772,"o":"m 421 792 q 618 740 539 792 q 734 596 696 688 q 772 388 772 505 q 721 171 772 262 q 584 32 669 79 q 404 -16 500 -16 q 208 37 286 -16 q 92 180 130 89 q 54 389 54 271 q 105 604 54 513 q 242 744 157 696 q 421 792 326 792 m 601 376 q 556 618 601 528 q 413 708 511 708 q 272 631 319 708 q 224 401 224 554 q 270 158 224 248 q 413 68 316 68 q 601 376 601 68 m 285 1230 l 286 1230 l 509 955 l 454 905 l 453 905 q 364 960 423 916 q 250 1055 304 1004 q 177 1136 195 1105 l 285 1230 z "},"ő":{"ha":826,"x_min":54,"x_max":825,"o":"m 395 1230 l 494 1145 q 424 1065 473 1112 q 320 976 374 1019 q 232 912 265 932 l 180 955 l 395 1230 m 731 1227 l 825 1145 q 757 1067 807 1115 q 651 976 707 1020 q 561 912 594 931 l 509 956 l 731 1227 m 421 792 q 618 740 539 792 q 734 596 696 688 q 772 388 772 505 q 721 171 772 262 q 584 32 669 79 q 404 -16 500 -16 q 208 37 286 -16 q 92 180 130 89 q 54 389 54 271 q 105 604 54 513 q 242 744 157 696 q 421 792 326 792 m 601 376 q 556 618 601 528 q 413 708 511 708 q 272 631 319 708 q 224 401 224 554 q 270 158 224 248 q 413 68 316 68 q 601 376 601 68 z "},"ō":{"ha":826,"x_min":54,"x_max":772,"o":"m 606 1076 l 606 968 l 228 968 l 228 1076 l 606 1076 m 421 792 q 618 740 539 792 q 734 596 696 688 q 772 388 772 505 q 721 171 772 262 q 584 32 669 79 q 404 -16 500 -16 q 208 37 286 -16 q 92 180 130 89 q 54 389 54 271 q 105 604 54 513 q 242 744 157 696 q 421 792 326 792 m 601 376 q 556 618 601 528 q 413 708 511 708 q 272 631 319 708 q 224 401 224 554 q 270 158 224 248 q 413 68 316 68 q 601 376 601 68 z "},"ø":{"ha":826,"x_min":54,"x_max":772,"o":"m 421 792 q 522 781 474 792 l 568 913 l 633 895 l 587 757 q 726 614 680 711 q 772 388 772 517 q 721 171 772 262 q 584 32 669 79 q 404 -16 500 -16 q 311 -5 354 -16 l 258 -148 l 189 -128 l 243 17 q 101 159 149 61 q 54 389 54 256 q 105 604 54 513 q 242 744 157 696 q 421 792 326 792 m 491 688 q 413 708 456 708 q 272 631 319 708 q 224 401 224 554 q 241 238 224 309 q 292 125 258 168 l 491 688 m 601 376 q 538 646 601 561 l 338 86 q 413 68 370 68 q 601 376 601 68 z "},"ǿ":{"ha":826,"x_min":54,"x_max":772,"o":"m 421 792 q 522 781 474 792 l 568 913 l 633 895 l 587 757 q 726 614 680 711 q 772 388 772 517 q 721 171 772 262 q 584 32 669 79 q 404 -16 500 -16 q 311 -5 354 -16 l 258 -148 l 189 -128 l 243 17 q 101 159 149 61 q 54 389 54 256 q 105 604 54 513 q 242 744 157 696 q 421 792 326 792 m 491 688 q 413 708 456 708 q 272 631 319 708 q 224 401 224 554 q 241 238 224 309 q 292 125 258 168 l 491 688 m 601 376 q 538 646 601 561 l 338 86 q 413 68 370 68 q 601 376 601 68 m 471 1230 l 471 1230 l 579 1136 q 507 1056 562 1106 q 393 961 453 1005 q 303 905 334 917 l 302 905 l 247 955 l 471 1230 z "},"õ":{"ha":826,"x_min":54,"x_max":772,"o":"m 421 792 q 618 740 539 792 q 734 596 696 688 q 772 388 772 505 q 721 171 772 262 q 584 32 669 79 q 404 -16 500 -16 q 208 37 286 -16 q 92 180 130 89 q 54 389 54 271 q 105 604 54 513 q 242 744 157 696 q 421 792 326 792 m 601 376 q 556 618 601 528 q 413 708 511 708 q 272 631 319 708 q 224 401 224 554 q 270 158 224 248 q 413 68 316 68 q 601 376 601 68 m 128 982 q 165 1048 138 1015 q 233 1104 193 1082 q 323 1127 274 1127 q 375 1118 351 1127 q 415 1096 398 1109 q 454 1063 431 1084 q 500 1026 482 1038 q 542 1015 519 1015 q 590 1028 570 1015 q 620 1056 610 1042 q 642 1094 629 1070 l 709 1052 q 640 948 685 989 q 527 906 594 906 q 476 915 499 906 q 436 936 453 924 q 395 968 419 948 q 346 1007 366 994 q 299 1019 325 1019 q 251 1006 271 1019 q 219 978 230 992 q 194 940 209 964 l 128 982 z "},"œ":{"ha":1325,"x_min":54,"x_max":1258,"o":"m 680 128 q 562 22 633 59 q 406 -16 491 -16 q 210 34 289 -16 q 93 174 132 84 q 54 387 54 264 q 106 603 54 511 q 243 744 158 695 q 426 792 329 792 q 589 756 522 792 q 696 653 656 721 q 819 756 746 720 q 981 792 892 792 q 1182 721 1110 792 q 1258 515 1253 650 l 1258 491 q 1250 382 1258 420 l 780 382 q 813 217 783 283 q 895 120 844 151 q 1010 89 946 89 q 1125 108 1066 89 q 1217 153 1183 127 l 1245 87 q 1174 37 1219 61 q 1074 -1 1129 14 q 964 -16 1019 -16 q 795 22 867 -16 q 680 128 724 59 m 1095 461 q 1098 519 1098 498 q 1062 657 1097 605 q 950 710 1026 710 q 830 653 875 710 q 780 461 786 597 l 1095 461 m 602 378 q 555 622 602 535 q 414 708 508 708 q 271 630 319 708 q 223 399 223 552 q 272 154 223 239 q 413 68 320 68 q 602 378 602 68 z "},"p":{"ha":878,"x_min":45,"x_max":821,"o":"m 425 -16 q 357 -11 394 -16 q 296 1 321 -5 l 300 -114 l 300 -248 l 439 -263 l 439 -336 l 45 -336 l 45 -263 l 146 -248 l 146 654 l 49 681 l 49 762 l 249 789 l 252 789 l 283 763 l 283 686 q 383 761 323 730 q 518 792 443 792 q 669 752 601 792 q 779 626 738 711 q 821 413 821 541 q 772 197 821 294 q 634 42 724 99 q 425 -16 544 -16 m 300 104 q 346 75 309 87 q 429 62 383 62 q 546 97 495 62 q 625 207 596 132 q 654 399 654 283 q 628 562 654 498 q 557 657 602 627 q 455 688 513 688 q 366 669 407 688 q 300 623 324 649 l 300 104 z "},"ṗ":{"ha":878,"x_min":45,"x_max":821,"o":"m 425 -16 q 357 -11 394 -16 q 296 1 321 -5 l 300 -114 l 300 -248 l 439 -263 l 439 -336 l 45 -336 l 45 -263 l 146 -248 l 146 654 l 49 681 l 49 762 l 249 789 l 252 789 l 283 763 l 283 686 q 383 761 323 730 q 518 792 443 792 q 669 752 601 792 q 779 626 738 711 q 821 413 821 541 q 772 197 821 294 q 634 42 724 99 q 425 -16 544 -16 m 300 104 q 346 75 309 87 q 429 62 383 62 q 546 97 495 62 q 625 207 596 132 q 654 399 654 283 q 628 562 654 498 q 557 657 602 627 q 455 688 513 688 q 366 669 407 688 q 300 623 324 649 l 300 104 m 385 1010 q 411 1088 385 1056 q 486 1120 438 1120 l 487 1120 q 536 1106 515 1120 q 569 1072 557 1093 q 580 1025 580 1050 q 553 947 580 978 q 474 917 526 917 l 473 917 q 409 943 434 917 q 385 1010 385 970 z "},"þ":{"ha":842,"x_min":-1,"x_max":787,"o":"m 111 1032 l -1 1046 l -1 1109 l 228 1139 l 231 1139 l 265 1116 l 265 701 q 361 766 305 741 q 484 792 416 792 q 635 752 567 792 q 745 627 704 712 q 787 413 787 542 q 738 196 787 294 q 598 41 689 98 q 385 -16 507 -16 q 260 -6 326 -16 l 264 -105 l 264 -252 l 408 -267 l 408 -336 l 9 -336 l 9 -267 l 111 -252 l 111 43 l 111 43 l 111 1032 m 265 106 q 311 74 274 86 q 395 62 347 62 q 512 100 462 62 q 591 212 563 137 q 620 397 620 287 q 594 559 620 494 q 524 656 569 625 q 422 687 479 687 q 332 665 373 687 q 265 615 290 643 l 265 106 z "},"q":{"ha":846,"x_min":58,"x_max":829,"o":"m 58 370 q 106 585 58 489 q 245 736 154 681 q 458 792 336 792 q 546 785 500 792 q 629 768 591 778 l 704 789 l 705 789 l 734 763 l 734 -250 l 829 -265 l 829 -336 l 434 -336 l 434 -265 l 581 -250 l 581 -33 l 585 81 q 487 12 545 39 q 361 -16 430 -16 q 210 26 279 -16 q 99 155 141 68 q 58 370 58 242 m 581 673 q 533 702 572 689 q 448 715 494 715 q 286 635 347 715 q 224 384 224 555 q 250 218 224 286 q 321 119 276 151 q 423 86 366 86 q 513 107 472 86 q 581 155 555 128 l 581 673 z "},"r":{"ha":640,"x_min":63,"x_max":606,"o":"m 170 84 l 170 654 l 73 681 l 73 762 l 267 789 l 271 789 l 303 763 l 303 720 l 302 632 l 303 632 q 350 692 315 654 q 440 761 385 730 q 561 792 496 792 q 606 785 587 792 l 606 618 q 571 630 593 625 q 526 635 550 635 q 407 619 457 635 q 324 577 357 602 l 324 85 l 503 73 l 503 0 l 63 0 l 63 73 l 170 84 z "},"ŕ":{"ha":640,"x_min":63,"x_max":606,"o":"m 441 1230 l 442 1230 l 550 1136 q 478 1056 532 1106 q 364 961 424 1005 q 274 905 304 917 l 273 905 l 218 955 l 441 1230 m 170 84 l 170 654 l 73 681 l 73 762 l 267 789 l 271 789 l 303 763 l 303 720 l 302 632 l 303 632 q 350 692 315 654 q 440 761 385 730 q 561 792 496 792 q 606 785 587 792 l 606 618 q 571 630 593 625 q 526 635 550 635 q 407 619 457 635 q 324 577 357 602 l 324 85 l 503 73 l 503 0 l 63 0 l 63 73 l 170 84 z "},"ř":{"ha":640,"x_min":59,"x_max":606,"o":"m 119 1220 l 312 1029 l 508 1221 l 564 1180 l 372 910 l 250 910 l 59 1179 l 119 1220 m 170 84 l 170 654 l 73 681 l 73 762 l 267 789 l 271 789 l 303 763 l 303 720 l 302 632 l 303 632 q 350 692 315 654 q 440 761 385 730 q 561 792 496 792 q 606 785 587 792 l 606 618 q 571 630 593 625 q 526 635 550 635 q 407 619 457 635 q 324 577 357 602 l 324 85 l 503 73 l 503 0 l 63 0 l 63 73 l 170 84 z "},"ŗ":{"ha":640,"x_min":63,"x_max":606,"o":"m 245 -380 l 193 -353 l 192 -341 q 221 -308 210 -333 q 232 -254 232 -282 q 224 -227 232 -237 q 201 -207 216 -216 q 181 -185 189 -199 q 174 -148 174 -172 q 189 -104 174 -120 q 222 -81 203 -87 q 257 -75 241 -75 l 264 -75 q 333 -103 308 -75 q 359 -184 359 -132 q 337 -278 359 -234 q 287 -350 315 -321 q 248 -380 260 -378 l 245 -380 m 170 84 l 170 654 l 73 681 l 73 762 l 267 789 l 271 789 l 303 763 l 303 720 l 302 632 l 303 632 q 350 692 315 654 q 440 761 385 730 q 561 792 496 792 q 606 785 587 792 l 606 618 q 571 630 593 625 q 526 635 550 635 q 407 619 457 635 q 324 577 357 602 l 324 85 l 503 73 l 503 0 l 63 0 l 63 73 l 170 84 z "},"s":{"ha":707,"x_min":81,"x_max":646,"o":"m 176 220 l 203 117 q 235 90 212 103 q 290 69 258 77 q 355 61 322 61 q 465 90 432 61 q 497 169 497 119 q 475 231 497 204 q 410 281 453 258 q 292 335 366 305 q 134 434 184 377 q 85 583 85 492 q 122 690 85 644 q 223 762 159 736 q 368 788 288 788 q 478 778 431 788 q 574 753 526 768 l 598 745 l 598 574 l 511 574 l 482 669 q 438 699 474 686 q 359 712 403 712 q 262 686 296 712 q 229 616 229 659 q 249 553 229 578 q 298 511 269 527 q 382 472 328 494 l 408 460 q 534 398 486 427 q 614 323 582 369 q 646 212 646 278 q 610 93 646 144 q 507 13 574 41 q 347 -16 439 -16 q 202 3 278 -16 q 81 43 126 22 l 81 220 l 176 220 z "},"ś":{"ha":711,"x_min":81,"x_max":646,"o":"m 501 1230 l 502 1230 l 610 1136 q 538 1056 592 1106 q 424 961 484 1005 q 334 905 364 917 l 332 905 l 277 955 l 501 1230 m 176 220 l 203 117 q 235 90 212 103 q 290 69 258 77 q 355 61 322 61 q 465 90 432 61 q 497 169 497 119 q 475 231 497 204 q 410 281 453 258 q 292 335 366 305 q 134 434 184 377 q 85 583 85 492 q 122 690 85 644 q 223 762 159 736 q 368 788 288 788 q 478 778 431 788 q 574 753 526 768 l 598 745 l 598 574 l 511 574 l 482 669 q 438 699 474 686 q 359 712 403 712 q 262 686 296 712 q 229 616 229 659 q 249 553 229 578 q 298 511 269 527 q 382 472 328 494 l 408 460 q 534 398 486 427 q 614 323 582 369 q 646 212 646 278 q 610 93 646 144 q 507 13 574 41 q 347 -16 439 -16 q 202 3 278 -16 q 81 43 126 22 l 81 220 l 176 220 z "},"š":{"ha":711,"x_min":81,"x_max":646,"o":"m 178 1220 l 371 1029 l 567 1221 l 623 1180 l 431 910 l 309 910 l 118 1179 l 178 1220 m 176 220 l 203 117 q 235 90 212 103 q 290 69 258 77 q 355 61 322 61 q 465 90 432 61 q 497 169 497 119 q 475 231 497 204 q 410 281 453 258 q 292 335 366 305 q 134 434 184 377 q 85 583 85 492 q 122 690 85 644 q 223 762 159 736 q 368 788 288 788 q 478 778 431 788 q 574 753 526 768 l 598 745 l 598 574 l 511 574 l 482 669 q 438 699 474 686 q 359 712 403 712 q 262 686 296 712 q 229 616 229 659 q 249 553 229 578 q 298 511 269 527 q 382 472 328 494 l 408 460 q 534 398 486 427 q 614 323 582 369 q 646 212 646 278 q 610 93 646 144 q 507 13 574 41 q 347 -16 439 -16 q 202 3 278 -16 q 81 43 126 22 l 81 220 l 176 220 z "},"ş":{"ha":707,"x_min":81,"x_max":646,"o":"m 646 212 q 615 100 646 149 q 525 21 584 51 q 385 -14 467 -9 q 436 -95 414 -48 q 458 -190 458 -142 q 414 -302 458 -269 q 279 -335 369 -335 l 279 -335 q 227 -330 255 -335 q 181 -317 199 -325 l 182 -213 q 212 -220 195 -218 q 240 -222 230 -222 l 241 -222 q 296 -216 276 -222 q 327 -189 316 -210 q 337 -127 337 -168 q 327 -68 337 -99 q 304 -14 317 -38 q 180 9 242 -8 q 81 43 118 26 l 81 220 l 176 220 l 203 117 q 235 90 212 103 q 290 69 258 77 q 355 61 322 61 q 465 90 432 61 q 497 169 497 119 q 475 231 497 204 q 410 281 453 258 q 292 335 366 305 q 134 434 184 377 q 85 583 85 492 q 122 690 85 644 q 223 762 159 736 q 368 788 288 788 q 478 778 431 788 q 574 753 526 768 l 598 745 l 598 574 l 511 574 l 482 669 q 438 699 474 686 q 359 712 403 712 q 262 686 296 712 q 229 616 229 659 q 249 553 229 578 q 298 511 269 527 q 382 472 328 494 l 408 460 q 534 398 486 427 q 614 323 582 369 q 646 212 646 278 z "},"ŝ":{"ha":711,"x_min":81,"x_max":646,"o":"m 309 1208 l 431 1208 l 621 938 l 560 899 l 370 1089 l 169 898 l 113 937 l 309 1208 m 176 220 l 203 117 q 235 90 212 103 q 290 69 258 77 q 355 61 322 61 q 465 90 432 61 q 497 169 497 119 q 475 231 497 204 q 410 281 453 258 q 292 335 366 305 q 134 434 184 377 q 85 583 85 492 q 122 690 85 644 q 223 762 159 736 q 368 788 288 788 q 478 778 431 788 q 574 753 526 768 l 598 745 l 598 574 l 511 574 l 482 669 q 438 699 474 686 q 359 712 403 712 q 262 686 296 712 q 229 616 229 659 q 249 553 229 578 q 298 511 269 527 q 382 472 328 494 l 408 460 q 534 398 486 427 q 614 323 582 369 q 646 212 646 278 q 610 93 646 144 q 507 13 574 41 q 347 -16 439 -16 q 202 3 278 -16 q 81 43 126 22 l 81 220 l 176 220 z "},"ș":{"ha":711,"x_min":81,"x_max":646,"o":"m 355 -380 l 302 -353 l 302 -341 q 331 -308 320 -333 q 342 -254 342 -282 q 334 -227 342 -237 q 311 -207 326 -216 q 291 -185 298 -199 q 284 -148 284 -172 q 298 -104 284 -120 q 332 -81 313 -87 q 367 -75 351 -75 l 374 -75 q 443 -103 418 -75 q 469 -184 469 -132 q 447 -278 469 -234 q 397 -350 425 -321 q 357 -380 370 -378 l 355 -380 m 176 220 l 203 117 q 235 90 212 103 q 290 69 258 77 q 355 61 322 61 q 465 90 432 61 q 497 169 497 119 q 475 231 497 204 q 410 281 453 258 q 292 335 366 305 q 134 434 184 377 q 85 583 85 492 q 122 690 85 644 q 223 762 159 736 q 368 788 288 788 q 478 778 431 788 q 574 753 526 768 l 598 745 l 598 574 l 511 574 l 482 669 q 438 699 474 686 q 359 712 403 712 q 262 686 296 712 q 229 616 229 659 q 249 553 229 578 q 298 511 269 527 q 382 472 328 494 l 408 460 q 534 398 486 427 q 614 323 582 369 q 646 212 646 278 q 610 93 646 144 q 507 13 574 41 q 347 -16 439 -16 q 202 3 278 -16 q 81 43 126 22 l 81 220 l 176 220 z "},"ṡ":{"ha":707,"x_min":81,"x_max":646,"o":"m 176 220 l 203 117 q 235 90 212 103 q 290 69 258 77 q 355 61 322 61 q 465 90 432 61 q 497 169 497 119 q 475 231 497 204 q 410 281 453 258 q 292 335 366 305 q 134 434 184 377 q 85 583 85 492 q 122 690 85 644 q 223 762 159 736 q 368 788 288 788 q 478 778 431 788 q 574 753 526 768 l 598 745 l 598 574 l 511 574 l 482 669 q 438 699 474 686 q 359 712 403 712 q 262 686 296 712 q 229 616 229 659 q 249 553 229 578 q 298 511 269 527 q 382 472 328 494 l 408 460 q 534 398 486 427 q 614 323 582 369 q 646 212 646 278 q 610 93 646 144 q 507 13 574 41 q 347 -16 439 -16 q 202 3 278 -16 q 81 43 126 22 l 81 220 l 176 220 m 271 1010 q 297 1088 271 1056 q 372 1120 324 1120 l 373 1120 q 422 1106 401 1120 q 455 1072 444 1093 q 466 1025 466 1050 q 439 947 466 978 q 360 917 412 917 l 359 917 q 295 943 320 917 q 271 1010 271 970 z "},"ß":{"ha":880,"x_min":35,"x_max":854,"o":"m 125 87 l 125 648 q 178 884 125 785 q 323 1037 232 984 q 523 1089 414 1089 q 697 1042 631 1089 q 763 903 763 995 q 751 831 763 863 q 721 777 739 800 q 675 726 703 754 q 627 668 642 692 q 611 614 611 644 q 624 567 611 589 q 655 526 636 545 q 708 477 674 507 q 783 405 754 436 q 833 329 812 373 q 854 229 854 284 q 813 96 854 151 q 701 13 772 41 q 538 -16 629 -16 q 478 -11 513 -16 q 421 0 443 -5 l 421 106 q 480 89 446 95 q 549 82 514 82 q 655 115 621 82 q 689 197 689 147 q 674 266 689 235 q 639 321 660 297 q 582 380 618 345 q 523 441 545 416 q 485 500 500 467 q 470 574 470 533 q 485 632 470 606 q 531 697 500 659 q 571 750 555 727 q 597 803 587 773 q 608 868 608 833 q 576 969 608 935 q 484 1004 545 1004 q 332 923 382 1004 q 282 674 282 842 l 282 0 l 35 0 l 35 74 l 125 87 z "},"ə":{"ha":739,"x_min":52,"x_max":683,"o":"m 683 387 q 637 176 683 268 q 511 35 592 85 q 326 -16 429 -16 q 123 61 193 -16 q 52 281 52 137 q 60 393 52 336 l 522 393 l 522 395 q 489 561 519 495 q 408 657 458 626 q 295 688 358 688 q 184 668 241 688 q 94 624 126 649 l 66 689 q 135 739 91 715 q 233 778 179 763 q 340 792 288 792 q 529 741 452 792 q 645 599 606 690 q 683 387 683 508 m 215 314 q 213 260 213 291 q 246 117 213 172 q 356 63 279 63 q 472 120 429 63 q 521 314 515 178 l 215 314 z "},"t":{"ha":566,"x_min":45,"x_max":548,"o":"m 45 674 l 45 739 q 89 752 64 743 q 121 766 114 761 q 158 819 144 782 q 185 892 168 842 q 208 968 201 943 l 296 968 l 297 771 l 525 771 l 525 674 l 298 674 l 298 264 q 302 149 298 181 q 322 107 307 117 q 375 98 336 98 l 376 98 q 455 107 411 98 q 524 125 500 116 l 525 125 l 548 60 q 487 25 528 43 q 399 -3 446 8 q 313 -15 353 -15 l 312 -15 q 185 22 228 -15 q 142 146 142 59 l 142 674 l 45 674 z "},"ŧ":{"ha":566,"x_min":45,"x_max":548,"o":"m 142 507 l 142 674 l 45 674 l 45 739 q 89 752 64 743 q 121 766 114 761 q 158 819 144 782 q 185 892 168 842 q 208 968 201 943 l 296 968 l 297 771 l 525 771 l 525 674 l 298 674 l 298 507 l 524 507 l 524 417 l 298 417 l 298 264 q 302 149 298 181 q 322 107 307 117 q 375 98 336 98 l 376 98 q 455 107 411 98 q 524 125 500 116 l 525 125 l 548 60 q 487 25 528 43 q 399 -3 446 8 q 313 -15 353 -15 l 312 -15 q 185 22 228 -15 q 142 146 142 59 l 142 417 l 47 417 l 47 507 l 142 507 z "},"ť":{"ha":585,"x_min":45,"x_max":581,"o":"m 45 674 l 45 739 q 89 752 64 743 q 121 766 114 761 q 158 819 144 782 q 185 892 168 842 q 208 968 201 943 l 296 968 l 297 771 l 525 771 l 525 674 l 298 674 l 298 264 q 302 149 298 181 q 322 107 307 117 q 375 98 336 98 l 376 98 q 455 107 411 98 q 524 125 500 116 l 525 125 l 548 60 q 487 25 528 43 q 399 -3 446 8 q 313 -15 353 -15 l 312 -15 q 185 22 228 -15 q 142 146 142 59 l 142 674 l 45 674 m 428 907 q 450 1084 450 985 q 439 1193 450 1143 q 414 1259 427 1242 l 424 1286 l 538 1314 q 569 1248 557 1295 q 581 1147 581 1201 q 568 1033 581 1090 q 536 931 556 975 q 496 867 517 887 l 431 890 l 428 907 z "},"ţ":{"ha":566,"x_min":45,"x_max":548,"o":"m 548 60 q 464 16 522 37 q 351 -12 407 -5 q 406 -97 382 -47 q 427 -199 429 -148 q 379 -304 423 -273 q 248 -335 334 -335 l 247 -335 q 195 -330 223 -335 q 149 -317 167 -325 l 150 -213 q 180 -220 163 -218 q 208 -222 198 -222 l 209 -222 q 264 -216 244 -222 q 295 -189 284 -210 q 305 -127 305 -168 q 295 -69 305 -100 q 272 -13 285 -39 q 175 33 208 -5 q 142 146 142 70 l 142 674 l 45 674 l 45 739 q 89 752 64 743 q 121 766 114 761 q 158 819 144 782 q 185 892 168 842 q 208 968 201 943 l 296 968 l 297 771 l 525 771 l 525 674 l 298 674 l 298 264 q 302 149 298 181 q 322 107 307 117 q 375 98 336 98 l 376 98 q 455 107 411 98 q 524 125 500 116 l 525 125 l 548 60 z "},"ț":{"ha":566,"x_min":45,"x_max":548,"o":"m 315 -380 l 262 -353 l 262 -341 q 291 -308 280 -333 q 302 -254 302 -282 q 294 -227 302 -237 q 271 -207 286 -216 q 251 -185 258 -199 q 244 -148 244 -172 q 258 -104 244 -120 q 292 -81 273 -87 q 327 -75 311 -75 l 334 -75 q 403 -103 378 -75 q 429 -184 429 -132 q 407 -278 429 -234 q 357 -350 385 -321 q 317 -380 330 -378 l 315 -380 m 45 674 l 45 739 q 89 752 64 743 q 121 766 114 761 q 158 819 144 782 q 185 892 168 842 q 208 968 201 943 l 296 968 l 297 771 l 525 771 l 525 674 l 298 674 l 298 264 q 302 149 298 181 q 322 107 307 117 q 375 98 336 98 l 376 98 q 455 107 411 98 q 524 125 500 116 l 525 125 l 548 60 q 487 25 528 43 q 399 -3 446 8 q 313 -15 353 -15 l 312 -15 q 185 22 228 -15 q 142 146 142 59 l 142 674 l 45 674 z "},"ṫ":{"ha":566,"x_min":45,"x_max":548,"o":"m 45 674 l 45 739 q 89 752 64 743 q 121 766 114 761 q 158 819 144 782 q 185 892 168 842 q 208 968 201 943 l 296 968 l 297 771 l 525 771 l 525 674 l 298 674 l 298 264 q 302 149 298 181 q 322 107 307 117 q 375 98 336 98 l 376 98 q 455 107 411 98 q 524 125 500 116 l 525 125 l 548 60 q 487 25 528 43 q 399 -3 446 8 q 313 -15 353 -15 l 312 -15 q 185 22 228 -15 q 142 146 142 59 l 142 674 l 45 674 m 151 1131 q 177 1208 151 1177 q 252 1240 204 1240 l 253 1240 q 302 1227 281 1240 q 335 1192 323 1214 q 346 1146 346 1171 q 319 1068 346 1099 q 240 1038 292 1038 l 239 1038 q 175 1064 200 1038 q 151 1131 151 1090 z "},"u":{"ha":886,"x_min":56,"x_max":835,"o":"m 616 92 q 506 17 572 50 q 372 -16 439 -16 q 234 15 287 -16 q 156 111 181 45 q 131 284 131 176 l 131 677 l 56 703 l 56 768 l 256 789 l 257 789 l 286 770 l 286 292 q 297 171 286 214 q 338 107 309 127 q 422 87 367 87 q 520 108 475 87 q 599 155 566 128 l 599 677 l 502 703 l 502 769 l 716 789 l 718 789 l 753 770 l 753 77 l 835 77 l 835 9 q 767 -9 795 -3 q 701 -16 738 -16 q 636 1 657 -16 q 616 57 616 18 l 616 92 z "},"ú":{"ha":886,"x_min":56,"x_max":835,"o":"m 571 1230 l 572 1230 l 680 1136 q 608 1056 662 1106 q 494 961 553 1005 q 404 905 434 917 l 402 905 l 347 955 l 571 1230 m 616 92 q 506 17 572 50 q 372 -16 439 -16 q 234 15 287 -16 q 156 111 181 45 q 131 284 131 176 l 131 677 l 56 703 l 56 768 l 256 789 l 257 789 l 286 770 l 286 292 q 297 171 286 214 q 338 107 309 127 q 422 87 367 87 q 520 108 475 87 q 599 155 566 128 l 599 677 l 502 703 l 502 769 l 716 789 l 718 789 l 753 770 l 753 77 l 835 77 l 835 9 q 767 -9 795 -3 q 701 -16 738 -16 q 636 1 657 -16 q 616 57 616 18 l 616 92 z "},"ŭ":{"ha":886,"x_min":56,"x_max":835,"o":"m 616 92 q 506 17 572 50 q 372 -16 439 -16 q 234 15 287 -16 q 156 111 181 45 q 131 284 131 176 l 131 677 l 56 703 l 56 768 l 256 789 l 257 789 l 286 770 l 286 292 q 297 171 286 214 q 338 107 309 127 q 422 87 367 87 q 520 108 475 87 q 599 155 566 128 l 599 677 l 502 703 l 502 769 l 716 789 l 718 789 l 753 770 l 753 77 l 835 77 l 835 9 q 767 -9 795 -3 q 701 -16 738 -16 q 636 1 657 -16 q 616 57 616 18 l 616 92 m 208 1148 q 210 1189 208 1178 l 290 1189 q 292 1164 290 1175 q 334 1077 299 1115 q 441 1038 369 1038 q 547 1076 513 1038 q 587 1164 580 1114 q 589 1189 589 1180 l 666 1189 q 668 1170 667 1183 q 669 1149 669 1158 q 640 1034 669 1087 q 559 948 612 980 q 440 916 507 916 q 317 948 370 916 q 236 1033 264 980 q 208 1148 208 1086 z "},"û":{"ha":886,"x_min":56,"x_max":835,"o":"m 378 1208 l 500 1208 l 691 938 l 630 899 l 439 1089 l 239 898 l 183 937 l 378 1208 m 616 92 q 506 17 572 50 q 372 -16 439 -16 q 234 15 287 -16 q 156 111 181 45 q 131 284 131 176 l 131 677 l 56 703 l 56 768 l 256 789 l 257 789 l 286 770 l 286 292 q 297 171 286 214 q 338 107 309 127 q 422 87 367 87 q 520 108 475 87 q 599 155 566 128 l 599 677 l 502 703 l 502 769 l 716 789 l 718 789 l 753 770 l 753 77 l 835 77 l 835 9 q 767 -9 795 -3 q 701 -16 738 -16 q 636 1 657 -16 q 616 57 616 18 l 616 92 z "},"ü":{"ha":886,"x_min":56,"x_max":835,"o":"m 175 1012 q 201 1089 175 1057 q 275 1120 227 1120 l 275 1120 q 341 1093 317 1120 q 365 1027 365 1065 q 338 949 365 979 q 261 919 311 919 l 260 919 q 198 945 222 919 q 175 1012 175 972 m 492 1012 q 518 1089 492 1057 q 592 1120 545 1120 l 593 1120 q 659 1093 635 1120 q 683 1027 683 1065 q 656 949 683 979 q 578 919 629 919 l 577 919 q 516 946 540 919 q 492 1012 492 973 m 616 92 q 506 17 572 50 q 372 -16 439 -16 q 234 15 287 -16 q 156 111 181 45 q 131 284 131 176 l 131 677 l 56 703 l 56 768 l 256 789 l 257 789 l 286 770 l 286 292 q 297 171 286 214 q 338 107 309 127 q 422 87 367 87 q 520 108 475 87 q 599 155 566 128 l 599 677 l 502 703 l 502 769 l 716 789 l 718 789 l 753 770 l 753 77 l 835 77 l 835 9 q 767 -9 795 -3 q 701 -16 738 -16 q 636 1 657 -16 q 616 57 616 18 l 616 92 z "},"ù":{"ha":886,"x_min":56,"x_max":835,"o":"m 616 92 q 506 17 572 50 q 372 -16 439 -16 q 234 15 287 -16 q 156 111 181 45 q 131 284 131 176 l 131 677 l 56 703 l 56 768 l 256 789 l 257 789 l 286 770 l 286 292 q 297 171 286 214 q 338 107 309 127 q 422 87 367 87 q 520 108 475 87 q 599 155 566 128 l 599 677 l 502 703 l 502 769 l 716 789 l 718 789 l 753 770 l 753 77 l 835 77 l 835 9 q 767 -9 795 -3 q 701 -16 738 -16 q 636 1 657 -16 q 616 57 616 18 l 616 92 m 307 1230 l 308 1230 l 532 955 l 476 905 l 475 905 q 386 960 446 916 q 272 1055 327 1004 q 199 1136 217 1105 l 307 1230 z "},"ű":{"ha":886,"x_min":56,"x_max":847,"o":"m 616 92 q 506 17 572 50 q 372 -16 439 -16 q 234 15 287 -16 q 156 111 181 45 q 131 284 131 176 l 131 677 l 56 703 l 56 768 l 256 789 l 257 789 l 286 770 l 286 292 q 297 171 286 214 q 338 107 309 127 q 422 87 367 87 q 520 108 475 87 q 599 155 566 128 l 599 677 l 502 703 l 502 769 l 716 789 l 718 789 l 753 770 l 753 77 l 835 77 l 835 9 q 767 -9 795 -3 q 701 -16 738 -16 q 636 1 657 -16 q 616 57 616 18 l 616 92 m 418 1230 l 516 1145 q 446 1065 495 1112 q 342 976 397 1019 q 254 912 288 932 l 203 955 l 418 1230 m 753 1227 l 847 1145 q 780 1067 829 1115 q 673 976 730 1020 q 583 912 616 931 l 532 956 l 753 1227 z "},"ū":{"ha":886,"x_min":56,"x_max":835,"o":"m 616 92 q 506 17 572 50 q 372 -16 439 -16 q 234 15 287 -16 q 156 111 181 45 q 131 284 131 176 l 131 677 l 56 703 l 56 768 l 256 789 l 257 789 l 286 770 l 286 292 q 297 171 286 214 q 338 107 309 127 q 422 87 367 87 q 520 108 475 87 q 599 155 566 128 l 599 677 l 502 703 l 502 769 l 716 789 l 718 789 l 753 770 l 753 77 l 835 77 l 835 9 q 767 -9 795 -3 q 701 -16 738 -16 q 636 1 657 -16 q 616 57 616 18 l 616 92 m 629 1076 l 629 968 l 250 968 l 250 1076 l 629 1076 z "},"ų":{"ha":886,"x_min":56,"x_max":835,"o":"m 665 -12 q 628 10 640 -7 q 616 57 616 27 l 616 92 q 506 17 572 50 q 372 -16 439 -16 q 234 15 287 -16 q 156 111 181 45 q 131 284 131 176 l 131 677 l 56 703 l 56 768 l 256 789 l 257 789 l 286 770 l 286 292 q 297 171 286 214 q 338 107 309 127 q 422 87 367 87 q 520 108 475 87 q 599 155 566 128 l 599 677 l 502 703 l 502 769 l 716 789 l 718 789 l 753 770 l 753 77 l 835 77 l 835 9 q 773 -7 801 -2 q 668 -80 707 -37 q 629 -161 629 -123 q 656 -225 629 -203 q 729 -248 684 -248 q 825 -225 774 -248 l 825 -300 q 752 -334 796 -321 q 665 -347 708 -347 q 576 -332 616 -347 q 512 -286 536 -317 q 488 -208 488 -255 q 512 -137 488 -175 q 576 -66 536 -100 q 665 -12 617 -33 z "},"ů":{"ha":886,"x_min":56,"x_max":835,"o":"m 200 1080 q 233 1182 200 1139 q 320 1247 267 1225 q 434 1270 374 1270 l 435 1270 q 553 1245 504 1270 q 627 1178 602 1221 q 652 1081 652 1135 q 621 978 652 1021 q 538 911 590 934 q 425 888 486 888 l 424 888 q 299 913 349 888 q 224 982 249 938 q 200 1080 200 1025 m 429 960 q 518 988 490 960 q 545 1075 545 1017 q 517 1162 545 1128 q 429 1196 488 1196 l 429 1196 q 338 1166 368 1196 q 308 1084 308 1137 q 338 995 308 1031 q 428 960 369 960 l 429 960 m 616 92 q 506 17 572 50 q 372 -16 439 -16 q 234 15 287 -16 q 156 111 181 45 q 131 284 131 176 l 131 677 l 56 703 l 56 768 l 256 789 l 257 789 l 286 770 l 286 292 q 297 171 286 214 q 338 107 309 127 q 422 87 367 87 q 520 108 475 87 q 599 155 566 128 l 599 677 l 502 703 l 502 769 l 716 789 l 718 789 l 753 770 l 753 77 l 835 77 l 835 9 q 767 -9 795 -3 q 701 -16 738 -16 q 636 1 657 -16 q 616 57 616 18 l 616 92 z "},"ũ":{"ha":886,"x_min":56,"x_max":835,"o":"m 616 92 q 506 17 572 50 q 372 -16 439 -16 q 234 15 287 -16 q 156 111 181 45 q 131 284 131 176 l 131 677 l 56 703 l 56 768 l 256 789 l 257 789 l 286 770 l 286 292 q 297 171 286 214 q 338 107 309 127 q 422 87 367 87 q 520 108 475 87 q 599 155 566 128 l 599 677 l 502 703 l 502 769 l 716 789 l 718 789 l 753 770 l 753 77 l 835 77 l 835 9 q 767 -9 795 -3 q 701 -16 738 -16 q 636 1 657 -16 q 616 57 616 18 l 616 92 m 151 982 q 188 1048 161 1015 q 256 1104 215 1082 q 345 1127 296 1127 q 397 1118 374 1127 q 437 1096 420 1109 q 477 1063 454 1084 q 523 1026 505 1038 q 564 1015 541 1015 q 613 1028 593 1015 q 642 1056 633 1042 q 665 1094 652 1070 l 731 1052 q 662 948 707 989 q 549 906 616 906 q 498 915 522 906 q 458 936 475 924 q 418 968 441 948 q 368 1007 389 994 q 321 1019 347 1019 q 273 1006 294 1019 q 242 978 252 992 q 216 940 231 964 l 151 982 z "},"v":{"ha":793,"x_min":-2,"x_max":800,"o":"m -2 699 l -2 771 l 337 771 l 337 699 l 235 682 l 368 298 l 428 116 l 478 292 l 606 682 l 513 699 l 513 771 l 800 771 l 800 699 l 729 681 l 467 -11 l 340 -11 l 62 682 l -2 699 z "},"w":{"ha":1192,"x_min":-9,"x_max":1206,"o":"m -9 699 l -9 771 l 330 771 l 330 699 l 223 682 l 335 282 l 374 109 l 410 282 l 547 771 l 691 771 l 831 283 l 868 111 l 909 281 l 1017 681 l 912 699 l 912 771 l 1206 771 l 1206 699 l 1128 682 l 916 -11 l 774 -11 l 628 481 l 593 644 l 567 481 l 426 -11 l 288 -11 l 65 682 l -9 699 z "},"ẃ":{"ha":1192,"x_min":-9,"x_max":1206,"o":"m 747 1230 l 748 1230 l 856 1136 q 784 1056 838 1106 q 670 961 730 1005 q 580 905 610 917 l 578 905 l 524 955 l 747 1230 m -9 699 l -9 771 l 330 771 l 330 699 l 223 682 l 335 282 l 374 109 l 410 282 l 547 771 l 691 771 l 831 283 l 868 111 l 909 281 l 1017 681 l 912 699 l 912 771 l 1206 771 l 1206 699 l 1128 682 l 916 -11 l 774 -11 l 628 481 l 593 644 l 567 481 l 426 -11 l 288 -11 l 65 682 l -9 699 z "},"ŵ":{"ha":1192,"x_min":-9,"x_max":1206,"o":"m 554 1208 l 676 1208 l 867 938 l 806 899 l 615 1089 l 414 898 l 359 937 l 554 1208 m -9 699 l -9 771 l 330 771 l 330 699 l 223 682 l 335 282 l 374 109 l 410 282 l 547 771 l 691 771 l 831 283 l 868 111 l 909 281 l 1017 681 l 912 699 l 912 771 l 1206 771 l 1206 699 l 1128 682 l 916 -11 l 774 -11 l 628 481 l 593 644 l 567 481 l 426 -11 l 288 -11 l 65 682 l -9 699 z "},"ẅ":{"ha":1192,"x_min":-9,"x_max":1206,"o":"m 365 1012 q 391 1089 365 1057 q 465 1120 416 1120 l 465 1120 q 531 1093 507 1120 q 555 1027 555 1065 q 528 949 555 979 q 451 919 501 919 l 450 919 q 388 945 412 919 q 365 1012 365 972 m 682 1012 q 708 1089 682 1057 q 782 1120 734 1120 l 783 1120 q 849 1093 825 1120 q 873 1027 873 1065 q 846 949 873 979 q 768 919 819 919 l 767 919 q 706 946 730 919 q 682 1012 682 973 m -9 699 l -9 771 l 330 771 l 330 699 l 223 682 l 335 282 l 374 109 l 410 282 l 547 771 l 691 771 l 831 283 l 868 111 l 909 281 l 1017 681 l 912 699 l 912 771 l 1206 771 l 1206 699 l 1128 682 l 916 -11 l 774 -11 l 628 481 l 593 644 l 567 481 l 426 -11 l 288 -11 l 65 682 l -9 699 z "},"ẁ":{"ha":1192,"x_min":-9,"x_max":1206,"o":"m -9 699 l -9 771 l 330 771 l 330 699 l 223 682 l 335 282 l 374 109 l 410 282 l 547 771 l 691 771 l 831 283 l 868 111 l 909 281 l 1017 681 l 912 699 l 912 771 l 1206 771 l 1206 699 l 1128 682 l 916 -11 l 774 -11 l 628 481 l 593 644 l 567 481 l 426 -11 l 288 -11 l 65 682 l -9 699 m 479 1230 l 479 1230 l 703 955 l 648 905 l 647 905 q 558 960 617 916 q 444 1055 498 1004 q 371 1136 389 1105 l 479 1230 z "},"x":{"ha":826,"x_min":9,"x_max":824,"o":"m 102 85 l 338 385 l 109 682 l 28 699 l 28 771 l 388 771 l 388 699 l 294 682 l 414 515 l 454 454 l 488 514 l 613 682 l 513 699 l 513 771 l 812 771 l 812 699 l 728 682 l 505 402 l 745 84 l 824 72 l 824 0 l 463 0 l 463 72 l 551 85 l 387 326 l 352 266 l 227 85 l 338 72 l 338 0 l 9 0 l 9 72 l 102 85 z "},"y":{"ha":800,"x_min":-2,"x_max":799,"o":"m 99 -208 q 132 -216 107 -212 q 180 -220 157 -220 q 255 -203 220 -220 q 324 -138 289 -186 q 393 0 359 -90 l 316 0 l 62 682 l -2 699 l -2 771 l 343 771 l 343 699 l 237 682 l 368 272 l 428 75 l 482 273 l 605 682 l 514 699 l 514 771 l 799 771 l 799 699 l 730 682 q 571 197 632 378 q 492 -23 509 16 q 405 -208 446 -140 q 310 -311 364 -275 q 178 -346 256 -346 q 133 -343 157 -346 q 99 -336 109 -340 l 99 -208 z "},"ý":{"ha":800,"x_min":-2,"x_max":799,"o":"m 99 -208 q 132 -216 107 -212 q 180 -220 157 -220 q 255 -203 220 -220 q 324 -138 289 -186 q 393 0 359 -90 l 316 0 l 62 682 l -2 699 l -2 771 l 343 771 l 343 699 l 237 682 l 368 272 l 428 75 l 482 273 l 605 682 l 514 699 l 514 771 l 799 771 l 799 699 l 730 682 q 571 197 632 378 q 492 -23 509 16 q 405 -208 446 -140 q 310 -311 364 -275 q 178 -346 256 -346 q 133 -343 157 -346 q 99 -336 109 -340 l 99 -208 m 553 1230 l 554 1230 l 662 1136 q 590 1056 644 1106 q 476 961 536 1005 q 386 905 416 917 l 385 905 l 330 955 l 553 1230 z "},"ŷ":{"ha":800,"x_min":-2,"x_max":799,"o":"m 99 -208 q 132 -216 107 -212 q 180 -220 157 -220 q 255 -203 220 -220 q 324 -138 289 -186 q 393 0 359 -90 l 316 0 l 62 682 l -2 699 l -2 771 l 343 771 l 343 699 l 237 682 l 368 272 l 428 75 l 482 273 l 605 682 l 514 699 l 514 771 l 799 771 l 799 699 l 730 682 q 571 197 632 378 q 492 -23 509 16 q 405 -208 446 -140 q 310 -311 364 -275 q 178 -346 256 -346 q 133 -343 157 -346 q 99 -336 109 -340 l 99 -208 m 361 1208 l 483 1208 l 673 938 l 612 899 l 422 1089 l 221 898 l 165 937 l 361 1208 z "},"ÿ":{"ha":800,"x_min":-2,"x_max":799,"o":"m 99 -208 q 132 -216 107 -212 q 180 -220 157 -220 q 255 -203 220 -220 q 324 -138 289 -186 q 393 0 359 -90 l 316 0 l 62 682 l -2 699 l -2 771 l 343 771 l 343 699 l 237 682 l 368 272 l 428 75 l 482 273 l 605 682 l 514 699 l 514 771 l 799 771 l 799 699 l 730 682 q 571 197 632 378 q 492 -23 509 16 q 405 -208 446 -140 q 310 -311 364 -275 q 178 -346 256 -346 q 133 -343 157 -346 q 99 -336 109 -340 l 99 -208 m 170 1012 q 196 1089 170 1057 q 270 1120 222 1120 l 271 1120 q 336 1093 312 1120 q 360 1027 360 1065 q 333 949 360 979 q 256 919 307 919 l 256 919 q 194 945 217 919 q 170 1012 170 972 m 488 1012 q 514 1089 488 1057 q 587 1120 540 1120 l 588 1120 q 654 1093 630 1120 q 678 1027 678 1065 q 651 949 678 979 q 573 919 625 919 l 572 919 q 511 946 535 919 q 488 1012 488 973 z "},"ẏ":{"ha":800,"x_min":-2,"x_max":799,"o":"m 99 -208 q 132 -216 107 -212 q 180 -220 157 -220 q 255 -203 220 -220 q 324 -138 289 -186 q 393 0 359 -90 l 316 0 l 62 682 l -2 699 l -2 771 l 343 771 l 343 699 l 237 682 l 368 272 l 428 75 l 482 273 l 605 682 l 514 699 l 514 771 l 799 771 l 799 699 l 730 682 q 571 197 632 378 q 492 -23 509 16 q 405 -208 446 -140 q 310 -311 364 -275 q 178 -346 256 -346 q 133 -343 157 -346 q 99 -336 109 -340 l 99 -208 m 327 1010 q 354 1088 327 1056 q 429 1120 380 1120 l 429 1120 q 479 1106 458 1120 q 511 1072 500 1093 q 522 1025 522 1050 q 495 947 522 978 q 416 917 468 917 l 416 917 q 352 943 376 917 q 327 1010 327 970 z "},"ỳ":{"ha":800,"x_min":-2,"x_max":799,"o":"m 99 -208 q 132 -216 107 -212 q 180 -220 157 -220 q 255 -203 220 -220 q 324 -138 289 -186 q 393 0 359 -90 l 316 0 l 62 682 l -2 699 l -2 771 l 343 771 l 343 699 l 237 682 l 368 272 l 428 75 l 482 273 l 605 682 l 514 699 l 514 771 l 799 771 l 799 699 l 730 682 q 571 197 632 378 q 492 -23 509 16 q 405 -208 446 -140 q 310 -311 364 -275 q 178 -346 256 -346 q 133 -343 157 -346 q 99 -336 109 -340 l 99 -208 m 290 1230 l 290 1230 l 514 955 l 458 905 l 458 905 q 369 960 428 916 q 254 1055 309 1004 q 182 1136 199 1105 l 290 1230 z "},"z":{"ha":772,"x_min":42,"x_max":717,"o":"m 534 688 l 218 678 l 192 549 l 99 549 l 99 771 l 684 771 l 713 709 l 316 169 l 227 82 l 577 97 l 629 244 l 717 234 l 696 0 l 73 0 l 42 64 l 445 599 l 534 688 z "},"ź":{"ha":772,"x_min":42,"x_max":717,"o":"m 526 1230 l 526 1230 l 634 1136 q 562 1056 616 1106 q 448 961 508 1005 q 358 905 389 917 l 357 905 l 302 955 l 526 1230 m 534 688 l 218 678 l 192 549 l 99 549 l 99 771 l 684 771 l 713 709 l 316 169 l 227 82 l 577 97 l 629 244 l 717 234 l 696 0 l 73 0 l 42 64 l 445 599 l 534 688 z "},"ž":{"ha":772,"x_min":42,"x_max":717,"o":"m 203 1220 l 395 1029 l 591 1221 l 648 1180 l 456 910 l 334 910 l 142 1179 l 203 1220 m 534 688 l 218 678 l 192 549 l 99 549 l 99 771 l 684 771 l 713 709 l 316 169 l 227 82 l 577 97 l 629 244 l 717 234 l 696 0 l 73 0 l 42 64 l 445 599 l 534 688 z "},"ż":{"ha":772,"x_min":42,"x_max":717,"o":"m 534 688 l 218 678 l 192 549 l 99 549 l 99 771 l 684 771 l 713 709 l 316 169 l 227 82 l 577 97 l 629 244 l 717 234 l 696 0 l 73 0 l 42 64 l 445 599 l 534 688 m 299 1010 q 326 1088 299 1056 q 401 1120 353 1120 l 401 1120 q 451 1106 430 1120 q 483 1072 472 1093 q 494 1025 494 1050 q 467 947 494 978 q 389 917 440 917 l 388 917 q 324 943 349 917 q 299 1010 299 970 z "},"ﬁ":{"ha":1026,"x_min":45,"x_max":988,"o":"m 175 86 l 175 672 l 45 672 l 45 739 l 175 770 l 175 832 q 218 991 175 918 q 329 1107 260 1064 q 471 1150 397 1150 q 518 1146 496 1150 q 552 1139 541 1143 l 552 987 q 503 1010 541 998 q 429 1023 465 1023 q 353 992 377 1023 q 330 887 330 961 l 330 770 l 517 770 l 517 672 l 330 672 l 330 85 l 477 73 l 477 0 l 60 0 l 60 73 l 175 86 m 692 1010 q 719 1088 692 1056 q 793 1120 745 1120 l 794 1120 q 844 1106 823 1120 q 876 1072 865 1093 q 887 1025 887 1050 q 860 947 887 978 q 781 917 833 917 l 781 917 q 716 943 741 917 q 692 1010 692 970 m 724 85 l 724 654 l 626 682 l 626 762 l 842 789 l 845 789 l 880 763 l 880 85 l 988 74 l 988 0 l 614 0 l 614 74 l 724 85 z "},"ﬂ":{"ha":1027,"x_min":45,"x_max":989,"o":"m 175 86 l 175 672 l 45 672 l 45 739 l 175 770 l 175 832 q 218 991 175 918 q 329 1107 260 1064 q 471 1150 397 1150 q 518 1146 496 1150 q 552 1139 541 1143 l 552 987 q 503 1010 541 998 q 429 1023 465 1023 q 353 992 377 1023 q 330 887 330 961 l 330 770 l 517 770 l 517 672 l 330 672 l 330 85 l 477 73 l 477 0 l 60 0 l 60 73 l 175 86 m 720 85 l 720 1031 l 608 1045 l 608 1109 l 840 1139 l 841 1139 l 874 1116 l 874 85 l 989 74 l 989 0 l 610 0 l 610 74 l 720 85 z "},"ª":{"ha":704,"x_min":78,"x_max":676,"o":"m 78 630 q 177 778 78 729 q 465 833 276 827 l 465 850 q 453 938 465 907 q 412 981 441 968 q 331 993 384 993 q 134 944 241 993 l 96 1017 q 169 1052 122 1034 q 267 1081 215 1069 q 361 1093 319 1093 q 495 1071 442 1093 q 575 999 548 1049 q 602 867 602 949 l 602 533 l 676 533 l 676 473 q 549 454 600 454 q 505 457 521 454 q 481 472 490 460 q 472 507 472 483 l 472 540 q 384 478 432 503 q 271 454 336 454 q 170 476 214 454 q 102 539 125 499 q 78 630 78 579 m 465 599 l 465 767 q 322 750 374 764 q 248 709 270 736 q 227 641 227 683 q 254 571 227 598 q 331 544 282 544 q 384 553 356 544 q 433 575 411 562 q 464 600 455 589 l 465 599 z "},"º":{"ha":713,"x_min":64,"x_max":648,"o":"m 65 780 q 110 953 66 883 q 223 1057 155 1023 q 364 1090 291 1090 q 517 1054 453 1090 q 614 948 581 1018 q 648 779 648 878 q 604 597 648 669 q 493 492 560 526 q 355 458 426 458 q 205 494 271 458 q 101 602 139 530 q 65 780 64 674 m 496 765 q 460 951 496 884 q 359 1019 424 1019 q 216 785 216 1019 q 235 649 216 707 q 285 561 254 591 q 354 530 317 530 q 434 548 404 530 q 480 618 465 567 q 496 765 496 669 z "},"А":{"ha":961,"x_min":-23,"x_max":982,"o":"m 63 90 l 397 1040 l 559 1040 l 896 90 l 982 74 l 982 0 l 610 0 l 610 74 l 720 90 l 656 288 l 257 288 l 195 90 l 311 74 l 311 0 l -22 0 l -23 74 l 63 90 m 628 374 l 483 820 l 453 934 l 423 819 l 284 374 l 628 374 z "},"Б":{"ha":911,"x_min":40,"x_max":866,"o":"m 40 74 l 180 90 l 180 939 l 41 957 l 41 1032 l 795 1032 l 810 772 l 709 772 l 663 944 l 338 952 l 338 618 q 415 622 364 620 q 512 624 466 624 q 777 546 688 624 q 866 323 866 468 q 820 141 866 216 q 690 27 773 66 q 498 -11 607 -11 q 410 -7 488 -11 q 264 0 305 0 l 40 0 l 40 74 m 338 82 q 392 72 365 75 q 467 69 418 69 q 640 132 581 69 q 699 311 699 194 q 638 479 699 424 q 468 535 578 535 q 338 531 393 535 l 338 82 z "},"В":{"ha":950,"x_min":65,"x_max":901,"o":"m 179 90 l 179 940 l 67 957 l 67 1032 l 252 1032 q 370 1038 298 1032 q 465 1042 425 1042 q 742 983 656 1042 q 827 808 827 924 q 803 691 827 744 q 731 602 778 637 q 620 553 684 566 q 768 526 705 555 q 866 439 831 496 q 901 308 901 383 q 802 80 901 168 q 475 -8 703 -8 q 422 -7 450 -8 q 383 -5 395 -5 q 253 0 301 0 l 65 0 l 65 74 l 179 90 m 338 584 q 477 581 372 581 q 669 780 669 581 q 648 884 669 844 q 582 944 628 924 q 457 964 536 964 q 376 961 408 964 q 338 956 343 957 l 338 584 m 337 83 q 389 74 353 76 q 471 71 424 71 q 668 126 607 71 q 728 286 728 181 q 705 407 728 361 q 630 474 681 453 q 495 496 578 496 l 429 496 q 337 494 358 496 l 337 83 z "},"Г":{"ha":796,"x_min":34,"x_max":774,"o":"m 579 73 l 579 0 l 34 0 l 34 73 l 186 92 l 186 939 l 39 959 l 39 1032 l 764 1032 l 774 665 l 673 665 l 631 943 l 348 952 l 348 91 l 579 73 z "},"Ѓ":{"ha":796,"x_min":34,"x_max":774,"o":"m 523 1364 l 524 1364 l 627 1278 q 551 1211 603 1246 q 442 1146 498 1175 q 353 1107 386 1118 l 353 1107 l 298 1154 l 523 1364 m 579 73 l 579 0 l 34 0 l 34 73 l 186 92 l 186 939 l 39 959 l 39 1032 l 764 1032 l 774 665 l 673 665 l 631 943 l 348 952 l 348 91 l 579 73 z "},"Ґ":{"ha":769,"x_min":31,"x_max":754,"o":"m 182 939 l 182 92 l 31 73 l 31 0 l 574 0 l 574 73 l 344 91 l 344 952 l 741 944 l 754 1276 l 653 1276 l 609 1032 l 34 1032 l 34 959 l 182 939 z "},"Д":{"ha":1020,"x_min":26,"x_max":963,"o":"m 47 86 l 47 90 l 145 90 q 218 226 178 133 q 288 481 257 319 q 319 861 319 642 l 319 940 l 177 957 l 177 1032 l 963 1032 l 963 957 l 833 940 l 833 90 l 958 90 q 948 -88 958 75 q 937 -256 938 -252 l 840 -256 q 822 -122 839 -230 q 800 0 805 -14 l 188 0 q 158 -115 184 -7 q 123 -257 131 -223 l 26 -257 q 34 -68 28 -201 q 43 90 41 65 l 47 86 m 676 90 l 677 944 l 412 944 l 412 852 q 390 501 414 659 q 334 239 367 342 q 274 90 302 136 l 676 90 z "},"Е":{"ha":908,"x_min":65,"x_max":875,"o":"m 179 90 l 179 940 l 67 957 l 67 1032 l 774 1032 l 793 817 l 705 817 l 663 946 l 338 955 l 338 572 l 559 576 l 579 688 l 667 688 l 667 367 l 579 367 l 559 486 l 338 490 l 338 84 l 711 99 l 788 269 l 875 243 l 835 0 l 65 0 l 65 74 l 179 90 z "},"Ѐ":{"ha":908,"x_min":65,"x_max":875,"o":"m 345 1364 l 345 1364 l 570 1154 l 515 1107 l 515 1107 q 424 1147 481 1118 q 315 1212 367 1177 q 241 1278 263 1248 l 345 1364 m 179 90 l 179 940 l 67 957 l 67 1032 l 774 1032 l 793 817 l 705 817 l 663 946 l 338 955 l 338 572 l 559 576 l 579 688 l 667 688 l 667 367 l 579 367 l 559 486 l 338 490 l 338 84 l 711 99 l 788 269 l 875 243 l 835 0 l 65 0 l 65 74 l 179 90 z "},"Ё":{"ha":908,"x_min":65,"x_max":875,"o":"m 209 1236 q 235 1314 209 1282 q 309 1345 261 1345 l 309 1345 q 357 1332 337 1345 q 388 1297 378 1318 q 399 1252 399 1276 q 372 1174 399 1204 q 294 1144 345 1144 l 294 1144 q 233 1171 256 1144 q 209 1236 209 1198 m 548 1236 q 574 1314 548 1282 q 647 1345 600 1345 l 648 1345 q 696 1332 676 1345 q 727 1297 717 1318 q 738 1252 738 1276 q 711 1174 738 1204 q 634 1144 685 1144 l 633 1144 q 572 1171 595 1144 q 548 1236 548 1198 m 179 90 l 179 940 l 67 957 l 67 1032 l 774 1032 l 793 817 l 705 817 l 663 946 l 338 955 l 338 572 l 559 576 l 579 688 l 667 688 l 667 367 l 579 367 l 559 486 l 338 490 l 338 84 l 711 99 l 788 269 l 875 243 l 835 0 l 65 0 l 65 74 l 179 90 z "},"Ж":{"ha":1445,"x_min":9,"x_max":1436,"o":"m 1255 0 q 1204 31 1232 0 q 1147 106 1175 61 q 1076 227 1118 152 q 999 357 1029 309 q 936 439 968 406 q 876 473 904 473 l 799 473 l 799 90 l 916 72 l 916 0 l 532 0 l 532 74 l 646 91 l 646 473 l 569 473 q 509 439 541 473 q 446 356 477 406 q 369 226 414 306 q 297 104 324 148 q 242 30 270 60 q 191 0 214 0 l 9 0 l 9 74 l 64 90 q 115 137 85 97 q 197 260 144 177 q 280 386 245 336 q 355 479 315 437 q 430 538 394 522 l 139 940 l 31 957 l 31 1032 l 372 1032 l 372 957 l 268 939 l 531 547 l 646 547 l 646 939 l 534 957 l 534 1032 l 912 1032 l 912 957 l 799 940 l 799 547 l 914 547 l 1177 939 l 1074 957 l 1074 1032 l 1416 1032 l 1416 957 l 1307 940 l 1015 538 q 1091 479 1052 522 q 1165 387 1131 437 q 1249 260 1199 337 q 1331 137 1301 177 q 1381 90 1360 97 l 1436 74 l 1436 0 l 1255 0 z "},"З":{"ha":843,"x_min":62,"x_max":778,"o":"m 207 111 q 389 75 271 75 q 537 131 484 75 q 590 292 590 186 q 544 436 590 381 q 374 492 498 492 l 275 492 l 275 576 l 357 576 q 462 599 412 576 q 545 670 513 622 q 576 788 576 718 q 525 920 576 878 q 389 963 474 963 q 290 947 328 963 q 239 905 252 932 l 209 786 l 115 786 l 100 998 q 192 1015 128 1000 q 298 1036 257 1029 q 381 1043 339 1043 q 652 985 556 1043 q 747 809 747 926 q 712 679 747 734 q 623 592 677 624 q 507 547 568 559 q 658 511 597 545 q 748 423 719 477 q 778 304 778 369 q 677 75 778 157 q 358 -8 576 -8 q 196 8 267 -8 q 62 47 125 24 l 92 286 l 161 286 l 207 111 z "},"И":{"ha":1171,"x_min":66,"x_max":1107,"o":"m 835 940 l 720 957 l 720 1032 l 1101 1032 l 1101 957 l 991 939 l 991 90 l 1107 74 l 1107 0 l 717 0 l 717 74 l 835 90 l 835 775 l 750 640 l 336 138 l 336 91 l 458 74 l 458 0 l 66 0 l 66 74 l 180 91 l 180 939 l 71 957 l 71 1032 l 463 1032 l 463 958 l 336 940 l 336 263 l 429 406 l 835 904 l 835 940 z "},"Й":{"ha":1171,"x_min":66,"x_max":1107,"o":"m 326 1365 l 441 1365 q 464 1308 464 1365 q 493 1225 464 1255 q 591 1196 523 1196 q 689 1225 660 1196 q 719 1308 719 1255 q 742 1365 719 1365 l 857 1365 l 859 1335 q 591 1126 859 1126 q 393 1178 461 1126 q 324 1335 324 1230 l 326 1365 m 835 940 l 720 957 l 720 1032 l 1101 1032 l 1101 957 l 991 939 l 991 90 l 1107 74 l 1107 0 l 717 0 l 717 74 l 835 90 l 835 775 l 750 640 l 336 138 l 336 91 l 458 74 l 458 0 l 66 0 l 66 74 l 180 91 l 180 939 l 71 957 l 71 1032 l 463 1032 l 463 958 l 336 940 l 336 263 l 429 406 l 835 904 l 835 940 z "},"Ѝ":{"ha":1171,"x_min":66,"x_max":1107,"o":"m 489 1364 l 490 1364 l 714 1154 l 660 1107 l 659 1107 q 569 1147 626 1118 q 459 1212 511 1177 q 386 1278 408 1248 l 489 1364 m 835 940 l 720 957 l 720 1032 l 1101 1032 l 1101 957 l 991 939 l 991 90 l 1107 74 l 1107 0 l 717 0 l 717 74 l 835 90 l 835 775 l 750 640 l 336 138 l 336 91 l 458 74 l 458 0 l 66 0 l 66 74 l 180 91 l 180 939 l 71 957 l 71 1032 l 463 1032 l 463 958 l 336 940 l 336 263 l 429 406 l 835 904 l 835 940 z "},"Ҋ":{"ha":1169,"x_min":66,"x_max":1132,"o":"m 321 1365 l 436 1365 q 459 1308 459 1365 q 489 1225 459 1255 q 587 1196 518 1196 q 685 1225 655 1196 q 714 1308 714 1255 q 737 1365 714 1365 l 852 1365 l 854 1335 q 586 1126 854 1126 q 388 1178 456 1126 q 319 1335 319 1230 l 321 1365 m 835 940 l 720 957 l 720 1032 l 1101 1032 l 1101 957 l 991 939 l 991 92 l 1132 92 l 1132 0 q 1081 -125 1128 -7 q 1052 -198 1074 -143 q 1027 -257 1030 -253 l 927 -257 q 960 -141 934 -240 q 991 -25 986 -42 l 998 0 l 717 0 l 717 74 l 835 90 l 835 775 l 750 640 l 336 138 l 336 91 l 458 74 l 458 0 l 66 0 l 66 74 l 180 91 l 180 939 l 71 957 l 71 1032 l 463 1032 l 463 958 l 336 940 l 336 263 l 429 406 l 835 904 l 835 940 z "},"К":{"ha":980,"x_min":69,"x_max":971,"o":"m 790 0 q 739 31 767 0 q 684 105 711 61 q 613 226 656 150 q 536 356 567 307 q 473 439 505 406 q 413 473 441 473 l 335 473 l 335 90 l 451 72 l 451 0 l 69 0 l 69 74 l 180 91 l 180 939 l 69 957 l 69 1032 l 444 1032 l 444 957 l 335 939 l 335 547 l 449 547 l 718 939 l 608 957 l 608 1032 l 952 1032 l 952 957 l 843 940 l 551 538 q 626 481 587 524 q 700 388 665 439 q 783 261 735 338 q 865 138 835 179 q 917 90 895 97 l 971 74 l 971 0 l 790 0 z "},"Ќ":{"ha":980,"x_min":69,"x_max":971,"o":"m 650 1364 l 650 1364 l 754 1278 q 677 1211 730 1246 q 569 1146 625 1175 q 480 1107 513 1118 l 479 1107 l 425 1154 l 650 1364 m 790 0 q 739 31 767 0 q 684 105 711 61 q 613 226 656 150 q 536 356 567 307 q 473 439 505 406 q 413 473 441 473 l 335 473 l 335 90 l 451 72 l 451 0 l 69 0 l 69 74 l 180 91 l 180 939 l 69 957 l 69 1032 l 444 1032 l 444 957 l 335 939 l 335 547 l 449 547 l 718 939 l 608 957 l 608 1032 l 952 1032 l 952 957 l 843 940 l 551 538 q 626 481 587 524 q 700 388 665 439 q 783 261 735 338 q 865 138 835 179 q 917 90 895 97 l 971 74 l 971 0 l 790 0 z "},"Л":{"ha":1029,"x_min":40,"x_max":989,"o":"m 848 90 l 989 74 l 989 0 l 548 0 l 548 74 l 692 91 l 693 940 l 427 940 l 427 817 q 398 369 427 552 q 317 96 370 186 q 245 17 287 42 q 146 -8 203 -8 q 92 -6 119 -8 q 51 0 65 -3 l 40 123 q 72 120 45 123 q 149 118 99 118 q 198 132 177 118 q 236 179 219 146 q 288 309 267 233 q 321 511 309 385 q 333 832 333 638 l 333 939 l 174 957 l 174 1032 l 976 1032 l 976 957 l 848 939 l 848 90 z "},"М":{"ha":1388,"x_min":1,"x_max":1388,"o":"m 121 90 l 223 940 l 78 957 l 78 1032 l 448 1032 l 661 410 l 696 254 l 727 410 l 915 1032 l 1285 1032 l 1285 957 l 1135 939 l 1266 90 l 1388 74 l 1388 0 l 985 0 l 985 74 l 1105 90 l 1019 705 l 989 976 l 943 790 l 722 46 l 634 46 l 389 714 l 314 975 l 292 706 l 237 90 l 371 74 l 371 0 l 1 0 l 1 74 l 121 90 z "},"Н":{"ha":1153,"x_min":68,"x_max":1082,"o":"m 180 90 l 180 939 l 72 957 l 72 1032 l 456 1032 l 456 957 l 339 940 l 339 574 l 814 574 l 814 940 l 703 957 l 703 1032 l 1082 1032 l 1082 957 l 973 940 l 973 90 l 1082 74 l 1082 0 l 703 0 l 703 74 l 814 90 l 814 484 l 339 484 l 339 90 l 456 74 l 456 0 l 68 0 l 68 74 l 180 90 z "},"О":{"ha":1004,"x_min":45,"x_max":958,"o":"m 45 509 q 106 790 45 669 q 274 978 167 911 q 514 1044 380 1044 q 759 980 659 1044 q 908 801 859 917 q 958 527 958 685 q 897 242 958 365 q 727 52 836 119 q 484 -16 619 -16 q 244 50 342 -16 q 95 234 145 115 q 45 509 45 352 m 221 509 q 254 273 221 374 q 351 119 288 173 q 502 64 414 64 q 651 116 588 64 q 748 271 713 168 q 783 526 783 374 q 750 761 783 662 q 654 912 717 859 q 503 964 591 964 q 353 915 416 964 q 255 763 290 865 q 221 509 221 661 z "},"П":{"ha":1099,"x_min":62,"x_max":1050,"o":"m 180 91 l 180 939 l 62 957 l 62 1032 l 1038 1032 l 1038 958 l 920 939 l 920 90 l 1050 74 l 1050 0 l 650 0 l 650 74 l 762 91 l 762 943 l 338 943 l 338 91 l 466 74 l 466 0 l 68 0 l 68 74 l 180 91 z "},"Р":{"ha":901,"x_min":66,"x_max":866,"o":"m 180 90 l 180 939 l 74 957 l 74 1032 l 241 1032 q 340 1036 278 1032 q 481 1042 414 1042 q 709 1007 625 1042 q 830 908 794 973 q 866 745 866 843 q 814 551 866 633 q 672 426 763 469 q 463 382 581 382 q 388 385 427 382 q 340 389 349 387 l 340 90 l 523 74 l 523 0 l 66 0 l 66 74 l 180 90 m 463 463 q 630 527 566 463 q 695 743 695 592 q 638 912 695 861 q 460 964 581 964 q 377 958 419 964 q 339 955 355 955 l 339 469 q 463 463 372 463 z "},"С":{"ha":905,"x_min":45,"x_max":853,"o":"m 45 517 q 111 796 45 677 q 292 979 177 916 q 548 1043 406 1043 q 674 1034 613 1043 q 811 1008 734 1024 l 848 1001 l 835 747 l 734 747 l 696 920 q 638 950 682 939 q 524 962 595 962 q 371 912 437 962 q 266 766 304 863 q 229 533 229 669 q 262 301 229 407 q 366 130 296 195 q 541 65 436 65 q 698 115 650 65 l 757 258 l 853 245 l 823 38 q 788 32 805 37 q 744 18 771 28 q 656 -7 698 2 q 552 -16 614 -16 q 277 48 391 -16 q 104 231 163 111 q 45 517 45 350 z "},"Т":{"ha":957,"x_min":22,"x_max":926,"o":"m 397 90 l 397 951 l 171 945 l 120 661 l 22 661 l 45 1032 l 904 1032 l 926 661 l 829 661 l 777 945 l 560 951 l 560 90 l 752 74 l 752 0 l 220 0 l 220 74 l 397 90 z "},"У":{"ha":872,"x_min":-9,"x_max":896,"o":"m 168 117 q 216 116 183 116 q 267 115 250 115 q 336 124 311 115 q 377 154 361 132 q 410 218 394 175 l 71 940 l -9 957 l -9 1032 l 373 1032 l 373 957 l 243 939 l 454 460 l 492 341 l 533 461 l 705 940 l 594 957 l 594 1032 l 896 1032 l 896 957 l 820 939 l 530 220 l 519 192 q 469 87 493 129 q 404 15 446 46 q 298 -16 361 -16 q 226 -8 262 -16 q 168 9 190 -1 l 168 117 z "},"Ў":{"ha":872,"x_min":-9,"x_max":896,"o":"m 195 1365 l 311 1365 q 334 1308 334 1365 q 363 1225 334 1255 q 461 1196 393 1196 q 559 1225 530 1196 q 589 1308 589 1255 q 612 1365 589 1365 l 727 1365 l 728 1335 q 460 1126 728 1126 q 262 1178 331 1126 q 194 1335 194 1230 l 195 1365 m 168 117 q 216 116 183 116 q 267 115 250 115 q 336 124 311 115 q 377 154 361 132 q 410 218 394 175 l 71 940 l -9 957 l -9 1032 l 373 1032 l 373 957 l 243 939 l 454 460 l 492 341 l 533 461 l 705 940 l 594 957 l 594 1032 l 896 1032 l 896 957 l 820 939 l 530 220 l 519 192 q 469 87 493 129 q 404 15 446 46 q 298 -16 361 -16 q 226 -8 262 -16 q 168 9 190 -1 l 168 117 z "},"Ф":{"ha":1065,"x_min":22,"x_max":1042,"o":"m 459 64 l 459 164 q 190 221 286 170 q 58 350 93 273 q 22 528 22 428 q 73 699 22 623 q 222 821 124 774 q 459 876 321 867 l 459 968 l 329 987 l 329 1061 l 735 1061 l 735 987 l 606 968 l 606 876 q 878 822 781 871 q 1008 697 974 772 q 1042 524 1042 623 q 990 350 1042 429 q 840 223 939 272 q 606 165 742 174 l 606 62 l 736 43 l 736 -29 l 330 -29 l 330 46 l 459 64 m 459 812 q 293 767 352 805 q 214 671 235 728 q 194 536 194 614 q 249 329 194 414 q 459 231 304 244 l 459 812 m 606 231 q 771 279 713 239 q 849 379 829 319 q 870 521 870 439 q 850 657 870 597 q 772 760 830 717 q 606 812 713 802 l 606 231 z "},"Х":{"ha":991,"x_min":8,"x_max":992,"o":"m 127 90 l 414 515 l 130 939 l 28 957 l 28 1032 l 444 1032 l 444 957 l 321 939 l 531 600 l 739 939 l 621 957 l 621 1032 l 966 1032 l 966 957 l 857 939 l 579 543 l 886 90 l 992 74 l 992 0 l 576 0 l 576 74 l 694 90 l 465 456 l 250 90 l 382 74 l 382 0 l 8 0 l 8 74 l 127 90 z "},"Ч":{"ha":965,"x_min":11,"x_max":907,"o":"m 627 91 l 627 462 q 520 414 586 432 q 392 395 455 395 q 229 425 294 395 q 131 523 165 454 q 96 711 96 593 l 96 937 l 11 956 l 11 1032 l 364 1032 l 364 956 l 253 937 l 253 760 q 267 583 253 637 q 317 513 281 530 q 434 497 353 497 q 542 511 488 497 q 627 549 596 525 l 627 940 l 509 957 l 509 1032 l 906 1032 l 906 957 l 785 939 l 785 90 l 907 72 l 907 0 l 490 0 l 490 74 l 627 91 z "},"Ц":{"ha":1109,"x_min":51,"x_max":1085,"o":"m 51 0 l 51 73 l 180 92 l 180 940 l 66 957 l 66 1032 l 471 1032 l 471 957 l 337 939 l 337 87 l 757 87 l 757 940 l 652 957 l 652 1032 l 1027 1032 l 1027 957 l 914 940 l 914 90 l 1085 90 q 1066 -87 1085 77 q 1046 -256 1048 -251 l 949 -256 q 939 -119 948 -225 q 926 0 930 -13 l 51 0 z "},"Ш":{"ha":1524,"x_min":51,"x_max":1472,"o":"m 337 90 l 688 90 l 688 940 l 588 957 l 588 1032 l 947 1032 l 947 957 l 842 939 l 842 90 l 1187 90 l 1187 939 l 1086 957 l 1086 1032 l 1457 1032 l 1457 957 l 1344 940 l 1344 91 l 1472 74 l 1472 0 l 51 0 l 51 74 l 180 91 l 180 939 l 66 957 l 66 1032 l 458 1032 l 458 957 l 337 939 l 337 90 z "},"Щ":{"ha":1541,"x_min":51,"x_max":1516,"o":"m 180 91 l 180 940 l 66 957 l 66 1032 l 458 1032 l 458 957 l 337 940 l 337 90 l 688 90 l 688 940 l 588 957 l 588 1032 l 947 1032 l 947 957 l 842 939 l 842 90 l 1187 90 l 1187 939 l 1086 957 l 1086 1032 l 1457 1032 l 1457 957 l 1344 940 l 1344 90 l 1516 90 q 1497 -87 1516 76 q 1476 -256 1478 -251 l 1379 -256 q 1369 -119 1378 -225 q 1356 0 1360 -13 l 51 0 l 51 74 l 180 91 z "},"Џ":{"ha":1108,"x_min":60,"x_max":1048,"o":"m 644 0 q 628 -121 642 -3 q 614 -257 614 -238 l 509 -257 q 495 -120 509 -237 q 478 0 481 -3 l 60 0 l 60 74 l 180 90 l 180 939 l 66 957 l 66 1032 l 469 1032 l 469 957 l 337 939 l 337 85 l 771 85 l 771 940 l 654 957 l 654 1032 l 1038 1032 l 1038 957 l 928 939 l 928 91 l 1048 74 l 1048 0 l 644 0 z "},"Ь":{"ha":902,"x_min":66,"x_max":864,"o":"m 259 0 l 66 0 l 66 74 l 180 89 l 180 943 l 69 963 l 69 1032 l 469 1032 l 469 963 l 338 943 l 338 626 l 512 626 q 704 590 625 626 q 823 486 783 554 q 864 323 864 418 q 817 142 864 217 q 686 28 770 66 q 494 -11 603 -11 q 401 -6 471 -11 q 260 0 292 0 l 260 1 l 259 0 m 338 81 q 393 72 366 75 q 468 68 420 68 q 637 132 579 68 q 696 313 696 195 q 636 482 696 426 q 469 538 577 538 l 338 538 l 338 81 z "},"Ъ":{"ha":1143,"x_min":49,"x_max":1105,"o":"m 235 73 l 416 91 l 416 953 l 194 943 l 151 681 l 49 681 l 68 1032 l 704 1032 l 704 958 l 577 939 l 577 624 l 751 624 q 943 588 864 624 q 1064 485 1023 553 q 1105 323 1105 418 q 1058 141 1105 216 q 929 27 1012 66 q 736 -11 846 -11 q 648 -7 726 -11 q 503 0 545 0 l 235 0 l 235 73 m 577 81 q 633 71 606 74 q 707 68 659 68 q 878 131 819 68 q 937 311 937 194 q 877 481 937 425 q 707 537 817 537 l 577 537 l 577 81 z "},"Ы":{"ha":1463,"x_min":76,"x_max":1425,"o":"m 200 90 l 200 939 l 76 957 l 76 1032 l 484 1032 l 484 957 l 360 940 l 360 90 l 486 72 l 486 0 l 76 0 l 76 74 l 200 90 m 820 0 l 627 0 l 627 74 l 741 89 l 741 943 l 630 963 l 630 1032 l 1030 1032 l 1030 963 l 899 943 l 899 626 l 1073 626 q 1264 590 1185 626 q 1384 486 1343 554 q 1425 323 1425 418 q 1378 142 1425 217 q 1247 28 1331 66 q 1055 -11 1164 -11 q 962 -6 1031 -11 q 821 0 852 0 l 821 1 l 820 0 m 899 81 q 954 72 926 75 q 1029 68 981 68 q 1198 132 1140 68 q 1257 313 1257 195 q 1197 482 1257 426 q 1029 538 1138 538 l 899 538 l 899 81 z "}}}
